<svg xmlns="http://www.w3.org/2000/svg" xmlns:xlink="http://www.w3.org/1999/xlink" xmlns:lucid="lucid" width="1200" height="560"><g transform="translate(0 0)" lucid:page-tab-id="0_0"><path d="M0 0h1200v560H0z" fill="#fff"/><path d="M20 240h122.64v60H20z" stroke="#000" stroke-opacity="0" stroke-width="2" fill="#fff" fill-opacity="0"/><use xlink:href="#a" transform="matrix(1,0,0,1,25,245) translate(25.5 17.799999999999997)"/><use xlink:href="#b" transform="matrix(1,0,0,1,25,245) translate(6.599999999999994 39.4)"/><use xlink:href="#c" transform="matrix(1,0,0,1,25,245) translate(57.55 39.4)"/><path d="M142.64 270l97.64-86.5" stroke="#000" stroke-width="2" fill="none"/><path d="M143.3 270.75l-.66.6V270zM232.68 196.43l-6.15-6.94 13.75-6z"/><path d="M240.28 185.47l-7.44 12.65-7.97-9 15.4-6.7zm-12.1 4.4l4.33 4.87 5.36-9.1z"/><path d="M599 116.3L740 190" stroke="#000" stroke-width="2" fill="none"/><path d="M599.46 115.4l-.46.9v-1.13zM740 190l-14.8-2.5 4.3-8.22z"/><path d="M740 188.57V191l-16.3-2.74 5.56-10.66zm-13.27-1.83l10.4 1.76-7.38-7.53z"/><path d="M599 116.3l143 9.4" stroke="#000" stroke-width="2" fill="none"/><path d="M599.07 115.3l-.07 1v-1zM742 125.7l-14.54 3.7.6-9.26z"/><path d="M742 124.62v2.1l-15.63 3.98.8-12zm-13.45 3.46l10.22-2.6-9.8-3.9z"/><path d="M740 160h102v60H740z" stroke="#000" stroke-opacity="0" stroke-width="2" fill="#fff" fill-opacity="0"/><use xlink:href="#d" transform="matrix(1,0,0,1,745,165) translate(5.774999999999999 28.6)"/><path d="M742 35.7h80v60h-80z" stroke="#000" stroke-opacity="0" stroke-width="2" fill="#fff" fill-opacity="0"/><use xlink:href="#e" transform="matrix(1,0,0,1,747,40.69999999999999) translate(7.175000000000001 28.6)"/><path d="M599 116.3l143-50.6" stroke="#000" stroke-width="2" fill="none"/><path d="M599.33 117.24l-.33.12v-1.06zM730.1 74.83L727 66.1l15-.4z"/><path d="M742 66.96l-12.4 9.5-4-11.33 16.4-.43zm-13.6.1l2.18 6.14 8.37-6.42z"/><path d="M742 95.7h100v60H742z" stroke="#000" stroke-opacity="0" stroke-width="2" fill="#fff" fill-opacity="0"/><use xlink:href="#f" transform="matrix(1,0,0,1,747,100.69999999999999) translate(5.199999999999996 28.6)"/><path d="M842 190h58" stroke="#000" stroke-width="2" fill="none"/><path/><path d="M900 190l-14.27 4.64v-9.28z" fill="#fff"/><path d="M900 188.95v2.1L884.73 196v-12zm-13.27 4.3l10.03-3.25-10.03-3.26z"/><path d="M900 160h240v60H900z" stroke="#000" stroke-opacity="0" stroke-width="2" fill="#fff" fill-opacity="0"/><use xlink:href="#g" transform="matrix(1,0,0,1,905,165) translate(11.650000000000006 17.799999999999997)"/><use xlink:href="#h" transform="matrix(1,0,0,1,905,165) translate(84.4 17.799999999999997)"/><use xlink:href="#i" transform="matrix(1,0,0,1,905,165) translate(128.4 17.799999999999997)"/><use xlink:href="#j" transform="matrix(1,0,0,1,905,165) translate(148.4 17.799999999999997)"/><use xlink:href="#k" transform="matrix(1,0,0,1,905,165) translate(47.375 39.4)"/><use xlink:href="#l" transform="matrix(1,0,0,1,905,165) translate(92.375 39.4)"/><path d="M822 65.7h80" stroke="#000" stroke-width="2" fill="none"/><path/><path d="M902 65.7l-14.27 4.64v-9.28z" fill="#fff"/><path d="M902 64.65v2.1l-15.27 4.96v-12zm-13.27 4.3l10.03-3.25-10.03-3.26z"/><path d="M902 35.7h180v60H902z" stroke="#000" stroke-opacity="0" stroke-width="2" fill="#fff" fill-opacity="0"/><use xlink:href="#m" transform="matrix(1,0,0,1,907,40.69999999999999) translate(16.07499999999999 28.6)"/><use xlink:href="#n" transform="matrix(1,0,0,1,907,40.69999999999999) translate(64.02499999999999 28.6)"/><use xlink:href="#o" transform="matrix(1,0,0,1,907,40.69999999999999) translate(84.02499999999999 28.6)"/><path d="M842 125.7h60" stroke="#000" stroke-width="2" fill="none"/><path/><path d="M902 125.7l-14.27 4.64v-9.28z" fill="#fff"/><path d="M902 124.65v2.1l-15.27 4.96v-12zm-13.27 4.3l10.03-3.25-10.03-3.26z"/><path d="M902 88.3h258v74.8H902z" stroke="#000" stroke-opacity="0" stroke-width="2" fill="#fff" fill-opacity="0"/><use xlink:href="#p" transform="matrix(1,0,0,1,907,93.29999999999998) translate(5.2749999999999915 25.299999999999997)"/><use xlink:href="#i" transform="matrix(1,0,0,1,907,93.29999999999998) translate(77.175 25.299999999999997)"/><use xlink:href="#q" transform="matrix(1,0,0,1,907,93.29999999999998) translate(97.175 25.299999999999997)"/><use xlink:href="#i" transform="matrix(1,0,0,1,907,93.29999999999998) translate(131.175 25.299999999999997)"/><use xlink:href="#r" transform="matrix(1,0,0,1,907,93.29999999999998) translate(151.175 25.299999999999997)"/><use xlink:href="#s" transform="matrix(1,0,0,1,907,93.29999999999998) translate(212.075 25.299999999999997)"/><use xlink:href="#t" transform="matrix(1,0,0,1,907,93.29999999999998) translate(26.57499999999999 46.9)"/><use xlink:href="#u" transform="matrix(1,0,0,1,907,93.29999999999998) translate(50.874999999999986 46.9)"/><use xlink:href="#t" transform="matrix(1,0,0,1,907,93.29999999999998) translate(81.17499999999998 46.9)"/><use xlink:href="#v" transform="matrix(1,0,0,1,907,93.29999999999998) translate(105.475 46.9)"/><use xlink:href="#t" transform="matrix(1,0,0,1,907,93.29999999999998) translate(146.825 46.9)"/><use xlink:href="#w" transform="matrix(1,0,0,1,907,93.29999999999998) translate(171.125 46.9)"/><use xlink:href="#x" transform="matrix(1,0,0,1,907,93.29999999999998) translate(201.125 46.9)"/><path d="M256.36 440H379v60H256.36z" stroke="#000" stroke-opacity="0" stroke-width="2" fill="#fff" fill-opacity="0"/><use xlink:href="#y" transform="matrix(1,0,0,1,261.35849056603774,445) translate(10.700000000000003 28.6)"/><path d="M142.64 270l113.72 200" stroke="#000" stroke-width="2" fill="none"/><path d="M143.5 269.5l-.86.5v-2.02zM256.36 470l-11.08-10.1 8.06-4.6z"/><path d="M256.36 465.04v6.3L243.6 459.7l10.44-5.94zm-9.4-4.96l7.8 7.1-2.13-10.32z"/><path d="M379 470h57.36" stroke="#000" stroke-width="2" fill="none"/><path/><path d="M436.36 470l-14.27 4.64v-9.28z" fill="#fff"/><path d="M436.36 468.95v2.1L421.1 476v-12zm-13.27 4.3L433.1 470l-10.03-3.26z"/><path d="M436.36 440H599v60H436.36z" stroke="#000" stroke-opacity="0" stroke-width="2" fill="#fff" fill-opacity="0"/><use xlink:href="#z" transform="matrix(1,0,0,1,441.35849056603774,445) translate(10.900000000000006 28.6)"/><use xlink:href="#A" transform="matrix(1,0,0,1,441.35849056603774,445) translate(65.5 28.6)"/><use xlink:href="#B" transform="matrix(1,0,0,1,441.35849056603774,445) translate(86.45 28.6)"/><path d="M240.28 167H341v33H240.28z" stroke="#000" stroke-opacity="0" stroke-width="2" fill="#fff" fill-opacity="0"/><use xlink:href="#C" transform="matrix(1,0,0,1,245.2830188679245,172) translate(9.549999999999997 15.1)"/><use xlink:href="#D" transform="matrix(1,0,0,1,245.2830188679245,172) translate(71.45 15.1)"/><path d="M239 320h102v33H239z" stroke="#000" stroke-opacity="0" stroke-width="2" fill="#fff" fill-opacity="0"/><use xlink:href="#C" transform="matrix(1,0,0,1,244,325) translate(9.049999999999997 15.1)"/><use xlink:href="#E" transform="matrix(1,0,0,1,244,325) translate(70.95 15.1)"/><path d="M290.64 320V200" fill="none"/><path d="M291.64 320c0 .55-.45 1-1 1s-1-.45-1-1 .45-1 1-1 1 .45 1 1zm0-4c0 .55-.45 1-1 1s-1-.45-1-1 .45-1 1-1 1 .45 1 1zm0-4c0 .55-.45 1-1 1s-1-.45-1-1 .45-1 1-1 1 .45 1 1zm0-4c0 .55-.45 1-1 1s-1-.45-1-1 .45-1 1-1 1 .45 1 1zm0-4c0 .55-.45 1-1 1s-1-.45-1-1 .45-1 1-1 1 .45 1 1zm0-4c0 .55-.45 1-1 1s-1-.45-1-1 .45-1 1-1 1 .45 1 1zm0-4c0 .55-.45 1-1 1s-1-.45-1-1 .45-1 1-1 1 .45 1 1zm0-4c0 .55-.45 1-1 1s-1-.45-1-1 .45-1 1-1 1 .45 1 1zm0-4c0 .55-.45 1-1 1s-1-.45-1-1 .45-1 1-1 1 .45 1 1zm0-4c0 .55-.45 1-1 1s-1-.45-1-1 .45-1 1-1 1 .45 1 1zm0-4c0 .55-.45 1-1 1s-1-.45-1-1 .45-1 1-1 1 .45 1 1zm0-4c0 .55-.45 1-1 1s-1-.45-1-1 .45-1 1-1 1 .45 1 1zm0-4c0 .55-.45 1-1 1s-1-.45-1-1 .45-1 1-1 1 .45 1 1zm0-4c0 .55-.45 1-1 1s-1-.45-1-1 .45-1 1-1 1 .45 1 1zm0-4c0 .55-.45 1-1 1s-1-.45-1-1 .45-1 1-1 1 .45 1 1zm0-4c0 .55-.45 1-1 1s-1-.45-1-1 .45-1 1-1 1 .45 1 1zm0-4c0 .55-.45 1-1 1s-1-.45-1-1 .45-1 1-1 1 .45 1 1zm0-4c0 .55-.45 1-1 1s-1-.45-1-1 .45-1 1-1 1 .45 1 1zm0-4c0 .55-.45 1-1 1s-1-.45-1-1 .45-1 1-1 1 .45 1 1zm0-4c0 .55-.45 1-1 1s-1-.45-1-1 .45-1 1-1 1 .45 1 1zm0-4c0 .55-.45 1-1 1s-1-.45-1-1 .45-1 1-1 1 .45 1 1zm0-4c0 .55-.45 1-1 1s-1-.45-1-1 .45-1 1-1 1 .45 1 1zm0-4c0 .55-.45 1-1 1s-1-.45-1-1 .45-1 1-1 1 .45 1 1zm0-4c0 .55-.45 1-1 1s-1-.45-1-1 .45-1 1-1 1 .45 1 1zm0-4c0 .55-.45 1-1 1s-1-.45-1-1 .45-1 1-1 1 .45 1 1zm0-4c0 .55-.45 1-1 1s-1-.45-1-1 .45-1 1-1 1 .45 1 1zm0-4c0 .55-.45 1-1 1s-1-.45-1-1 .45-1 1-1 1 .45 1 1zm0-4c0 .55-.45 1-1 1s-1-.45-1-1 .45-1 1-1 1 .45 1 1zm0-4c0 .55-.45 1-1 1s-1-.45-1-1 .45-1 1-1 1 .45 1 1zm0-4c0 .55-.45 1-1 1s-1-.45-1-1 .45-1 1-1 1 .45 1 1z"/><path/><path/><path d="M468.64 92.6H599V140H468.64z" stroke="#000" stroke-opacity="0" stroke-width="2" fill="#fff" fill-opacity="0"/><g><use xlink:href="#F" transform="matrix(1,0,0,1,473.64150943396226,97.6) translate(18.574999999999996 22.6)"/><use xlink:href="#G" transform="matrix(1,0,0,1,473.64150943396226,97.6) translate(92.42500000000001 22.6)"/></g><path d="M341 183.5l127.64-67.2" stroke="#000" stroke-width="2" fill="none"/><path d="M341.47 184.38l-.47.25v-1.13zM458.18 127.05l-4.32-8.2 14.78-2.55z"/><path d="M468.64 117.73l-10.7 11-5.6-10.64 16.3-2.8zm-13.26 1.87l3.04 5.76 7.36-7.55z"/><path d="M469 220h130v38.4H469z" stroke="#000" stroke-opacity="0" stroke-width="2" fill="#fff" fill-opacity="0"/><g><use xlink:href="#F" transform="matrix(1,0,0,1,474,225) translate(16.599999999999994 18.1)"/><use xlink:href="#H" transform="matrix(1,0,0,1,474,225) translate(90.45 18.1)"/></g><path d="M341 183.5l128 55.7" stroke="#000" stroke-width="2" fill="none"/><path d="M341.4 182.58l-.4.92v-1.1zM469 239.2l-14.93-1.44 3.7-8.5z"/><path d="M469 237.86v2.34l-16.4-1.58 4.8-11.02zm-13.46-.97l10.5 1-7.9-6.98z"/><path d="M534 220v-40h-.18v-40" fill="none"/><path d="M535 220c0 .55-.45 1-1 1s-1-.45-1-1 .45-1 1-1 1 .45 1 1zm0-4c0 .54-.45 1-1 1s-1-.46-1-1c0-.56.45-1 1-1s1 .44 1 1zm0-4.02c0 .55-.45 1-1 1s-1-.45-1-1 .45-1 1-1 1 .45 1 1zm0-4c0 .55-.45 1-1 1s-1-.45-1-1c0-.56.45-1 1-1s1 .44 1 1zm0-4.02c0 .56-.45 1-1 1s-1-.44-1-1c0-.55.45-1 1-1s1 .45 1 1zm0-4c0 .55-.45 1-1 1s-1-.45-1-1c0-.56.45-1 1-1s1 .44 1 1zm0-4c0 .54-.45 1-1 1s-1-.46-1-1c0-.57.45-1 1-1s1 .43 1 1zm0-4.02c0 .55-.45 1-1 1s-1-.45-1-1c0-.56.45-1 1-1s1 .44 1 1zm0-4c0 .54-.45 1-1 1s-1-.46-1-1c0-.56.45-1 1-1s1 .44 1 1zm0-4.02c0 .55-.45 1-1 1s-1-.45-1-1 .45-1 1-1 1 .45 1 1zm-.1-3.92c0 .55-.44 1-1 1-.54 0-1-.45-1-1s.46-1 1-1c.56 0 1 .45 1 1zm-.08-3.92c0 .55-.45 1-1 1s-1-.45-1-1 .45-1 1-1 1 .45 1 1zm0-4c0 .54-.45 1-1 1s-1-.46-1-1c0-.56.45-1 1-1s1 .44 1 1zm0-4.02c0 .56-.45 1-1 1s-1-.44-1-1c0-.55.45-1 1-1s1 .45 1 1zm0-4c0 .55-.45 1-1 1s-1-.45-1-1c0-.56.45-1 1-1s1 .44 1 1zm0-4.02c0 .56-.45 1-1 1s-1-.44-1-1c0-.55.45-1 1-1s1 .45 1 1zm0-4c0 .55-.45 1-1 1s-1-.45-1-1c0-.56.45-1 1-1s1 .44 1 1zm0-4c0 .54-.45 1-1 1s-1-.46-1-1c0-.57.45-1 1-1s1 .43 1 1zm0-4.02c0 .55-.45 1-1 1s-1-.45-1-1 .45-1 1-1 1 .45 1 1zm0-4c0 .54-.45 1-1 1s-1-.46-1-1c0-.56.45-1 1-1s1 .44 1 1z"/><path/><path/><path d="M534 380V258.4" fill="none"/><path d="M535 380c0 .55-.45 1-1 1s-1-.45-1-1 .45-1 1-1 1 .45 1 1zm0-4.05c0 .55-.45 1-1 1s-1-.45-1-1c0-.56.45-1 1-1s1 .44 1 1zm0-4.06c0 .55-.45 1-1 1s-1-.45-1-1c0-.56.45-1 1-1s1 .44 1 1zm0-4.06c0 .55-.45 1-1 1s-1-.45-1-1 .45-1 1-1 1 .45 1 1zm0-4.05c0 .54-.45 1-1 1s-1-.46-1-1c0-.57.45-1 1-1s1 .43 1 1zm0-4.07c0 .56-.45 1-1 1s-1-.44-1-1c0-.55.45-1 1-1s1 .45 1 1zm0-4.05c0 .55-.45 1-1 1s-1-.45-1-1 .45-1 1-1 1 .45 1 1zm0-4.05c0 .55-.45 1-1 1s-1-.45-1-1c0-.56.45-1 1-1s1 .44 1 1zm0-4.06c0 .56-.45 1-1 1s-1-.44-1-1c0-.55.45-1 1-1s1 .45 1 1zm0-4.05c0 .55-.45 1-1 1s-1-.45-1-1 .45-1 1-1 1 .45 1 1zm0-4.05c0 .55-.45 1-1 1s-1-.45-1-1c0-.56.45-1 1-1s1 .44 1 1zm0-4.06c0 .57-.45 1-1 1s-1-.43-1-1c0-.54.45-1 1-1s1 .46 1 1zm0-4.04c0 .55-.45 1-1 1s-1-.45-1-1 .45-1 1-1 1 .45 1 1zm0-4.05c0 .56-.45 1-1 1s-1-.44-1-1c0-.55.45-1 1-1s1 .45 1 1zm0-4.05c0 .56-.45 1-1 1s-1-.44-1-1c0-.55.45-1 1-1s1 .45 1 1zm0-4.05c0 .55-.45 1-1 1s-1-.45-1-1 .45-1 1-1 1 .45 1 1zm0-4.05c0 .55-.45 1-1 1s-1-.45-1-1c0-.56.45-1 1-1s1 .44 1 1zm0-4.06c0 .55-.45 1-1 1s-1-.45-1-1c0-.56.45-1 1-1s1 .44 1 1zm0-4.06c0 .55-.45 1-1 1s-1-.45-1-1 .45-1 1-1 1 .45 1 1zm0-4.05c0 .54-.45 1-1 1s-1-.46-1-1c0-.57.45-1 1-1s1 .43 1 1zm0-4.07c0 .56-.45 1-1 1s-1-.44-1-1c0-.55.45-1 1-1s1 .45 1 1zm0-4.05c0 .55-.45 1-1 1s-1-.45-1-1 .45-1 1-1 1 .45 1 1zm0-4.05c0 .55-.45 1-1 1s-1-.45-1-1c0-.56.45-1 1-1s1 .44 1 1zm0-4.06c0 .56-.45 1-1 1s-1-.44-1-1c0-.55.45-1 1-1s1 .45 1 1zm0-4.05c0 .55-.45 1-1 1s-1-.45-1-1 .45-1 1-1 1 .45 1 1zm0-4.05c0 .55-.45 1-1 1s-1-.45-1-1c0-.56.45-1 1-1s1 .44 1 1zm0-4.06c0 .57-.45 1-1 1s-1-.43-1-1c0-.54.45-1 1-1s1 .46 1 1zm0-4.04c0 .55-.45 1-1 1s-1-.45-1-1 .45-1 1-1 1 .45 1 1zm0-4.05c0 .56-.45 1-1 1s-1-.44-1-1c0-.55.45-1 1-1s1 .45 1 1zm0-4.05c0 .56-.45 1-1 1s-1-.44-1-1c0-.55.45-1 1-1s1 .45 1 1zm0-4.05c0 .55-.45 1-1 1s-1-.45-1-1 .45-1 1-1 1 .45 1 1z"/><path/><path d="M142.64 270L239 336.5" stroke="#000" stroke-width="2" fill="none"/><path d="M143.2 269.18l-.56.82v-1.22zM239 336.5l-14.37-4.3 5.26-7.62z"/><path d="M239 334.85v2.7l-15.98-4.77 6.83-9.9zm-12.77-3.2l10.1 3-6.4-8.37z"/><defs><path d="M115-194c55 1 70 41 70 98S169 2 115 4C84 4 66-9 55-30l1 105H24l-1-265h31l2 30c10-21 28-34 59-34zm-8 174c40 0 45-34 45-75s-6-73-45-74c-42 0-51 32-51 76 0 43 10 73 51 73" id="I"/><path d="M33 0v-248h34V0H33" id="J"/><path d="M117-194c89-4 53 116 60 194h-32v-121c0-31-8-49-39-48C34-167 62-67 57 0H25l-1-190h30c1 10-1 24 2 32 11-22 29-35 61-36" id="K"/><path d="M84 4C-5 8 30-112 23-190h32v120c0 31 7 50 39 49 72-2 45-101 50-169h31l1 190h-30c-1-10 1-25-2-33-11 22-28 36-60 37" id="L"/><path d="M59-47c-2 24 18 29 38 22v24C64 9 27 4 27-40v-127H5v-23h24l9-43h21v43h35v23H59v120" id="M"/><path d="M205 0l-28-72H64L36 0H1l101-248h38L239 0h-34zm-38-99l-47-123c-12 45-31 82-46 123h93" id="N"/><g id="a"><use transform="matrix(0.05,0,0,0.05,0,0)" xlink:href="#I"/><use transform="matrix(0.05,0,0,0.05,10,0)" xlink:href="#J"/><use transform="matrix(0.05,0,0,0.05,15,0)" xlink:href="#K"/><use transform="matrix(0.05,0,0,0.05,25,0)" xlink:href="#I"/><use transform="matrix(0.05,0,0,0.05,35,0)" xlink:href="#L"/><use transform="matrix(0.05,0,0,0.05,45,0)" xlink:href="#M"/><use transform="matrix(0.05,0,0,0.05,50,0)" xlink:href="#N"/></g><path d="M87 75C49 33 22-17 22-94c0-76 28-126 65-167h31c-38 41-64 92-64 168S80 34 118 75H87" id="O"/><g id="b"><use transform="matrix(0.05,0,0,0.05,0,0)" xlink:href="#O"/><use transform="matrix(0.05,0,0,0.05,5.95,0)" xlink:href="#J"/><use transform="matrix(0.05,0,0,0.05,10.95,0)" xlink:href="#K"/><use transform="matrix(0.05,0,0,0.05,20.95,0)" xlink:href="#I"/><use transform="matrix(0.05,0,0,0.05,30.950000000000003,0)" xlink:href="#L"/><use transform="matrix(0.05,0,0,0.05,40.95,0)" xlink:href="#M"/></g><path d="M114-163C36-179 61-72 57 0H25l-1-190h30c1 12-1 29 2 39 6-27 23-49 58-41v29" id="P"/><path d="M141-36C126-15 110 5 73 4 37 3 15-17 15-53c-1-64 63-63 125-63 3-35-9-54-41-54-24 1-41 7-42 31l-33-3c5-37 33-52 76-52 45 0 72 20 72 64v82c-1 20 7 32 28 27v20c-31 9-61-2-59-35zM48-53c0 20 12 33 32 33 41-3 63-29 60-74-43 2-92-5-92 41" id="Q"/><path d="M179-190L93 31C79 59 56 82 12 73V49c39 6 53-20 64-50L1-190h34L92-34l54-156h33" id="R"/><path d="M33-261c38 41 65 92 65 168S71 34 33 75H2C39 34 66-17 66-93S39-220 2-261h31" id="S"/><g id="c"><use transform="matrix(0.05,0,0,0.05,0,0)" xlink:href="#N"/><use transform="matrix(0.05,0,0,0.05,12,0)" xlink:href="#P"/><use transform="matrix(0.05,0,0,0.05,17.95,0)" xlink:href="#P"/><use transform="matrix(0.05,0,0,0.05,23.9,0)" xlink:href="#Q"/><use transform="matrix(0.05,0,0,0.05,33.9,0)" xlink:href="#R"/><use transform="matrix(0.05,0,0,0.05,42.9,0)" xlink:href="#S"/></g><path d="M109-170H84l-4-78h32zm-65 0H19l-4-78h33" id="T"/><path d="M85-194c31 0 48 13 60 33l-1-100h32l1 261h-30c-2-10 0-23-3-31C134-8 116 4 85 4 32 4 16-35 15-94c0-66 23-100 70-100zm9 24c-40 0-46 34-46 75 0 40 6 74 45 74 42 0 51-32 51-76 0-42-9-74-50-73" id="U"/><path d="M100-194c63 0 86 42 84 106H49c0 40 14 67 53 68 26 1 43-12 49-29l28 8c-11 28-37 45-77 45C44 4 14-33 15-96c1-61 26-98 85-98zm52 81c6-60-76-77-97-28-3 7-6 17-6 28h103" id="V"/><path d="M24 0v-261h32V0H24" id="W"/><path d="M24-231v-30h32v30H24zM24 0v-190h32V0H24" id="X"/><path d="M210-169c-67 3-38 105-44 169h-31v-121c0-29-5-50-35-48C34-165 62-65 56 0H25l-1-190h30c1 10-1 24 2 32 10-44 99-50 107 0 11-21 27-35 58-36 85-2 47 119 55 194h-31v-121c0-29-5-49-35-48" id="Y"/><g id="d"><use transform="matrix(0.05,0,0,0.05,0,0)" xlink:href="#T"/><use transform="matrix(0.05,0,0,0.05,6.3500000000000005,0)" xlink:href="#U"/><use transform="matrix(0.05,0,0,0.05,16.35,0)" xlink:href="#V"/><use transform="matrix(0.05,0,0,0.05,26.35,0)" xlink:href="#W"/><use transform="matrix(0.05,0,0,0.05,30.3,0)" xlink:href="#X"/><use transform="matrix(0.05,0,0,0.05,34.25,0)" xlink:href="#Y"/><use transform="matrix(0.05,0,0,0.05,49.2,0)" xlink:href="#X"/><use transform="matrix(0.05,0,0,0.05,53.150000000000006,0)" xlink:href="#M"/><use transform="matrix(0.05,0,0,0.05,58.150000000000006,0)" xlink:href="#V"/><use transform="matrix(0.05,0,0,0.05,68.15,0)" xlink:href="#P"/><use transform="matrix(0.05,0,0,0.05,74.10000000000001,0)" xlink:href="#T"/></g><path d="M108 0H70L1-190h34L89-25l56-165h34" id="Z"/><g id="e"><use transform="matrix(0.05,0,0,0.05,0,0)" xlink:href="#T"/><use transform="matrix(0.05,0,0,0.05,6.3500000000000005,0)" xlink:href="#Z"/><use transform="matrix(0.05,0,0,0.05,15.350000000000001,0)" xlink:href="#Q"/><use transform="matrix(0.05,0,0,0.05,25.35,0)" xlink:href="#W"/><use transform="matrix(0.05,0,0,0.05,29.3,0)" xlink:href="#L"/><use transform="matrix(0.05,0,0,0.05,39.3,0)" xlink:href="#V"/><use transform="matrix(0.05,0,0,0.05,49.3,0)" xlink:href="#T"/></g><path d="M100-194c62-1 85 37 85 99 1 63-27 99-86 99S16-35 15-95c0-66 28-99 85-99zM99-20c44 1 53-31 53-75 0-43-8-75-51-75s-53 32-53 75 10 74 51 75" id="aa"/><g id="f"><use transform="matrix(0.05,0,0,0.05,0,0)" xlink:href="#T"/><use transform="matrix(0.05,0,0,0.05,6.3500000000000005,0)" xlink:href="#aa"/><use transform="matrix(0.05,0,0,0.05,16.35,0)" xlink:href="#I"/><use transform="matrix(0.05,0,0,0.05,26.35,0)" xlink:href="#V"/><use transform="matrix(0.05,0,0,0.05,36.35,0)" xlink:href="#P"/><use transform="matrix(0.05,0,0,0.05,42.300000000000004,0)" xlink:href="#Q"/><use transform="matrix(0.05,0,0,0.05,52.300000000000004,0)" xlink:href="#M"/><use transform="matrix(0.05,0,0,0.05,57.300000000000004,0)" xlink:href="#aa"/><use transform="matrix(0.05,0,0,0.05,67.30000000000001,0)" xlink:href="#P"/><use transform="matrix(0.05,0,0,0.05,73.25000000000001,0)" xlink:href="#T"/></g><g id="g"><use transform="matrix(0.05,0,0,0.05,0,0)" xlink:href="#U"/><use transform="matrix(0.05,0,0,0.05,10,0)" xlink:href="#V"/><use transform="matrix(0.05,0,0,0.05,20,0)" xlink:href="#W"/><use transform="matrix(0.05,0,0,0.05,23.95,0)" xlink:href="#X"/><use transform="matrix(0.05,0,0,0.05,27.899999999999995,0)" xlink:href="#Y"/><use transform="matrix(0.05,0,0,0.05,42.85,0)" xlink:href="#X"/><use transform="matrix(0.05,0,0,0.05,46.800000000000004,0)" xlink:href="#M"/><use transform="matrix(0.05,0,0,0.05,51.800000000000004,0)" xlink:href="#V"/><use transform="matrix(0.05,0,0,0.05,61.800000000000004,0)" xlink:href="#P"/></g><path d="M135-143c-3-34-86-38-87 0 15 53 115 12 119 90S17 21 10-45l28-5c4 36 97 45 98 0-10-56-113-15-118-90-4-57 82-63 122-42 12 7 21 19 24 35" id="ab"/><g id="h"><use transform="matrix(0.05,0,0,0.05,0,0)" xlink:href="#L"/><use transform="matrix(0.05,0,0,0.05,10,0)" xlink:href="#ab"/><use transform="matrix(0.05,0,0,0.05,19,0)" xlink:href="#V"/><use transform="matrix(0.05,0,0,0.05,29,0)" xlink:href="#U"/></g><g id="i"><use transform="matrix(0.05,0,0,0.05,0,0)" xlink:href="#M"/><use transform="matrix(0.05,0,0,0.05,5,0)" xlink:href="#aa"/></g><g id="j"><use transform="matrix(0.05,0,0,0.05,0,0)" xlink:href="#ab"/><use transform="matrix(0.05,0,0,0.05,9,0)" xlink:href="#V"/><use transform="matrix(0.05,0,0,0.05,19,0)" xlink:href="#I"/><use transform="matrix(0.05,0,0,0.05,29,0)" xlink:href="#Q"/><use transform="matrix(0.05,0,0,0.05,39,0)" xlink:href="#P"/><use transform="matrix(0.05,0,0,0.05,44.95,0)" xlink:href="#Q"/><use transform="matrix(0.05,0,0,0.05,54.95,0)" xlink:href="#M"/><use transform="matrix(0.05,0,0,0.05,59.95,0)" xlink:href="#V"/></g><path d="M33-154v-36h34v36H33zM33 0v-36h34V0H33" id="ac"/><g id="k"><use transform="matrix(0.05,0,0,0.05,0,0)" xlink:href="#U"/><use transform="matrix(0.05,0,0,0.05,10,0)" xlink:href="#Q"/><use transform="matrix(0.05,0,0,0.05,20,0)" xlink:href="#M"/><use transform="matrix(0.05,0,0,0.05,25,0)" xlink:href="#Q"/><use transform="matrix(0.05,0,0,0.05,35,0)" xlink:href="#ac"/></g><path d="M68-38c1 34 0 65-14 84H32c9-13 17-26 17-46H33v-38h35" id="ad"/><path d="M101-234c-31-9-42 10-38 44h38v23H63V0H32v-167H5v-23h27c-7-52 17-82 69-68v24" id="ae"/><path d="M96-169c-40 0-48 33-48 73s9 75 48 75c24 0 41-14 43-38l32 2c-6 37-31 61-74 61-59 0-76-41-82-99-10-93 101-131 147-64 4 7 5 14 7 22l-32 3c-4-21-16-35-41-35" id="af"/><path d="M33 0v-38h34V0H33" id="ag"/><g id="l"><use transform="matrix(0.05,0,0,0.05,0,0)" xlink:href="#O"/><use transform="matrix(0.05,0,0,0.05,5.95,0)" xlink:href="#T"/><use transform="matrix(0.05,0,0,0.05,12.3,0)" xlink:href="#ad"/><use transform="matrix(0.05,0,0,0.05,17.3,0)" xlink:href="#T"/><use transform="matrix(0.05,0,0,0.05,23.650000000000002,0)" xlink:href="#ad"/><use transform="matrix(0.05,0,0,0.05,28.650000000000002,0)" xlink:href="#T"/><use transform="matrix(0.05,0,0,0.05,35,0)" xlink:href="#W"/><use transform="matrix(0.05,0,0,0.05,38.95,0)" xlink:href="#ae"/><use transform="matrix(0.05,0,0,0.05,43.95,0)" xlink:href="#T"/><use transform="matrix(0.05,0,0,0.05,50.300000000000004,0)" xlink:href="#ad"/><use transform="matrix(0.05,0,0,0.05,55.300000000000004,0)" xlink:href="#V"/><use transform="matrix(0.05,0,0,0.05,65.30000000000001,0)" xlink:href="#M"/><use transform="matrix(0.05,0,0,0.05,70.30000000000001,0)" xlink:href="#af"/><use transform="matrix(0.05,0,0,0.05,79.30000000000001,0)" xlink:href="#ag"/><use transform="matrix(0.05,0,0,0.05,84.30000000000001,0)" xlink:href="#S"/></g><g id="m"><use transform="matrix(0.05,0,0,0.05,0,0)" xlink:href="#Z"/><use transform="matrix(0.05,0,0,0.05,9,0)" xlink:href="#Q"/><use transform="matrix(0.05,0,0,0.05,19,0)" xlink:href="#W"/><use transform="matrix(0.05,0,0,0.05,22.95,0)" xlink:href="#L"/><use transform="matrix(0.05,0,0,0.05,32.95,0)" xlink:href="#V"/></g><g id="n"><use transform="matrix(0.05,0,0,0.05,0,0)" xlink:href="#M"/><use transform="matrix(0.05,0,0,0.05,5,0)" xlink:href="#aa"/></g><g id="o"><use transform="matrix(0.05,0,0,0.05,0,0)" xlink:href="#af"/><use transform="matrix(0.05,0,0,0.05,9,0)" xlink:href="#aa"/><use transform="matrix(0.05,0,0,0.05,19,0)" xlink:href="#Y"/><use transform="matrix(0.05,0,0,0.05,33.95,0)" xlink:href="#I"/><use transform="matrix(0.05,0,0,0.05,43.95,0)" xlink:href="#Q"/><use transform="matrix(0.05,0,0,0.05,53.95,0)" xlink:href="#P"/><use transform="matrix(0.05,0,0,0.05,59.900000000000006,0)" xlink:href="#V"/></g><g id="p"><use transform="matrix(0.05,0,0,0.05,0,0)" xlink:href="#aa"/><use transform="matrix(0.05,0,0,0.05,10,0)" xlink:href="#I"/><use transform="matrix(0.05,0,0,0.05,20,0)" xlink:href="#V"/><use transform="matrix(0.05,0,0,0.05,30,0)" xlink:href="#P"/><use transform="matrix(0.05,0,0,0.05,35.95,0)" xlink:href="#Q"/><use transform="matrix(0.05,0,0,0.05,45.95,0)" xlink:href="#M"/><use transform="matrix(0.05,0,0,0.05,50.95,0)" xlink:href="#aa"/><use transform="matrix(0.05,0,0,0.05,60.95,0)" xlink:href="#P"/></g><g id="q"><use transform="matrix(0.05,0,0,0.05,0,0)" xlink:href="#L"/><use transform="matrix(0.05,0,0,0.05,10,0)" xlink:href="#ab"/><use transform="matrix(0.05,0,0,0.05,19,0)" xlink:href="#V"/></g><path d="M177-190C167-65 218 103 67 71c-23-6-38-20-44-43l32-5c15 47 100 32 89-28v-30C133-14 115 1 83 1 29 1 15-40 15-95c0-56 16-97 71-98 29-1 48 16 59 35 1-10 0-23 2-32h30zM94-22c36 0 50-32 50-73 0-42-14-75-50-75-39 0-46 34-46 75s6 73 46 73" id="ah"/><g id="r"><use transform="matrix(0.05,0,0,0.05,0,0)" xlink:href="#Y"/><use transform="matrix(0.05,0,0,0.05,14.950000000000001,0)" xlink:href="#V"/><use transform="matrix(0.05,0,0,0.05,24.950000000000003,0)" xlink:href="#P"/><use transform="matrix(0.05,0,0,0.05,30.900000000000002,0)" xlink:href="#ah"/><use transform="matrix(0.05,0,0,0.05,40.900000000000006,0)" xlink:href="#V"/><use transform="matrix(0.05,0,0,0.05,50.900000000000006,0)" xlink:href="#ac"/></g><g id="s"><use transform="matrix(0.05,0,0,0.05,0,0)" xlink:href="#T"/><use transform="matrix(0.05,0,0,0.05,6.3500000000000005,0)" xlink:href="#X"/><use transform="matrix(0.05,0,0,0.05,10.3,0)" xlink:href="#ab"/><use transform="matrix(0.05,0,0,0.05,19.3,0)" xlink:href="#T"/><use transform="matrix(0.05,0,0,0.05,25.650000000000002,0)" xlink:href="#ad"/></g><g id="t"><use transform="matrix(0.05,0,0,0.05,0,0)" xlink:href="#T"/><use transform="matrix(0.05,0,0,0.05,6.3500000000000005,0)" xlink:href="#X"/><use transform="matrix(0.05,0,0,0.05,10.3,0)" xlink:href="#ab"/></g><g id="u"><use transform="matrix(0.05,0,0,0.05,0,0)" xlink:href="#X"/><use transform="matrix(0.05,0,0,0.05,3.95,0)" xlink:href="#K"/><use transform="matrix(0.05,0,0,0.05,13.949999999999998,0)" xlink:href="#T"/><use transform="matrix(0.05,0,0,0.05,20.3,0)" xlink:href="#ad"/></g><g id="v"><use transform="matrix(0.05,0,0,0.05,0,0)" xlink:href="#K"/><use transform="matrix(0.05,0,0,0.05,10,0)" xlink:href="#aa"/><use transform="matrix(0.05,0,0,0.05,20,0)" xlink:href="#M"/><use transform="matrix(0.05,0,0,0.05,25,0)" xlink:href="#T"/><use transform="matrix(0.05,0,0,0.05,31.35,0)" xlink:href="#ad"/></g><g id="w"><use transform="matrix(0.05,0,0,0.05,0,0)" xlink:href="#K"/><use transform="matrix(0.05,0,0,0.05,10,0)" xlink:href="#aa"/><use transform="matrix(0.05,0,0,0.05,20,0)" xlink:href="#M"/></g><g id="x"><use transform="matrix(0.05,0,0,0.05,0,0)" xlink:href="#X"/><use transform="matrix(0.05,0,0,0.05,3.95,0)" xlink:href="#K"/><use transform="matrix(0.05,0,0,0.05,13.949999999999998,0)" xlink:href="#T"/></g><path d="M115-194c53 0 69 39 70 98 0 66-23 100-70 100C84 3 66-7 56-30L54 0H23l1-261h32v101c10-23 28-34 59-34zm-8 174c40 0 45-34 45-75 0-40-5-75-45-74-42 0-51 32-51 76 0 43 10 73 51 73" id="ai"/><path d="M127-220V0H93v-220H8v-28h204v28h-85" id="aj"/><g id="y"><use transform="matrix(0.05,0,0,0.05,0,0)" xlink:href="#T"/><use transform="matrix(0.05,0,0,0.05,6.3500000000000005,0)" xlink:href="#af"/><use transform="matrix(0.05,0,0,0.05,15.350000000000001,0)" xlink:href="#U"/><use transform="matrix(0.05,0,0,0.05,25.35,0)" xlink:href="#ai"/><use transform="matrix(0.05,0,0,0.05,35.35,0)" xlink:href="#aj"/><use transform="matrix(0.05,0,0,0.05,44.300000000000004,0)" xlink:href="#Q"/><use transform="matrix(0.05,0,0,0.05,54.300000000000004,0)" xlink:href="#P"/><use transform="matrix(0.05,0,0,0.05,60.25,0)" xlink:href="#ah"/><use transform="matrix(0.05,0,0,0.05,70.25,0)" xlink:href="#V"/><use transform="matrix(0.05,0,0,0.05,80.25,0)" xlink:href="#M"/><use transform="matrix(0.05,0,0,0.05,85.25,0)" xlink:href="#T"/></g><g id="z"><use transform="matrix(0.05,0,0,0.05,0,0)" xlink:href="#T"/><use transform="matrix(0.05,0,0,0.05,6.3500000000000005,0)" xlink:href="#W"/><use transform="matrix(0.05,0,0,0.05,10.3,0)" xlink:href="#aa"/><use transform="matrix(0.05,0,0,0.05,20.3,0)" xlink:href="#af"/><use transform="matrix(0.05,0,0,0.05,29.3,0)" xlink:href="#Q"/><use transform="matrix(0.05,0,0,0.05,39.3,0)" xlink:href="#W"/><use transform="matrix(0.05,0,0,0.05,43.25,0)" xlink:href="#T"/></g><g id="A"><use transform="matrix(0.05,0,0,0.05,0,0)" xlink:href="#aa"/><use transform="matrix(0.05,0,0,0.05,10,0)" xlink:href="#P"/></g><g id="B"><use transform="matrix(0.05,0,0,0.05,0,0)" xlink:href="#T"/><use transform="matrix(0.05,0,0,0.05,6.3500000000000005,0)" xlink:href="#af"/><use transform="matrix(0.05,0,0,0.05,15.350000000000001,0)" xlink:href="#W"/><use transform="matrix(0.05,0,0,0.05,19.3,0)" xlink:href="#aa"/><use transform="matrix(0.05,0,0,0.05,29.3,0)" xlink:href="#L"/><use transform="matrix(0.05,0,0,0.05,39.3,0)" xlink:href="#U"/><use transform="matrix(0.05,0,0,0.05,49.3,0)" xlink:href="#T"/></g><path d="M30-248c118-7 216 8 213 122C240-48 200 0 122 0H30v-248zM63-27c89 8 146-16 146-99s-60-101-146-95v194" id="ak"/><g id="C"><use transform="matrix(0.05,0,0,0.05,0,0)" xlink:href="#M"/><use transform="matrix(0.05,0,0,0.05,5,0)" xlink:href="#Q"/><use transform="matrix(0.05,0,0,0.05,15,0)" xlink:href="#ai"/><use transform="matrix(0.05,0,0,0.05,25,0)" xlink:href="#W"/><use transform="matrix(0.05,0,0,0.05,28.950000000000003,0)" xlink:href="#V"/><use transform="matrix(0.05,0,0,0.05,38.95,0)" xlink:href="#J"/><use transform="matrix(0.05,0,0,0.05,43.95,0)" xlink:href="#ak"/></g><path d="M27 0v-27h64v-190l-56 39v-29l58-41h29v221h61V0H27" id="al"/><use transform="matrix(0.05,0,0,0.05,0,0)" xlink:href="#al" id="D"/><path d="M194 0L95-120 63-95V0H30v-248h33v124l119-124h40L117-140 236 0h-42" id="am"/><use transform="matrix(0.05,0,0,0.05,0,0)" xlink:href="#am" id="E"/><g id="F"><use transform="matrix(0.05,0,0,0.05,0,0)" xlink:href="#P"/><use transform="matrix(0.05,0,0,0.05,5.95,0)" xlink:href="#V"/><use transform="matrix(0.05,0,0,0.05,15.949999999999998,0)" xlink:href="#af"/><use transform="matrix(0.05,0,0,0.05,24.95,0)" xlink:href="#aa"/><use transform="matrix(0.05,0,0,0.05,34.95,0)" xlink:href="#P"/><use transform="matrix(0.05,0,0,0.05,40.900000000000006,0)" xlink:href="#U"/><use transform="matrix(0.05,0,0,0.05,50.900000000000006,0)" xlink:href="#J"/><use transform="matrix(0.05,0,0,0.05,55.900000000000006,0)" xlink:href="#ak"/></g><use transform="matrix(0.05,0,0,0.05,0,0)" xlink:href="#al" id="G"/><path d="M190 0L58-211 59 0H30v-248h39L202-35l-2-213h31V0h-41" id="an"/><use transform="matrix(0.05,0,0,0.05,0,0)" xlink:href="#an" id="H"/></defs></g></svg>