<svg xmlns="http://www.w3.org/2000/svg" xmlns:xlink="http://www.w3.org/1999/xlink" xmlns:lucid="lucid" width="1280" height="800"><g transform="translate(0 0)" lucid:page-tab-id="0_0"><path d="M0 0h1280v800H0z" fill="#fff"/><path d="M20 240h122.64v60H20z" fill="none"/><use xlink:href="#a" transform="matrix(1,0,0,1,25,245) translate(25.5 17.799999999999997)"/><use xlink:href="#b" transform="matrix(1,0,0,1,25,245) translate(6.599999999999994 39.4)"/><use xlink:href="#c" transform="matrix(1,0,0,1,25,245) translate(57.55 39.4)"/><path d="M220 160h120v60H220z" fill="none"/><use xlink:href="#d" transform="matrix(1,0,0,1,225,165) translate(2.1750000000000043 28.6)"/><path d="M142.64 270L220 190" stroke="#000" stroke-width="2" fill="none"/><path d="M143.36 270.7l-.72.74V270zM213.42 203.48l-6.67-6.45L220 190z"/><path d="M220 192.28l-6.3 12.87-8.63-8.35 14.93-7.93zm-11.56 5l4.68 4.52 4.63-9.47z"/><path d="M720 70l143-40" stroke="#000" stroke-width="2" fill="none"/><path d="M720.27 70.96l-.27.08V70zM863 30l-12.5 8.3-2.5-8.92z"/><path d="M863 29v2.2l-13.08 8.7-3.24-11.58zm-11.9 7.7l8.78-5.83-10.53-.43z"/><path d="M720 70l143 80" stroke="#000" stroke-width="2" fill="none"/><path d="M720.5 69.13l-.5.87v-1.15zM863 150l-14.7-2.92 4.5-8.1z"/><path d="M863 148.53v2.5l-16.26-3.24 5.87-10.5zm-13.17-2.16l10.35 2.05-7.17-7.74z"/><path d="M863 0h80v60h-80z" fill="none"/><use xlink:href="#e" transform="matrix(1,0,0,1,868,5) translate(14.649999999999999 28.6)"/><path d="M863 60h80v60h-80z" fill="none"/><use xlink:href="#f" transform="matrix(1,0,0,1,868,65) translate(7.175000000000001 28.6)"/><path d="M720 70l143 20" stroke="#000" stroke-width="2" fill="none"/><path d="M720.14 69l-.14 1v-1zM863 90l-14.77 2.6 1.28-9.17z"/><path d="M863 88.9V91l-15.95 2.82 1.66-11.9zm-13.6 2.5l10.4-1.85-9.5-4.6z"/><path d="M863 120h100v60H863z" fill="none"/><use xlink:href="#g" transform="matrix(1,0,0,1,868,125) translate(5.199999999999996 28.6)"/><path d="M943 30h80" stroke="#000" stroke-width="2" fill="none"/><path/><path d="M1023 30l-14.27 4.64v-9.28z" fill="#fff"/><path d="M1023 28.95v2.1L1007.73 36V24zm-13.27 4.3l10.03-3.25-10.03-3.26z"/><path d="M1023 0h240v60h-240z" fill="none"/><use xlink:href="#h" transform="matrix(1,0,0,1,1028,5) translate(4.9750000000000085 28.6)"/><use xlink:href="#i" transform="matrix(1,0,0,1,1028,5) translate(123.82500000000002 28.6)"/><use xlink:href="#j" transform="matrix(1,0,0,1,1028,5) translate(150.72500000000002 28.6)"/><use xlink:href="#k" transform="matrix(1,0,0,1,1028,5) translate(178.425 28.6)"/><use xlink:href="#l" transform="matrix(1,0,0,1,1028,5) translate(199.375 28.6)"/><path d="M943 90h80" stroke="#000" stroke-width="2" fill="none"/><path/><path d="M1023 90l-14.27 4.64v-9.28z" fill="#fff"/><path d="M1023 88.95v2.1L1007.73 96V84zm-13.27 4.3l10.03-3.25-10.03-3.26z"/><path d="M1023 60h180v60h-180z" fill="none"/><use xlink:href="#m" transform="matrix(1,0,0,1,1028,65) translate(16.07499999999999 28.6)"/><use xlink:href="#n" transform="matrix(1,0,0,1,1028,65) translate(64.02499999999999 28.6)"/><use xlink:href="#o" transform="matrix(1,0,0,1,1028,65) translate(84.02499999999999 28.6)"/><path d="M963 150h60" stroke="#000" stroke-width="2" fill="none"/><path/><path d="M1023 150l-14.27 4.64v-9.28z" fill="#fff"/><path d="M1023 148.95v2.1l-15.27 4.96v-12zm-13.27 4.3l10.03-3.25-10.03-3.26z"/><path d="M1023 120h180v60h-180z" fill="none"/><use xlink:href="#p" transform="matrix(1,0,0,1,1028,125) translate(4.099999999999994 17.799999999999997)"/><use xlink:href="#n" transform="matrix(1,0,0,1,1028,125) translate(76 17.799999999999997)"/><use xlink:href="#q" transform="matrix(1,0,0,1,1028,125) translate(96 17.799999999999997)"/><use xlink:href="#r" transform="matrix(1,0,0,1,1028,125) translate(33.8 39.4)"/><use xlink:href="#s" transform="matrix(1,0,0,1,1028,125) translate(60.25 39.4)"/><use xlink:href="#t" transform="matrix(1,0,0,1,1028,125) translate(80.75 39.4)"/><use xlink:href="#u" transform="matrix(1,0,0,1,1028,125) translate(101.25 39.4)"/><path d="M240 660h122.64v60H240z" fill="none"/><use xlink:href="#v" transform="matrix(1,0,0,1,245,665) translate(10.700000000000003 28.6)"/><path d="M142.64 270L240 690" stroke="#000" stroke-width="2" fill="none"/><path d="M143.62 269.77l-.98.23v-3.08l.3-.07zM240 690l-7.74-12.85 7.74-1.8z"/><path d="M240 676.38l-6.17 1.43 5.44 9.05.73-8.44v13.54l-9.3-15.45 9.3-2.17z"/><path d="M362.64 690H460" stroke="#000" stroke-width="2" fill="none"/><path/><path d="M460 690l-14.27 4.64v-9.28z" fill="#fff"/><path d="M460 688.95v2.1L444.73 696v-12zm-13.27 4.3l10.03-3.25-10.03-3.26z"/><path d="M460 660h162.64v60H460z" fill="none"/><use xlink:href="#w" transform="matrix(1,0,0,1,465,665) translate(10.900000000000006 28.6)"/><use xlink:href="#k" transform="matrix(1,0,0,1,465,665) translate(65.5 28.6)"/><use xlink:href="#x" transform="matrix(1,0,0,1,465,665) translate(86.45 28.6)"/><path d="M420 300h140v60H420z" fill="none"/><use xlink:href="#y" transform="matrix(1,0,0,1,425,305) translate(8.274999999999999 28.6)"/><path d="M142.64 270L260 400" stroke="#000" stroke-width="2" fill="none"/><path d="M143.38 269.33l-.74.67v-1.5zM260 400l-13-7.48 6.88-6.22z"/><path d="M260 397.55v3.6l-14.7-8.45 8.93-8.06zm-11.3-5.2l9.13 5.25-4.3-9.63z"/><path d="M560 330h57" stroke="#000" stroke-width="2" fill="none"/><path/><path d="M617 330l-14.27 4.64v-9.28z" fill="#fff"/><path d="M617 328.95v2.1L601.73 336v-12zm-13.27 4.3l10.03-3.25-10.03-3.26z"/><path d="M617 300h179.64v60H617z" fill="none"/><use xlink:href="#z" transform="matrix(1,0,0,1,622,305) translate(3.799999999999997 17.799999999999997)"/><use xlink:href="#A" transform="matrix(1,0,0,1,622,305) translate(100.35 17.799999999999997)"/><use xlink:href="#k" transform="matrix(1,0,0,1,622,305) translate(23.75 39.4)"/><use xlink:href="#B" transform="matrix(1,0,0,1,622,305) translate(44.7 39.4)"/><path d="M436.28 80H537v60H436.28z" fill="none"/><use xlink:href="#C" transform="matrix(1,0,0,1,441.2830188679245,85) translate(9.549999999999997 28.6)"/><use xlink:href="#D" transform="matrix(1,0,0,1,441.2830188679245,85) translate(71.45 28.6)"/><path d="M340 190l96.28-80" stroke="#000" stroke-width="2" fill="none"/><path d="M340.64 190.77l-.64.53V190zM428.27 122.68l-5.92-7.13 13.93-5.55z"/><path d="M436.28 111.87l-7.9 12.5-7.68-9.24 15.58-6.2zm-12.28 4.1l4.16 5 5.63-8.9z"/><path d="M436 200h101v60H436z" fill="none"/><use xlink:href="#C" transform="matrix(1,0,0,1,441,205) translate(8.549999999999997 28.6)"/><use xlink:href="#E" transform="matrix(1,0,0,1,441,205) translate(70.45 28.6)"/><path d="M340 190l96 40" stroke="#000" stroke-width="2" fill="none"/><path d="M340.38 189.08l-.38.92v-1.08zM436 230l-14.95-1.2 3.56-8.57z"/><path d="M436 228.68V231l-16.4-1.32 4.62-11.1zm-13.5-.77l10.5.86-8-6.87z"/><path d="M486.5 200v-30h.14v-30" fill="none"/><path d="M487.5 200c0 .55-.45 1-1 1s-1-.45-1-1 .45-1 1-1 1 .45 1 1zm0-4c0 .54-.45 1-1 1s-1-.46-1-1c0-.56.45-1 1-1s1 .44 1 1zm0-4.02c0 .55-.45 1-1 1s-1-.45-1-1 .45-1 1-1 1 .45 1 1zm0-4c0 .54-.45 1-1 1s-1-.46-1-1c0-.56.45-1 1-1s1 .44 1 1zm0-4.02c0 .55-.45 1-1 1s-1-.45-1-1 .45-1 1-1 1 .45 1 1zm0-4c0 .55-.45 1-1 1s-1-.45-1-1c0-.56.45-1 1-1s1 .44 1 1zm0-4.02c0 .56-.45 1-1 1s-1-.44-1-1c0-.55.45-1 1-1s1 .45 1 1zm0-4c0 .55-.45 1-1 1s-1-.45-1-1c0-.56.45-1 1-1s1 .44 1 1zm.14-3.87c0 .55-.45 1-1 1s-1-.45-1-1c0-.56.45-1 1-1s1 .44 1 1zm0-4c0 .54-.45 1-1 1s-1-.46-1-1c0-.57.45-1 1-1s1 .43 1 1zm0-4.02c0 .55-.45 1-1 1s-1-.45-1-1c0-.56.45-1 1-1s1 .44 1 1zm0-4c0 .54-.45 1-1 1s-1-.46-1-1c0-.56.45-1 1-1s1 .44 1 1zm0-4.02c0 .55-.45 1-1 1s-1-.45-1-1 .45-1 1-1 1 .45 1 1zm0-4c0 .54-.45 1-1 1s-1-.46-1-1c0-.56.45-1 1-1s1 .44 1 1zm0-4.02c0 .56-.45 1-1 1s-1-.44-1-1c0-.54.45-1 1-1s1 .46 1 1z"/><path/><path/><path d="M589.64 32.6H720v74.8H589.64z" fill="none"/><use xlink:href="#F" transform="matrix(1,0,0,1,594.6415094339623,37.6) translate(17.049999999999997 25.299999999999997)"/><use xlink:href="#G" transform="matrix(1,0,0,1,594.6415094339623,37.6) translate(71 25.299999999999997)"/><use xlink:href="#H" transform="matrix(1,0,0,1,594.6415094339623,37.6) translate(93.95 25.299999999999997)"/><use xlink:href="#I" transform="matrix(1,0,0,1,594.6415094339623,37.6) translate(5.099999999999994 46.9)"/><use xlink:href="#J" transform="matrix(1,0,0,1,594.6415094339623,37.6) translate(51 46.9)"/><path d="M537 110l52.64-40" stroke="#000" stroke-width="2" fill="none"/><path d="M537.6 110.8l-.6.46V110zM581.1 82.32l-5.62-7.38L589.64 70z"/><path d="M589.64 71.75l-8.52 12.27-7.27-9.57 15.8-5.5zm-12.53 3.68l3.95 5.2 6-8.67z"/><path d="M590 138.4h130v60H590z" fill="none"/><use xlink:href="#F" transform="matrix(1,0,0,1,595,143.39999999999998) translate(15.074999999999996 17.799999999999997)"/><use xlink:href="#G" transform="matrix(1,0,0,1,595,143.39999999999998) translate(69.025 17.799999999999997)"/><use xlink:href="#K" transform="matrix(1,0,0,1,595,143.39999999999998) translate(91.975 17.799999999999997)"/><use xlink:href="#I" transform="matrix(1,0,0,1,595,143.39999999999998) translate(4.599999999999994 39.4)"/><use xlink:href="#J" transform="matrix(1,0,0,1,595,143.39999999999998) translate(50.5 39.4)"/><path d="M537 110l53 58.4" stroke="#000" stroke-width="2" fill="none"/><path d="M537.74 109.33l-.74.67v-1.5zM590 168.4l-13.02-7.45 6.87-6.23z"/><path d="M590 165.96v3.6l-14.7-8.42 8.9-8.08zm-11.33-5.2l9.16 5.24-4.33-9.6z"/><path d="M655 138.4v-15.5h-.18v-15.5" fill="none"/><path d="M656 138.4c0 .55-.45 1-1 1s-1-.45-1-1 .45-1 1-1 1 .45 1 1zm0-3.9c0 .55-.45 1-1 1s-1-.45-1-1 .45-1 1-1 1 .45 1 1zm0-3.9c0 .56-.45 1-1 1s-1-.44-1-1c0-.55.45-1 1-1s1 .45 1 1zm0-3.9c0 .56-.45 1-1 1s-1-.44-1-1c0-.54.45-1 1-1s1 .46 1 1zm-.1-3.8c0 .55-.44 1-1 1-.54 0-1-.45-1-1s.46-1 1-1c.56 0 1 .45 1 1zm-.08-3.8c0 .54-.45 1-1 1s-1-.46-1-1c0-.56.45-1 1-1s1 .44 1 1zm0-3.9c0 .55-.45 1-1 1s-1-.45-1-1c0-.56.45-1 1-1s1 .44 1 1zm0-3.9c0 .55-.45 1-1 1s-1-.45-1-1 .45-1 1-1 1 .45 1 1z"/><path/><path/><path d="M260 380h100v40H260z" fill="none"/><use xlink:href="#L" transform="matrix(1,0,0,1,265,385) translate(7.674999999999997 18.6)"/><path d="M360 400l60-70" stroke="#000" stroke-width="2" fill="none"/><path d="M360.76 400.65l-.76.9V400zM414.24 343.85l-7.04-6.04L420 330z"/><path d="M420 332.6l-5.37 12.9-9.13-7.82 14.5-8.85zm-11.1 5.35l4.94 4.24 4.05-9.74z"/><path d="M655 240v-41.6" fill="none"/><path d="M656 240c0 .55-.45 1-1 1s-1-.45-1-1 .45-1 1-1 1 .45 1 1zm0-4.16c0 .55-.45 1-1 1s-1-.45-1-1 .45-1 1-1 1 .45 1 1zm0-4.16c0 .55-.45 1-1 1s-1-.45-1-1 .45-1 1-1 1 .45 1 1zm0-4.16c0 .55-.45 1-1 1s-1-.45-1-1 .45-1 1-1 1 .45 1 1zm0-4.16c0 .55-.45 1-1 1s-1-.45-1-1 .45-1 1-1 1 .45 1 1zm0-4.16c0 .55-.45 1-1 1s-1-.45-1-1 .45-1 1-1 1 .45 1 1zm0-4.16c0 .55-.45 1-1 1s-1-.45-1-1 .45-1 1-1 1 .45 1 1zm0-4.16c0 .55-.45 1-1 1s-1-.45-1-1 .45-1 1-1 1 .45 1 1zm0-4.16c0 .55-.45 1-1 1s-1-.45-1-1 .45-1 1-1 1 .45 1 1zm0-4.16c0 .55-.45 1-1 1s-1-.45-1-1 .45-1 1-1 1 .45 1 1z"/><path/><path d="M423 368.2h84v63.6h-84z" fill="none"/><use xlink:href="#M" transform="matrix(1,0,0,1,428,373.2) translate(8.175 30.6)"/><path d="M507 400l110-.4" stroke="#000" stroke-width="2" fill="none"/><path d="M507 401v-1z"/><path d="M617 399.6l-14.25 4.7-.03-9.28z" fill="#fff"/><path d="M617 398.55v2.1l-15.24 5.02-.05-12.03zm-13.25 4.36l10-3.3-10.03-3.2z"/><path d="M617 362.2h246V437H617z" fill="none"/><use xlink:href="#N" transform="matrix(1,0,0,1,622,367.20000000000005) translate(31.924999999999997 25.299999999999997)"/><use xlink:href="#O" transform="matrix(1,0,0,1,622,367.20000000000005) translate(98.625 25.299999999999997)"/><use xlink:href="#P" transform="matrix(1,0,0,1,622,367.20000000000005) translate(9.925000000000011 46.9)"/><use xlink:href="#Q" transform="matrix(1,0,0,1,622,367.20000000000005) translate(115.42500000000001 46.9)"/><use xlink:href="#R" transform="matrix(1,0,0,1,622,367.20000000000005) translate(136.375 46.9)"/><path d="M360 400h63" stroke="#000" stroke-width="2" fill="none"/><path/><path d="M423 400l-14.27 4.64v-9.28z"/><path d="M423 398.95v2.1L407.73 406v-12zm-13.27 4.3l10.03-3.25-10.03-3.26z"/><path d="M423 436.4h140V500H423z" fill="none"/><use xlink:href="#S" transform="matrix(1,0,0,1,428,441.4) translate(4.25 30.6)"/><path d="M563 468.2h54" stroke="#000" stroke-width="2" fill="none"/><path/><path d="M617 468.2l-14.27 4.64v-9.28z" fill="#fff"/><path d="M617 467.15v2.1l-15.27 4.96v-12zm-13.27 4.3l10.03-3.25-10.03-3.26z"/><path d="M617 436.4h106V500H617z" fill="none"/><use xlink:href="#T" transform="matrix(1,0,0,1,622,441.4) translate(11.549999999999997 30.6)"/><path d="M360 400l63 68.2" stroke="#000" stroke-width="2" fill="none"/><path d="M360.73 399.32l-.73.68v-1.47zM423 468.2l-13.08-7.33 6.8-6.3z"/><path d="M423 465.8v3.55l-14.77-8.28 8.83-8.16zm-11.4-5.13l9.2 5.15-4.4-9.58z"/><path d="M403 500h162.64v96.4H403z" fill="none"/><g><use xlink:href="#U" transform="matrix(1,0,0,1,408,505.00000000000006) translate(34.225 25.5)"/><use xlink:href="#V" transform="matrix(1,0,0,1,408,505.00000000000006) translate(22.074999999999996 47.1)"/><use xlink:href="#W" transform="matrix(1,0,0,1,408,505.00000000000006) translate(65.975 47.1)"/><use xlink:href="#X" transform="matrix(1,0,0,1,408,505.00000000000006) translate(109.975 47.1)"/><use xlink:href="#Y" transform="matrix(1,0,0,1,408,505.00000000000006) translate(9.549999999999997 68.7)"/><use xlink:href="#Z" transform="matrix(1,0,0,1,408,505.00000000000006) translate(92.55 68.7)"/></g><path d="M360 400l43 148.2" stroke="#000" stroke-width="2" fill="none"/><path d="M360.96 399.72l-.96.28v-3.12l.12-.04zM403 548.2l-8.43-12.4 8.43-2.45z"/><path d="M403 549.98l-10.03-14.77 10.03-2.9zm-6.83-13.6l5.93 8.7.33-10.53z"/><path d="M622.28 480H723v60H622.28z" fill="none"/><g><use xlink:href="#C" transform="matrix(1,0,0,1,627.2830188679245,485) translate(9.549999999999997 28.6)"/><use xlink:href="#D" transform="matrix(1,0,0,1,627.2830188679245,485) translate(71.45 28.6)"/></g><path d="M565.64 548.2l56.64-38.2" stroke="#000" stroke-width="2" fill="none"/><path d="M566.2 549.03l-.56.38v-1.2zM613.05 521.82l-5.2-7.7L622.3 510z"/><path d="M622.28 511.62l-9.3 11.9-6.7-9.97 16-4.6zm-12.82 3.1l3.65 5.4 6.5-8.3z"/><path d="M622 600h101v60H622z" fill="none"/><g><use xlink:href="#C" transform="matrix(1,0,0,1,627,605) translate(8.549999999999997 28.6)"/><use xlink:href="#E" transform="matrix(1,0,0,1,627,605) translate(70.45 28.6)"/></g><path d="M565.64 548.2L622 630" stroke="#000" stroke-width="2" fill="none"/><path d="M566.46 547.63l-.82.57v-1.76zM622 630l-11.9-9.12 7.62-5.26z"/><path d="M622 626.5v4.76l-13.6-10.42 9.9-6.82zm-10.2-5.58l8.36 6.42-3-10.1z"/><path d="M672.5 600v-30h.14v-30" fill="none"/><path d="M673.5 600c0 .55-.45 1-1 1s-1-.45-1-1 .45-1 1-1 1 .45 1 1zm0-4c0 .54-.45 1-1 1s-1-.46-1-1c0-.56.45-1 1-1s1 .44 1 1zm0-4.02c0 .55-.45 1-1 1s-1-.45-1-1 .45-1 1-1 1 .45 1 1zm0-4c0 .54-.45 1-1 1s-1-.46-1-1c0-.56.45-1 1-1s1 .44 1 1zm0-4.02c0 .55-.45 1-1 1s-1-.45-1-1 .45-1 1-1 1 .45 1 1zm0-4c0 .55-.45 1-1 1s-1-.45-1-1c0-.56.45-1 1-1s1 .44 1 1zm0-4.02c0 .56-.45 1-1 1s-1-.44-1-1c0-.55.45-1 1-1s1 .45 1 1zm0-4c0 .55-.45 1-1 1s-1-.45-1-1c0-.56.45-1 1-1s1 .44 1 1zm.14-3.87c0 .55-.45 1-1 1s-1-.45-1-1c0-.56.45-1 1-1s1 .44 1 1zm0-4c0 .54-.45 1-1 1s-1-.46-1-1c0-.57.45-1 1-1s1 .43 1 1zm0-4.02c0 .55-.45 1-1 1s-1-.45-1-1c0-.56.45-1 1-1s1 .44 1 1zm0-4c0 .54-.45 1-1 1s-1-.46-1-1c0-.56.45-1 1-1s1 .44 1 1zm0-4.02c0 .55-.45 1-1 1s-1-.45-1-1 .45-1 1-1 1 .45 1 1zm0-4c0 .54-.45 1-1 1s-1-.46-1-1c0-.56.45-1 1-1s1 .44 1 1zm0-4.02c0 .56-.45 1-1 1s-1-.44-1-1c0-.54.45-1 1-1s1 .46 1 1z"/><path/><path/><path d="M783 480h240v60H783z" fill="none"/><g><use xlink:href="#aa" transform="matrix(1,0,0,1,788,485) translate(4.625 17.799999999999997)"/><use xlink:href="#ab" transform="matrix(1,0,0,1,788,485) translate(37.575 17.799999999999997)"/><use xlink:href="#ac" transform="matrix(1,0,0,1,788,485) translate(57.575 17.799999999999997)"/><use xlink:href="#ad" transform="matrix(1,0,0,1,788,485) translate(125.47500000000001 17.799999999999997)"/><use xlink:href="#ae" transform="matrix(1,0,0,1,788,485) translate(206.375 17.799999999999997)"/><use xlink:href="#af" transform="matrix(1,0,0,1,788,485) translate(63.125 39.4)"/><use xlink:href="#ag" transform="matrix(1,0,0,1,788,485) translate(123.92500000000001 39.4)"/></g><path d="M723 510h60" stroke="#000" stroke-width="2" fill="none"/><path/><path d="M783 510l-14.27 4.64v-9.28z" fill="#fff"/><path d="M783 508.95v2.1L767.73 516v-12zm-13.27 4.3l10.03-3.25-10.03-3.26z"/><path d="M783 600h240v60H783z" fill="none"/><g><use xlink:href="#aa" transform="matrix(1,0,0,1,788,605) translate(4.625 17.799999999999997)"/><use xlink:href="#ab" transform="matrix(1,0,0,1,788,605) translate(37.575 17.799999999999997)"/><use xlink:href="#ac" transform="matrix(1,0,0,1,788,605) translate(57.575 17.799999999999997)"/><use xlink:href="#ad" transform="matrix(1,0,0,1,788,605) translate(125.47500000000001 17.799999999999997)"/><use xlink:href="#ae" transform="matrix(1,0,0,1,788,605) translate(206.375 17.799999999999997)"/><use xlink:href="#af" transform="matrix(1,0,0,1,788,605) translate(63.125 39.4)"/><use xlink:href="#ag" transform="matrix(1,0,0,1,788,605) translate(123.92500000000001 39.4)"/></g><path d="M723 630h60" stroke="#000" stroke-width="2" fill="none"/><path d="M783 630l-14.27 4.64v-9.28z" fill="#fff"/><path d="M783 628.95v2.1L767.73 636v-12zm-13.27 4.3l10.03-3.25-10.03-3.26z"/><defs><path d="M115-194c55 1 70 41 70 98S169 2 115 4C84 4 66-9 55-30l1 105H24l-1-265h31l2 30c10-21 28-34 59-34zm-8 174c40 0 45-34 45-75s-6-73-45-74c-42 0-51 32-51 76 0 43 10 73 51 73" id="ah"/><path d="M33 0v-248h34V0H33" id="ai"/><path d="M117-194c89-4 53 116 60 194h-32v-121c0-31-8-49-39-48C34-167 62-67 57 0H25l-1-190h30c1 10-1 24 2 32 11-22 29-35 61-36" id="aj"/><path d="M84 4C-5 8 30-112 23-190h32v120c0 31 7 50 39 49 72-2 45-101 50-169h31l1 190h-30c-1-10 1-25-2-33-11 22-28 36-60 37" id="ak"/><path d="M59-47c-2 24 18 29 38 22v24C64 9 27 4 27-40v-127H5v-23h24l9-43h21v43h35v23H59v120" id="al"/><path d="M205 0l-28-72H64L36 0H1l101-248h38L239 0h-34zm-38-99l-47-123c-12 45-31 82-46 123h93" id="am"/><g id="a"><use transform="matrix(0.05,0,0,0.05,0,0)" xlink:href="#ah"/><use transform="matrix(0.05,0,0,0.05,10,0)" xlink:href="#ai"/><use transform="matrix(0.05,0,0,0.05,15,0)" xlink:href="#aj"/><use transform="matrix(0.05,0,0,0.05,25,0)" xlink:href="#ah"/><use transform="matrix(0.05,0,0,0.05,35,0)" xlink:href="#ak"/><use transform="matrix(0.05,0,0,0.05,45,0)" xlink:href="#al"/><use transform="matrix(0.05,0,0,0.05,50,0)" xlink:href="#am"/></g><path d="M87 75C49 33 22-17 22-94c0-76 28-126 65-167h31c-38 41-64 92-64 168S80 34 118 75H87" id="an"/><g id="b"><use transform="matrix(0.05,0,0,0.05,0,0)" xlink:href="#an"/><use transform="matrix(0.05,0,0,0.05,5.95,0)" xlink:href="#ai"/><use transform="matrix(0.05,0,0,0.05,10.95,0)" xlink:href="#aj"/><use transform="matrix(0.05,0,0,0.05,20.95,0)" xlink:href="#ah"/><use transform="matrix(0.05,0,0,0.05,30.950000000000003,0)" xlink:href="#ak"/><use transform="matrix(0.05,0,0,0.05,40.95,0)" xlink:href="#al"/></g><path d="M114-163C36-179 61-72 57 0H25l-1-190h30c1 12-1 29 2 39 6-27 23-49 58-41v29" id="ao"/><path d="M141-36C126-15 110 5 73 4 37 3 15-17 15-53c-1-64 63-63 125-63 3-35-9-54-41-54-24 1-41 7-42 31l-33-3c5-37 33-52 76-52 45 0 72 20 72 64v82c-1 20 7 32 28 27v20c-31 9-61-2-59-35zM48-53c0 20 12 33 32 33 41-3 63-29 60-74-43 2-92-5-92 41" id="ap"/><path d="M179-190L93 31C79 59 56 82 12 73V49c39 6 53-20 64-50L1-190h34L92-34l54-156h33" id="aq"/><path d="M33-261c38 41 65 92 65 168S71 34 33 75H2C39 34 66-17 66-93S39-220 2-261h31" id="ar"/><g id="c"><use transform="matrix(0.05,0,0,0.05,0,0)" xlink:href="#am"/><use transform="matrix(0.05,0,0,0.05,12,0)" xlink:href="#ao"/><use transform="matrix(0.05,0,0,0.05,17.95,0)" xlink:href="#ao"/><use transform="matrix(0.05,0,0,0.05,23.9,0)" xlink:href="#ap"/><use transform="matrix(0.05,0,0,0.05,33.9,0)" xlink:href="#aq"/><use transform="matrix(0.05,0,0,0.05,42.9,0)" xlink:href="#ar"/></g><path d="M109-170H84l-4-78h32zm-65 0H19l-4-78h33" id="as"/><path d="M115-194c53 0 69 39 70 98 0 66-23 100-70 100C84 3 66-7 56-30L54 0H23l1-261h32v101c10-23 28-34 59-34zm-8 174c40 0 45-34 45-75 0-40-5-75-45-74-42 0-51 32-51 76 0 43 10 73 51 73" id="at"/><path d="M96-169c-40 0-48 33-48 73s9 75 48 75c24 0 41-14 43-38l32 2c-6 37-31 61-74 61-59 0-76-41-82-99-10-93 101-131 147-64 4 7 5 14 7 22l-32 3c-4-21-16-35-41-35" id="au"/><path d="M106-169C34-169 62-67 57 0H25v-261h32l-1 103c12-21 28-36 61-36 89 0 53 116 60 194h-32v-121c2-32-8-49-39-48" id="av"/><path d="M140-251c81 0 123 46 123 126C263-53 228-8 163 1c7 30 30 48 69 40v23c-55 16-95-15-103-61C56-3 17-48 17-125c0-80 42-126 123-126zm0 227c63 0 89-41 89-101s-29-99-89-99c-61 0-89 39-89 99S79-25 140-24" id="aw"/><path d="M100-194c63 0 86 42 84 106H49c0 40 14 67 53 68 26 1 43-12 49-29l28 8c-11 28-37 45-77 45C44 4 14-33 15-96c1-61 26-98 85-98zm52 81c6-60-76-77-97-28-3 7-6 17-6 28h103" id="ax"/><g id="d"><use transform="matrix(0.05,0,0,0.05,0,0)" xlink:href="#as"/><use transform="matrix(0.05,0,0,0.05,6.3500000000000005,0)" xlink:href="#at"/><use transform="matrix(0.05,0,0,0.05,16.35,0)" xlink:href="#ap"/><use transform="matrix(0.05,0,0,0.05,26.35,0)" xlink:href="#al"/><use transform="matrix(0.05,0,0,0.05,31.35,0)" xlink:href="#au"/><use transform="matrix(0.05,0,0,0.05,40.35,0)" xlink:href="#av"/><use transform="matrix(0.05,0,0,0.05,50.35,0)" xlink:href="#aw"/><use transform="matrix(0.05,0,0,0.05,64.35,0)" xlink:href="#ak"/><use transform="matrix(0.05,0,0,0.05,74.35,0)" xlink:href="#ax"/><use transform="matrix(0.05,0,0,0.05,84.35,0)" xlink:href="#ao"/><use transform="matrix(0.05,0,0,0.05,90.3,0)" xlink:href="#aq"/><use transform="matrix(0.05,0,0,0.05,99.3,0)" xlink:href="#as"/></g><path d="M143 0L79-87 56-68V0H24v-261h32v163l83-92h37l-77 82L181 0h-38" id="ay"/><g id="e"><use transform="matrix(0.05,0,0,0.05,0,0)" xlink:href="#as"/><use transform="matrix(0.05,0,0,0.05,6.3500000000000005,0)" xlink:href="#ay"/><use transform="matrix(0.05,0,0,0.05,15.350000000000001,0)" xlink:href="#ax"/><use transform="matrix(0.05,0,0,0.05,25.35,0)" xlink:href="#aq"/><use transform="matrix(0.05,0,0,0.05,34.35,0)" xlink:href="#as"/></g><path d="M108 0H70L1-190h34L89-25l56-165h34" id="az"/><path d="M24 0v-261h32V0H24" id="aA"/><g id="f"><use transform="matrix(0.05,0,0,0.05,0,0)" xlink:href="#as"/><use transform="matrix(0.05,0,0,0.05,6.3500000000000005,0)" xlink:href="#az"/><use transform="matrix(0.05,0,0,0.05,15.350000000000001,0)" xlink:href="#ap"/><use transform="matrix(0.05,0,0,0.05,25.35,0)" xlink:href="#aA"/><use transform="matrix(0.05,0,0,0.05,29.3,0)" xlink:href="#ak"/><use transform="matrix(0.05,0,0,0.05,39.3,0)" xlink:href="#ax"/><use transform="matrix(0.05,0,0,0.05,49.3,0)" xlink:href="#as"/></g><path d="M100-194c62-1 85 37 85 99 1 63-27 99-86 99S16-35 15-95c0-66 28-99 85-99zM99-20c44 1 53-31 53-75 0-43-8-75-51-75s-53 32-53 75 10 74 51 75" id="aB"/><g id="g"><use transform="matrix(0.05,0,0,0.05,0,0)" xlink:href="#as"/><use transform="matrix(0.05,0,0,0.05,6.3500000000000005,0)" xlink:href="#aB"/><use transform="matrix(0.05,0,0,0.05,16.35,0)" xlink:href="#ah"/><use transform="matrix(0.05,0,0,0.05,26.35,0)" xlink:href="#ax"/><use transform="matrix(0.05,0,0,0.05,36.35,0)" xlink:href="#ao"/><use transform="matrix(0.05,0,0,0.05,42.300000000000004,0)" xlink:href="#ap"/><use transform="matrix(0.05,0,0,0.05,52.300000000000004,0)" xlink:href="#al"/><use transform="matrix(0.05,0,0,0.05,57.300000000000004,0)" xlink:href="#aB"/><use transform="matrix(0.05,0,0,0.05,67.30000000000001,0)" xlink:href="#ao"/><use transform="matrix(0.05,0,0,0.05,73.25000000000001,0)" xlink:href="#as"/></g><path d="M194 0L95-120 63-95V0H30v-248h33v124l119-124h40L117-140 236 0h-42" id="aC"/><path d="M190 0L58-211 59 0H30v-248h39L202-35l-2-213h31V0h-41" id="aD"/><path d="M210-169c-67 3-38 105-44 169h-31v-121c0-29-5-50-35-48C34-165 62-65 56 0H25l-1-190h30c1 10-1 24 2 32 10-44 99-50 107 0 11-21 27-35 58-36 85-2 47 119 55 194h-31v-121c0-29-5-49-35-48" id="aE"/><g id="h"><use transform="matrix(0.05,0,0,0.05,0,0)" xlink:href="#aq"/><use transform="matrix(0.05,0,0,0.05,9,0)" xlink:href="#aB"/><use transform="matrix(0.05,0,0,0.05,19,0)" xlink:href="#ak"/><use transform="matrix(0.05,0,0,0.05,29,0)" xlink:href="#ao"/><use transform="matrix(0.05,0,0,0.05,34.95,0)" xlink:href="#aC"/><use transform="matrix(0.05,0,0,0.05,46.95,0)" xlink:href="#ax"/><use transform="matrix(0.05,0,0,0.05,56.95,0)" xlink:href="#aq"/><use transform="matrix(0.05,0,0,0.05,65.95,0)" xlink:href="#aD"/><use transform="matrix(0.05,0,0,0.05,78.9,0)" xlink:href="#ap"/><use transform="matrix(0.05,0,0,0.05,88.9,0)" xlink:href="#aE"/><use transform="matrix(0.05,0,0,0.05,103.85000000000001,0)" xlink:href="#ax"/></g><g id="i"><use transform="matrix(0.05,0,0,0.05,0,0)" xlink:href="#an"/><use transform="matrix(0.05,0,0,0.05,5.95,0)" xlink:href="#aB"/><use transform="matrix(0.05,0,0,0.05,15.949999999999998,0)" xlink:href="#ao"/></g><path d="M194-70c0 46-34 64-81 66v29H91V-4C42-5 12-27 4-67l30-6c5 28 25 41 57 43v-87c-38-9-76-20-76-67 1-42 33-58 76-59v-23h22v23c45 0 67 20 76 56l-31 6c-5-23-18-35-45-37v78c41 10 81 20 81 70zm-81 41c51 7 71-66 19-77-6-2-12-4-19-6v83zM91-219c-47-6-63 57-18 69 6 2 12 3 18 5v-74" id="aF"/><g id="j"><use transform="matrix(0.05,0,0,0.05,0,0)" xlink:href="#as"/><use transform="matrix(0.05,0,0,0.05,6.3500000000000005,0)" xlink:href="#aF"/><use transform="matrix(0.05,0,0,0.05,16.35,0)" xlink:href="#as"/></g><g id="k"><use transform="matrix(0.05,0,0,0.05,0,0)" xlink:href="#aB"/><use transform="matrix(0.05,0,0,0.05,10,0)" xlink:href="#ao"/></g><path d="M80-196l47-18 7 23-49 13 32 44-20 13-27-46-27 45-21-12 33-44-49-13 8-23 47 19-2-53h23" id="aG"/><g id="l"><use transform="matrix(0.05,0,0,0.05,0,0)" xlink:href="#as"/><use transform="matrix(0.05,0,0,0.05,6.3500000000000005,0)" xlink:href="#aG"/><use transform="matrix(0.05,0,0,0.05,13.350000000000001,0)" xlink:href="#as"/><use transform="matrix(0.05,0,0,0.05,19.700000000000003,0)" xlink:href="#ar"/></g><g id="m"><use transform="matrix(0.05,0,0,0.05,0,0)" xlink:href="#az"/><use transform="matrix(0.05,0,0,0.05,9,0)" xlink:href="#ap"/><use transform="matrix(0.05,0,0,0.05,19,0)" xlink:href="#aA"/><use transform="matrix(0.05,0,0,0.05,22.95,0)" xlink:href="#ak"/><use transform="matrix(0.05,0,0,0.05,32.95,0)" xlink:href="#ax"/></g><g id="n"><use transform="matrix(0.05,0,0,0.05,0,0)" xlink:href="#al"/><use transform="matrix(0.05,0,0,0.05,5,0)" xlink:href="#aB"/></g><g id="o"><use transform="matrix(0.05,0,0,0.05,0,0)" xlink:href="#au"/><use transform="matrix(0.05,0,0,0.05,9,0)" xlink:href="#aB"/><use transform="matrix(0.05,0,0,0.05,19,0)" xlink:href="#aE"/><use transform="matrix(0.05,0,0,0.05,33.95,0)" xlink:href="#ah"/><use transform="matrix(0.05,0,0,0.05,43.95,0)" xlink:href="#ap"/><use transform="matrix(0.05,0,0,0.05,53.95,0)" xlink:href="#ao"/><use transform="matrix(0.05,0,0,0.05,59.900000000000006,0)" xlink:href="#ax"/></g><g id="p"><use transform="matrix(0.05,0,0,0.05,0,0)" xlink:href="#aB"/><use transform="matrix(0.05,0,0,0.05,10,0)" xlink:href="#ah"/><use transform="matrix(0.05,0,0,0.05,20,0)" xlink:href="#ax"/><use transform="matrix(0.05,0,0,0.05,30,0)" xlink:href="#ao"/><use transform="matrix(0.05,0,0,0.05,35.95,0)" xlink:href="#ap"/><use transform="matrix(0.05,0,0,0.05,45.95,0)" xlink:href="#al"/><use transform="matrix(0.05,0,0,0.05,50.95,0)" xlink:href="#aB"/><use transform="matrix(0.05,0,0,0.05,60.95,0)" xlink:href="#ao"/></g><g id="q"><use transform="matrix(0.05,0,0,0.05,0,0)" xlink:href="#au"/><use transform="matrix(0.05,0,0,0.05,9,0)" xlink:href="#aB"/><use transform="matrix(0.05,0,0,0.05,19,0)" xlink:href="#aE"/><use transform="matrix(0.05,0,0,0.05,33.95,0)" xlink:href="#ah"/><use transform="matrix(0.05,0,0,0.05,43.95,0)" xlink:href="#ap"/><use transform="matrix(0.05,0,0,0.05,53.95,0)" xlink:href="#ao"/><use transform="matrix(0.05,0,0,0.05,59.900000000000006,0)" xlink:href="#ax"/></g><path d="M18-100v-36l175-74v27L42-118l151 64v27" id="aH"/><path d="M68-38c1 34 0 65-14 84H32c9-13 17-26 17-46H33v-38h35" id="aI"/><g id="r"><use transform="matrix(0.05,0,0,0.05,0,0)" xlink:href="#an"/><use transform="matrix(0.05,0,0,0.05,5.95,0)" xlink:href="#aH"/><use transform="matrix(0.05,0,0,0.05,16.45,0)" xlink:href="#aI"/></g><path d="M18-150v-26h174v26H18zm0 90v-26h174v26H18" id="aJ"/><g id="s"><use transform="matrix(0.05,0,0,0.05,0,0)" xlink:href="#aJ"/><use transform="matrix(0.05,0,0,0.05,10.5,0)" xlink:href="#aI"/></g><path d="M16-127c37-31 93-2 135 6 18-1 32-8 43-16v26c-50 42-130-35-178 9v-25" id="aK"/><g id="t"><use transform="matrix(0.05,0,0,0.05,0,0)" xlink:href="#aK"/><use transform="matrix(0.05,0,0,0.05,10.5,0)" xlink:href="#aI"/></g><path d="M33 0v-38h34V0H33" id="aL"/><g id="u"><use transform="matrix(0.05,0,0,0.05,0,0)" xlink:href="#ax"/><use transform="matrix(0.05,0,0,0.05,10,0)" xlink:href="#al"/><use transform="matrix(0.05,0,0,0.05,15,0)" xlink:href="#au"/><use transform="matrix(0.05,0,0,0.05,24,0)" xlink:href="#aL"/><use transform="matrix(0.05,0,0,0.05,29,0)" xlink:href="#ar"/></g><path d="M85-194c31 0 48 13 60 33l-1-100h32l1 261h-30c-2-10 0-23-3-31C134-8 116 4 85 4 32 4 16-35 15-94c0-66 23-100 70-100zm9 24c-40 0-46 34-46 75 0 40 6 74 45 74 42 0 51-32 51-76 0-42-9-74-50-73" id="aM"/><path d="M127-220V0H93v-220H8v-28h204v28h-85" id="aN"/><path d="M177-190C167-65 218 103 67 71c-23-6-38-20-44-43l32-5c15 47 100 32 89-28v-30C133-14 115 1 83 1 29 1 15-40 15-95c0-56 16-97 71-98 29-1 48 16 59 35 1-10 0-23 2-32h30zM94-22c36 0 50-32 50-73 0-42-14-75-50-75-39 0-46 34-46 75s6 73 46 73" id="aO"/><g id="v"><use transform="matrix(0.05,0,0,0.05,0,0)" xlink:href="#as"/><use transform="matrix(0.05,0,0,0.05,6.3500000000000005,0)" xlink:href="#au"/><use transform="matrix(0.05,0,0,0.05,15.350000000000001,0)" xlink:href="#aM"/><use transform="matrix(0.05,0,0,0.05,25.35,0)" xlink:href="#at"/><use transform="matrix(0.05,0,0,0.05,35.35,0)" xlink:href="#aN"/><use transform="matrix(0.05,0,0,0.05,44.300000000000004,0)" xlink:href="#ap"/><use transform="matrix(0.05,0,0,0.05,54.300000000000004,0)" xlink:href="#ao"/><use transform="matrix(0.05,0,0,0.05,60.25,0)" xlink:href="#aO"/><use transform="matrix(0.05,0,0,0.05,70.25,0)" xlink:href="#ax"/><use transform="matrix(0.05,0,0,0.05,80.25,0)" xlink:href="#al"/><use transform="matrix(0.05,0,0,0.05,85.25,0)" xlink:href="#as"/></g><g id="w"><use transform="matrix(0.05,0,0,0.05,0,0)" xlink:href="#as"/><use transform="matrix(0.05,0,0,0.05,6.3500000000000005,0)" xlink:href="#aA"/><use transform="matrix(0.05,0,0,0.05,10.3,0)" xlink:href="#aB"/><use transform="matrix(0.05,0,0,0.05,20.3,0)" xlink:href="#au"/><use transform="matrix(0.05,0,0,0.05,29.3,0)" xlink:href="#ap"/><use transform="matrix(0.05,0,0,0.05,39.3,0)" xlink:href="#aA"/><use transform="matrix(0.05,0,0,0.05,43.25,0)" xlink:href="#as"/></g><g id="x"><use transform="matrix(0.05,0,0,0.05,0,0)" xlink:href="#as"/><use transform="matrix(0.05,0,0,0.05,6.3500000000000005,0)" xlink:href="#au"/><use transform="matrix(0.05,0,0,0.05,15.350000000000001,0)" xlink:href="#aA"/><use transform="matrix(0.05,0,0,0.05,19.3,0)" xlink:href="#aB"/><use transform="matrix(0.05,0,0,0.05,29.3,0)" xlink:href="#ak"/><use transform="matrix(0.05,0,0,0.05,39.3,0)" xlink:href="#aM"/><use transform="matrix(0.05,0,0,0.05,49.3,0)" xlink:href="#as"/></g><path d="M135-143c-3-34-86-38-87 0 15 53 115 12 119 90S17 21 10-45l28-5c4 36 97 45 98 0-10-56-113-15-118-90-4-57 82-63 122-42 12 7 21 19 24 35" id="aP"/><path d="M63-220v92h138v28H63V0H30v-248h175v28H63" id="aQ"/><g id="y"><use transform="matrix(0.05,0,0,0.05,0,0)" xlink:href="#as"/><use transform="matrix(0.05,0,0,0.05,6.3500000000000005,0)" xlink:href="#ao"/><use transform="matrix(0.05,0,0,0.05,12.3,0)" xlink:href="#ax"/><use transform="matrix(0.05,0,0,0.05,22.3,0)" xlink:href="#aP"/><use transform="matrix(0.05,0,0,0.05,31.3,0)" xlink:href="#ak"/><use transform="matrix(0.05,0,0,0.05,41.3,0)" xlink:href="#aA"/><use transform="matrix(0.05,0,0,0.05,45.25,0)" xlink:href="#al"/><use transform="matrix(0.05,0,0,0.05,50.25,0)" xlink:href="#aQ"/><use transform="matrix(0.05,0,0,0.05,61.2,0)" xlink:href="#aB"/><use transform="matrix(0.05,0,0,0.05,71.2,0)" xlink:href="#ao"/><use transform="matrix(0.05,0,0,0.05,77.15,0)" xlink:href="#aE"/><use transform="matrix(0.05,0,0,0.05,92.10000000000001,0)" xlink:href="#ap"/><use transform="matrix(0.05,0,0,0.05,102.10000000000001,0)" xlink:href="#al"/><use transform="matrix(0.05,0,0,0.05,107.10000000000001,0)" xlink:href="#as"/></g><path d="M30 0v-248h33v221h125V0H30" id="aR"/><path d="M24-231v-30h32v30H24zM24 0v-190h32V0H24" id="aS"/><g id="z"><use transform="matrix(0.05,0,0,0.05,0,0)" xlink:href="#as"/><use transform="matrix(0.05,0,0,0.05,6.3500000000000005,0)" xlink:href="#ao"/><use transform="matrix(0.05,0,0,0.05,12.3,0)" xlink:href="#ax"/><use transform="matrix(0.05,0,0,0.05,22.3,0)" xlink:href="#au"/><use transform="matrix(0.05,0,0,0.05,31.3,0)" xlink:href="#aB"/><use transform="matrix(0.05,0,0,0.05,41.3,0)" xlink:href="#ao"/><use transform="matrix(0.05,0,0,0.05,47.25,0)" xlink:href="#aM"/><use transform="matrix(0.05,0,0,0.05,57.25,0)" xlink:href="#aR"/><use transform="matrix(0.05,0,0,0.05,67.25,0)" xlink:href="#aS"/><use transform="matrix(0.05,0,0,0.05,71.2,0)" xlink:href="#aP"/><use transform="matrix(0.05,0,0,0.05,80.2,0)" xlink:href="#al"/><use transform="matrix(0.05,0,0,0.05,85.2,0)" xlink:href="#as"/></g><path d="M101-234c-31-9-42 10-38 44h38v23H63V0H32v-167H5v-23h27c-7-52 17-82 69-68v24" id="aT"/><g id="A"><use transform="matrix(0.05,0,0,0.05,0,0)" xlink:href="#an"/><use transform="matrix(0.05,0,0,0.05,5.95,0)" xlink:href="#aM"/><use transform="matrix(0.05,0,0,0.05,15.949999999999998,0)" xlink:href="#ax"/><use transform="matrix(0.05,0,0,0.05,25.950000000000003,0)" xlink:href="#aT"/><use transform="matrix(0.05,0,0,0.05,30.950000000000003,0)" xlink:href="#ap"/><use transform="matrix(0.05,0,0,0.05,40.95,0)" xlink:href="#ak"/><use transform="matrix(0.05,0,0,0.05,50.95,0)" xlink:href="#aA"/><use transform="matrix(0.05,0,0,0.05,54.900000000000006,0)" xlink:href="#al"/><use transform="matrix(0.05,0,0,0.05,59.900000000000006,0)" xlink:href="#ar"/></g><path d="M30-248c118-7 216 8 213 122C240-48 200 0 122 0H30v-248zM63-27c89 8 146-16 146-99s-60-101-146-95v194" id="aU"/><g id="B"><use transform="matrix(0.05,0,0,0.05,0,0)" xlink:href="#as"/><use transform="matrix(0.05,0,0,0.05,6.3500000000000005,0)" xlink:href="#ao"/><use transform="matrix(0.05,0,0,0.05,12.3,0)" xlink:href="#ax"/><use transform="matrix(0.05,0,0,0.05,22.3,0)" xlink:href="#au"/><use transform="matrix(0.05,0,0,0.05,31.3,0)" xlink:href="#aB"/><use transform="matrix(0.05,0,0,0.05,41.3,0)" xlink:href="#ao"/><use transform="matrix(0.05,0,0,0.05,47.25,0)" xlink:href="#aM"/><use transform="matrix(0.05,0,0,0.05,57.25,0)" xlink:href="#aU"/><use transform="matrix(0.05,0,0,0.05,70.2,0)" xlink:href="#ap"/><use transform="matrix(0.05,0,0,0.05,80.2,0)" xlink:href="#al"/><use transform="matrix(0.05,0,0,0.05,85.2,0)" xlink:href="#ap"/><use transform="matrix(0.05,0,0,0.05,95.2,0)" xlink:href="#as"/></g><g id="C"><use transform="matrix(0.05,0,0,0.05,0,0)" xlink:href="#al"/><use transform="matrix(0.05,0,0,0.05,5,0)" xlink:href="#ap"/><use transform="matrix(0.05,0,0,0.05,15,0)" xlink:href="#at"/><use transform="matrix(0.05,0,0,0.05,25,0)" xlink:href="#aA"/><use transform="matrix(0.05,0,0,0.05,28.950000000000003,0)" xlink:href="#ax"/><use transform="matrix(0.05,0,0,0.05,38.95,0)" xlink:href="#ai"/><use transform="matrix(0.05,0,0,0.05,43.95,0)" xlink:href="#aU"/></g><path d="M27 0v-27h64v-190l-56 39v-29l58-41h29v221h61V0H27" id="aV"/><use transform="matrix(0.05,0,0,0.05,0,0)" xlink:href="#aV" id="D"/><use transform="matrix(0.05,0,0,0.05,0,0)" xlink:href="#aC" id="E"/><g id="F"><use transform="matrix(0.05,0,0,0.05,0,0)" xlink:href="#aw"/><use transform="matrix(0.05,0,0,0.05,14,0)" xlink:href="#ak"/><use transform="matrix(0.05,0,0,0.05,24,0)" xlink:href="#ax"/><use transform="matrix(0.05,0,0,0.05,34,0)" xlink:href="#ao"/><use transform="matrix(0.05,0,0,0.05,39.95,0)" xlink:href="#aq"/></g><g id="G"><use transform="matrix(0.05,0,0,0.05,0,0)" xlink:href="#ai"/><use transform="matrix(0.05,0,0,0.05,5,0)" xlink:href="#aU"/></g><use transform="matrix(0.05,0,0,0.05,0,0)" xlink:href="#aV" id="H"/><g id="I"><use transform="matrix(0.05,0,0,0.05,0,0)" xlink:href="#an"/><use transform="matrix(0.05,0,0,0.05,5.95,0)" xlink:href="#ak"/><use transform="matrix(0.05,0,0,0.05,15.949999999999998,0)" xlink:href="#aP"/><use transform="matrix(0.05,0,0,0.05,24.95,0)" xlink:href="#ax"/><use transform="matrix(0.05,0,0,0.05,34.95,0)" xlink:href="#ao"/></g><g id="J"><use transform="matrix(0.05,0,0,0.05,0,0)" xlink:href="#aM"/><use transform="matrix(0.05,0,0,0.05,10,0)" xlink:href="#ax"/><use transform="matrix(0.05,0,0,0.05,20,0)" xlink:href="#aT"/><use transform="matrix(0.05,0,0,0.05,25,0)" xlink:href="#aS"/><use transform="matrix(0.05,0,0,0.05,28.950000000000003,0)" xlink:href="#aj"/><use transform="matrix(0.05,0,0,0.05,38.95,0)" xlink:href="#ax"/><use transform="matrix(0.05,0,0,0.05,48.95,0)" xlink:href="#aM"/><use transform="matrix(0.05,0,0,0.05,58.95,0)" xlink:href="#ar"/></g><use transform="matrix(0.05,0,0,0.05,0,0)" xlink:href="#aD" id="K"/><g id="L"><use transform="matrix(0.05,0,0,0.05,0,0)" xlink:href="#as"/><use transform="matrix(0.05,0,0,0.05,6.3500000000000005,0)" xlink:href="#aP"/><use transform="matrix(0.05,0,0,0.05,15.350000000000001,0)" xlink:href="#ax"/><use transform="matrix(0.05,0,0,0.05,25.35,0)" xlink:href="#al"/><use transform="matrix(0.05,0,0,0.05,30.35,0)" xlink:href="#al"/><use transform="matrix(0.05,0,0,0.05,35.35,0)" xlink:href="#aS"/><use transform="matrix(0.05,0,0,0.05,39.300000000000004,0)" xlink:href="#aj"/><use transform="matrix(0.05,0,0,0.05,49.300000000000004,0)" xlink:href="#aO"/><use transform="matrix(0.05,0,0,0.05,59.300000000000004,0)" xlink:href="#aP"/><use transform="matrix(0.05,0,0,0.05,68.30000000000001,0)" xlink:href="#as"/></g><g id="M"><use transform="matrix(0.05,0,0,0.05,0,0)" xlink:href="#as"/><use transform="matrix(0.05,0,0,0.05,6.3500000000000005,0)" xlink:href="#aE"/><use transform="matrix(0.05,0,0,0.05,21.3,0)" xlink:href="#aB"/><use transform="matrix(0.05,0,0,0.05,31.3,0)" xlink:href="#aM"/><use transform="matrix(0.05,0,0,0.05,41.3,0)" xlink:href="#ax"/><use transform="matrix(0.05,0,0,0.05,51.29999999999999,0)" xlink:href="#as"/></g><g id="N"><use transform="matrix(0.05,0,0,0.05,0,0)" xlink:href="#as"/><use transform="matrix(0.05,0,0,0.05,6.3500000000000005,0)" xlink:href="#at"/><use transform="matrix(0.05,0,0,0.05,16.35,0)" xlink:href="#ap"/><use transform="matrix(0.05,0,0,0.05,26.35,0)" xlink:href="#al"/><use transform="matrix(0.05,0,0,0.05,31.35,0)" xlink:href="#au"/><use transform="matrix(0.05,0,0,0.05,40.35,0)" xlink:href="#av"/><use transform="matrix(0.05,0,0,0.05,50.35,0)" xlink:href="#as"/><use transform="matrix(0.05,0,0,0.05,56.7,0)" xlink:href="#aI"/></g><g id="O"><use transform="matrix(0.05,0,0,0.05,0,0)" xlink:href="#as"/><use transform="matrix(0.05,0,0,0.05,6.3500000000000005,0)" xlink:href="#aA"/><use transform="matrix(0.05,0,0,0.05,10.3,0)" xlink:href="#aB"/><use transform="matrix(0.05,0,0,0.05,20.3,0)" xlink:href="#aO"/><use transform="matrix(0.05,0,0,0.05,30.3,0)" xlink:href="#aS"/><use transform="matrix(0.05,0,0,0.05,34.25,0)" xlink:href="#au"/><use transform="matrix(0.05,0,0,0.05,43.25,0)" xlink:href="#ap"/><use transform="matrix(0.05,0,0,0.05,53.25,0)" xlink:href="#aA"/><use transform="matrix(0.05,0,0,0.05,57.2,0)" xlink:href="#am"/><use transform="matrix(0.05,0,0,0.05,69.2,0)" xlink:href="#aD"/><use transform="matrix(0.05,0,0,0.05,82.15,0)" xlink:href="#aU"/><use transform="matrix(0.05,0,0,0.05,95.10000000000001,0)" xlink:href="#as"/><use transform="matrix(0.05,0,0,0.05,101.45,0)" xlink:href="#aI"/></g><path d="M140-251c81 0 123 46 123 126C263-46 219 4 140 4 59 4 17-45 17-125s42-126 123-126zm0 227c63 0 89-41 89-101s-29-99-89-99c-61 0-89 39-89 99S79-25 140-24" id="aW"/><path d="M233-177c-1 41-23 64-60 70L243 0h-38l-65-103H63V0H30v-248c88 3 205-21 203 71zM63-129c60-2 137 13 137-47 0-61-80-42-137-45v92" id="aX"/><g id="P"><use transform="matrix(0.05,0,0,0.05,0,0)" xlink:href="#as"/><use transform="matrix(0.05,0,0,0.05,6.3500000000000005,0)" xlink:href="#aA"/><use transform="matrix(0.05,0,0,0.05,10.3,0)" xlink:href="#aB"/><use transform="matrix(0.05,0,0,0.05,20.3,0)" xlink:href="#aO"/><use transform="matrix(0.05,0,0,0.05,30.3,0)" xlink:href="#aS"/><use transform="matrix(0.05,0,0,0.05,34.25,0)" xlink:href="#au"/><use transform="matrix(0.05,0,0,0.05,43.25,0)" xlink:href="#ap"/><use transform="matrix(0.05,0,0,0.05,53.25,0)" xlink:href="#aA"/><use transform="matrix(0.05,0,0,0.05,57.2,0)" xlink:href="#aW"/><use transform="matrix(0.05,0,0,0.05,71.2,0)" xlink:href="#aX"/><use transform="matrix(0.05,0,0,0.05,84.15,0)" xlink:href="#as"/><use transform="matrix(0.05,0,0,0.05,90.5,0)" xlink:href="#aI"/></g><g id="Q"><use transform="matrix(0.05,0,0,0.05,0,0)" xlink:href="#aB"/><use transform="matrix(0.05,0,0,0.05,10,0)" xlink:href="#ao"/></g><g id="R"><use transform="matrix(0.05,0,0,0.05,0,0)" xlink:href="#as"/><use transform="matrix(0.05,0,0,0.05,6.3500000000000005,0)" xlink:href="#ap"/><use transform="matrix(0.05,0,0,0.05,16.35,0)" xlink:href="#aM"/><use transform="matrix(0.05,0,0,0.05,26.35,0)" xlink:href="#az"/><use transform="matrix(0.05,0,0,0.05,35.35,0)" xlink:href="#ap"/><use transform="matrix(0.05,0,0,0.05,45.35,0)" xlink:href="#aj"/><use transform="matrix(0.05,0,0,0.05,55.35,0)" xlink:href="#au"/><use transform="matrix(0.05,0,0,0.05,64.35,0)" xlink:href="#ax"/><use transform="matrix(0.05,0,0,0.05,74.35,0)" xlink:href="#aM"/><use transform="matrix(0.05,0,0,0.05,84.35,0)" xlink:href="#as"/></g><g id="S"><use transform="matrix(0.05,0,0,0.05,0,0)" xlink:href="#as"/><use transform="matrix(0.05,0,0,0.05,6.3500000000000005,0)" xlink:href="#au"/><use transform="matrix(0.05,0,0,0.05,15.350000000000001,0)" xlink:href="#aB"/><use transform="matrix(0.05,0,0,0.05,25.35,0)" xlink:href="#aA"/><use transform="matrix(0.05,0,0,0.05,29.3,0)" xlink:href="#aA"/><use transform="matrix(0.05,0,0,0.05,33.25,0)" xlink:href="#ap"/><use transform="matrix(0.05,0,0,0.05,43.25,0)" xlink:href="#ah"/><use transform="matrix(0.05,0,0,0.05,53.25,0)" xlink:href="#aP"/><use transform="matrix(0.05,0,0,0.05,62.25,0)" xlink:href="#ax"/><use transform="matrix(0.05,0,0,0.05,72.25,0)" xlink:href="#am"/><use transform="matrix(0.05,0,0,0.05,84.25,0)" xlink:href="#ao"/><use transform="matrix(0.05,0,0,0.05,90.2,0)" xlink:href="#ao"/><use transform="matrix(0.05,0,0,0.05,96.15,0)" xlink:href="#ap"/><use transform="matrix(0.05,0,0,0.05,106.15,0)" xlink:href="#aq"/><use transform="matrix(0.05,0,0,0.05,115.15,0)" xlink:href="#as"/></g><path d="M0 4l72-265h28L28 4H0" id="aY"/><g id="T"><use transform="matrix(0.05,0,0,0.05,0,0)" xlink:href="#al"/><use transform="matrix(0.05,0,0,0.05,5,0)" xlink:href="#ao"/><use transform="matrix(0.05,0,0,0.05,10.95,0)" xlink:href="#ak"/><use transform="matrix(0.05,0,0,0.05,20.95,0)" xlink:href="#ax"/><use transform="matrix(0.05,0,0,0.05,30.950000000000003,0)" xlink:href="#aY"/><use transform="matrix(0.05,0,0,0.05,35.95,0)" xlink:href="#aT"/><use transform="matrix(0.05,0,0,0.05,40.95,0)" xlink:href="#ap"/><use transform="matrix(0.05,0,0,0.05,50.95,0)" xlink:href="#aA"/><use transform="matrix(0.05,0,0,0.05,54.900000000000006,0)" xlink:href="#aP"/><use transform="matrix(0.05,0,0,0.05,63.900000000000006,0)" xlink:href="#ax"/></g><path d="M240 0l2-218c-23 76-54 145-80 218h-23L58-218 59 0H30v-248h44l77 211c21-75 51-140 76-211h43V0h-30" id="aZ"/><g id="U"><use transform="matrix(0.05,0,0,0.05,0,0)" xlink:href="#as"/><use transform="matrix(0.05,0,0,0.05,6.3500000000000005,0)" xlink:href="#aA"/><use transform="matrix(0.05,0,0,0.05,10.3,0)" xlink:href="#aB"/><use transform="matrix(0.05,0,0,0.05,20.3,0)" xlink:href="#aO"/><use transform="matrix(0.05,0,0,0.05,30.3,0)" xlink:href="#aS"/><use transform="matrix(0.05,0,0,0.05,34.25,0)" xlink:href="#au"/><use transform="matrix(0.05,0,0,0.05,43.25,0)" xlink:href="#aZ"/><use transform="matrix(0.05,0,0,0.05,58.2,0)" xlink:href="#ap"/><use transform="matrix(0.05,0,0,0.05,68.2,0)" xlink:href="#ah"/><use transform="matrix(0.05,0,0,0.05,78.2,0)" xlink:href="#as"/></g><g id="V"><use transform="matrix(0.05,0,0,0.05,0,0)" xlink:href="#an"/><use transform="matrix(0.05,0,0,0.05,5.95,0)" xlink:href="#aB"/><use transform="matrix(0.05,0,0,0.05,15.949999999999998,0)" xlink:href="#aj"/><use transform="matrix(0.05,0,0,0.05,25.950000000000003,0)" xlink:href="#aA"/><use transform="matrix(0.05,0,0,0.05,29.899999999999995,0)" xlink:href="#aq"/></g><g id="W"><use transform="matrix(0.05,0,0,0.05,0,0)" xlink:href="#ak"/><use transform="matrix(0.05,0,0,0.05,10,0)" xlink:href="#aP"/><use transform="matrix(0.05,0,0,0.05,19,0)" xlink:href="#ax"/><use transform="matrix(0.05,0,0,0.05,29,0)" xlink:href="#aM"/></g><g id="X"><use transform="matrix(0.05,0,0,0.05,0,0)" xlink:href="#aT"/><use transform="matrix(0.05,0,0,0.05,5,0)" xlink:href="#aB"/><use transform="matrix(0.05,0,0,0.05,15,0)" xlink:href="#ao"/></g><g id="Y"><use transform="matrix(0.05,0,0,0.05,0,0)" xlink:href="#ap"/><use transform="matrix(0.05,0,0,0.05,10,0)" xlink:href="#aM"/><use transform="matrix(0.05,0,0,0.05,20,0)" xlink:href="#az"/><use transform="matrix(0.05,0,0,0.05,29,0)" xlink:href="#ap"/><use transform="matrix(0.05,0,0,0.05,39,0)" xlink:href="#aj"/><use transform="matrix(0.05,0,0,0.05,49,0)" xlink:href="#au"/><use transform="matrix(0.05,0,0,0.05,58,0)" xlink:href="#ax"/><use transform="matrix(0.05,0,0,0.05,68,0)" xlink:href="#aM"/></g><path d="M145-31C134-9 116 4 85 4 32 4 16-35 15-94c0-59 17-99 70-100 32-1 48 14 60 33 0-11-1-24 2-32h30l-1 268h-32zM93-21c41 0 51-33 51-76s-8-73-50-73c-40 0-46 35-46 75s5 74 45 74" id="ba"/><g id="Z"><use transform="matrix(0.05,0,0,0.05,0,0)" xlink:href="#ba"/><use transform="matrix(0.05,0,0,0.05,10,0)" xlink:href="#ak"/><use transform="matrix(0.05,0,0,0.05,20,0)" xlink:href="#ax"/><use transform="matrix(0.05,0,0,0.05,30,0)" xlink:href="#ao"/><use transform="matrix(0.05,0,0,0.05,35.95,0)" xlink:href="#aq"/><use transform="matrix(0.05,0,0,0.05,44.95,0)" xlink:href="#ar"/></g><g id="aa"><use transform="matrix(0.05,0,0,0.05,0,0)" xlink:href="#aR"/><use transform="matrix(0.05,0,0,0.05,10,0)" xlink:href="#aS"/><use transform="matrix(0.05,0,0,0.05,13.949999999999998,0)" xlink:href="#aP"/><use transform="matrix(0.05,0,0,0.05,22.95,0)" xlink:href="#al"/></g><g id="ab"><use transform="matrix(0.05,0,0,0.05,0,0)" xlink:href="#aB"/><use transform="matrix(0.05,0,0,0.05,10,0)" xlink:href="#aT"/></g><g id="ac"><use transform="matrix(0.05,0,0,0.05,0,0)" xlink:href="#aw"/><use transform="matrix(0.05,0,0,0.05,14,0)" xlink:href="#ak"/><use transform="matrix(0.05,0,0,0.05,24,0)" xlink:href="#ax"/><use transform="matrix(0.05,0,0,0.05,34,0)" xlink:href="#ao"/><use transform="matrix(0.05,0,0,0.05,39.95,0)" xlink:href="#aS"/><use transform="matrix(0.05,0,0,0.05,43.900000000000006,0)" xlink:href="#ax"/><use transform="matrix(0.05,0,0,0.05,53.900000000000006,0)" xlink:href="#aP"/></g><g id="ad"><use transform="matrix(0.05,0,0,0.05,0,0)" xlink:href="#aT"/><use transform="matrix(0.05,0,0,0.05,5,0)" xlink:href="#aB"/><use transform="matrix(0.05,0,0,0.05,15,0)" xlink:href="#ao"/><use transform="matrix(0.05,0,0,0.05,20.95,0)" xlink:href="#aE"/><use transform="matrix(0.05,0,0,0.05,35.9,0)" xlink:href="#ap"/><use transform="matrix(0.05,0,0,0.05,45.9,0)" xlink:href="#al"/><use transform="matrix(0.05,0,0,0.05,50.9,0)" xlink:href="#al"/><use transform="matrix(0.05,0,0,0.05,55.900000000000006,0)" xlink:href="#ax"/><use transform="matrix(0.05,0,0,0.05,65.9,0)" xlink:href="#aM"/></g><g id="ae"><use transform="matrix(0.05,0,0,0.05,0,0)" xlink:href="#ap"/><use transform="matrix(0.05,0,0,0.05,10,0)" xlink:href="#aP"/></g><g id="af"><use transform="matrix(0.05,0,0,0.05,0,0)" xlink:href="#aQ"/><use transform="matrix(0.05,0,0,0.05,10.950000000000001,0)" xlink:href="#aB"/><use transform="matrix(0.05,0,0,0.05,20.950000000000003,0)" xlink:href="#ao"/><use transform="matrix(0.05,0,0,0.05,26.900000000000002,0)" xlink:href="#aE"/><use transform="matrix(0.05,0,0,0.05,41.85,0)" xlink:href="#ap"/><use transform="matrix(0.05,0,0,0.05,51.85,0)" xlink:href="#aA"/></g><g id="ag"><use transform="matrix(0.05,0,0,0.05,0,0)" xlink:href="#aR"/><use transform="matrix(0.05,0,0,0.05,10,0)" xlink:href="#aB"/><use transform="matrix(0.05,0,0,0.05,20,0)" xlink:href="#aO"/><use transform="matrix(0.05,0,0,0.05,30,0)" xlink:href="#aS"/><use transform="matrix(0.05,0,0,0.05,33.95,0)" xlink:href="#au"/></g></defs></g></svg>