<svg xmlns="http://www.w3.org/2000/svg" xmlns:xlink="http://www.w3.org/1999/xlink" xmlns:lucid="lucid" width="960" height="560"><g transform="translate(0 0)" lucid:page-tab-id="0_0"><path d="M0 0h960v560H0z" fill="#fff"/><path d="M20 240h122.64v60H20z" fill="none"/><use xlink:href="#a" transform="matrix(1,0,0,1,25,245) translate(25.5 17.799999999999997)"/><use xlink:href="#b" transform="matrix(1,0,0,1,25,245) translate(6.599999999999994 39.4)"/><use xlink:href="#c" transform="matrix(1,0,0,1,25,245) translate(57.55 39.4)"/><path d="M220 100h100v60H220z" fill="none"/><use xlink:href="#d" transform="matrix(1,0,0,1,225,105) translate(16.174999999999997 28.6)"/><path d="M142.64 270L220 130" stroke="#000" stroke-width="2" fill="none"/><path d="M143.52 270.48l-.88 1.6V270zM217.16 144.73l-8.12-4.5L220 130z"/><path d="M220 135.28l-2.12 11-10.52-5.83L220 128.63zm-9.27 4.76l5.7 3.15 2-10.37z"/><path d="M320 130l80-60" stroke="#000" stroke-width="2" fill="none"/><path d="M320.6 130.8l-.6.45V130zM391.37 82.27l-5.56-7.42L400 70z"/><path d="M400 71.74l-8.6 12.23-7.22-9.62 15.82-5.4zm-12.57 3.6l3.9 5.23 6.08-8.63z"/><path d="M320 130l80 60" stroke="#000" stroke-width="2" fill="none"/><path d="M320.6 129.2l-.6.8v-1.25zM400 190l-14.2-4.85 5.57-7.42z"/><path d="M400 188.26v2.8l-15.82-5.4 7.2-9.63zm-12.57-3.6l9.98 3.4-6.06-8.63z"/><path d="M220.36 250H380v60H220.36z" fill="none"/><use xlink:href="#e" transform="matrix(1,0,0,1,225.35849056603774,255) translate(8.749999999999986 28.6)"/><path d="M142.64 270l77.72 10" stroke="#000" stroke-width="2" fill="none"/><path d="M142.77 269l-.13 1v-1zM220.36 280l-14.74 2.78 1.18-9.2z"/><path d="M220.36 278.9V281l-15.9 3 1.52-11.93zm-13.57 2.64l10.35-1.95-9.53-4.53z"/><path d="M400 40h80v60h-80z" fill="none"/><use xlink:href="#f" transform="matrix(1,0,0,1,405,45) translate(14.649999999999999 28.6)"/><path d="M400 100h80v60h-80z" fill="none"/><use xlink:href="#g" transform="matrix(1,0,0,1,405,105) translate(7.175000000000001 28.6)"/><path d="M320 130h80" stroke="#000" stroke-width="2" fill="none"/><path/><path d="M400 130l-14.27 4.64v-9.28z"/><path d="M400 128.95v2.1L384.73 136v-12zm-13.27 4.3l10.03-3.25-10.03-3.26z"/><path d="M400 160h100v60H400z" fill="none"/><use xlink:href="#h" transform="matrix(1,0,0,1,405,165) translate(5.199999999999996 28.6)"/><path d="M480 70h80" stroke="#000" stroke-width="2" fill="none"/><path/><path d="M560 70l-14.27 4.64v-9.28z" fill="#fff"/><path d="M560 68.95v2.1L544.73 76V64zm-13.27 4.3L556.76 70l-10.03-3.26z"/><path d="M560 40h240v60H560z" fill="none"/><use xlink:href="#i" transform="matrix(1,0,0,1,565,45) translate(4.9750000000000085 28.6)"/><use xlink:href="#j" transform="matrix(1,0,0,1,565,45) translate(123.82500000000002 28.6)"/><use xlink:href="#k" transform="matrix(1,0,0,1,565,45) translate(150.72500000000002 28.6)"/><use xlink:href="#l" transform="matrix(1,0,0,1,565,45) translate(178.425 28.6)"/><use xlink:href="#m" transform="matrix(1,0,0,1,565,45) translate(199.375 28.6)"/><path d="M480 130h80" stroke="#000" stroke-width="2" fill="none"/><path/><path d="M560 130l-14.27 4.64v-9.28z" fill="#fff"/><path d="M560 128.95v2.1L544.73 136v-12zm-13.27 4.3l10.03-3.25-10.03-3.26z"/><path d="M560 100h180v60H560z" fill="none"/><use xlink:href="#n" transform="matrix(1,0,0,1,565,105) translate(16.07499999999999 28.6)"/><use xlink:href="#o" transform="matrix(1,0,0,1,565,105) translate(64.02499999999999 28.6)"/><use xlink:href="#p" transform="matrix(1,0,0,1,565,105) translate(84.02499999999999 28.6)"/><path d="M500 190h60" stroke="#000" stroke-width="2" fill="none"/><path/><path d="M560 190l-14.27 4.64v-9.28z" fill="#fff"/><path d="M560 188.95v2.1L544.73 196v-12zm-13.27 4.3l10.03-3.25-10.03-3.26z"/><path d="M560 160h180v60H560z" fill="none"/><use xlink:href="#q" transform="matrix(1,0,0,1,565,165) translate(4.099999999999994 17.799999999999997)"/><use xlink:href="#o" transform="matrix(1,0,0,1,565,165) translate(76 17.799999999999997)"/><use xlink:href="#r" transform="matrix(1,0,0,1,565,165) translate(96 17.799999999999997)"/><use xlink:href="#s" transform="matrix(1,0,0,1,565,165) translate(33.8 39.4)"/><use xlink:href="#t" transform="matrix(1,0,0,1,565,165) translate(60.25 39.4)"/><use xlink:href="#u" transform="matrix(1,0,0,1,565,165) translate(80.75 39.4)"/><use xlink:href="#v" transform="matrix(1,0,0,1,565,165) translate(101.25 39.4)"/><path d="M380 280h40" stroke="#000" stroke-width="2" fill="none"/><path/><path d="M420 280l-14.27 4.64v-9.28z" fill="#fff"/><path d="M420 278.95v2.1L404.73 286v-12zm-13.27 4.3l10.03-3.25-10.03-3.26z"/><path d="M420 250h140v60H420z" fill="none"/><use xlink:href="#w" transform="matrix(1,0,0,1,425,255) translate(9.074999999999996 17.799999999999997)"/><use xlink:href="#x" transform="matrix(1,0,0,1,425,255) translate(61.975 17.799999999999997)"/><use xlink:href="#y" transform="matrix(1,0,0,1,425,255) translate(81.975 17.799999999999997)"/><use xlink:href="#o" transform="matrix(1,0,0,1,425,255) translate(28.025 39.4)"/><use xlink:href="#z" transform="matrix(1,0,0,1,425,255) translate(48.025 39.4)"/><path d="M229.04 320h122.64v60H229.04z" fill="none"/><use xlink:href="#A" transform="matrix(1,0,0,1,234.03773584905662,325) translate(10.700000000000003 28.6)"/><path d="M142.64 270l86.4 80" stroke="#000" stroke-width="2" fill="none"/><path d="M143.32 269.27l-.68.73v-1.36zM229.04 350l-13.62-6.3 6.3-6.8z"/><path d="M229.04 347.95v3.15l-15.3-7.06 8.18-8.82zm-11.95-4.57l9.56 4.42-5.14-9.2z"/><path d="M351.68 350h57" stroke="#000" stroke-width="2" fill="none"/><path/><path d="M408.68 350l-14.27 4.64v-9.28z" fill="#fff"/><path d="M408.68 348.95v2.1L393.4 356v-12zm-13.27 4.3l10.04-3.25-10.03-3.26z"/><path d="M408.68 320h162.64v60H408.68z" fill="none"/><g><use xlink:href="#B" transform="matrix(1,0,0,1,413.6792452830189,325) translate(10.900000000000006 28.6)"/><use xlink:href="#l" transform="matrix(1,0,0,1,413.6792452830189,325) translate(65.5 28.6)"/><use xlink:href="#C" transform="matrix(1,0,0,1,413.6792452830189,325) translate(86.45 28.6)"/></g><path d="M220.36 390h140v60h-140z" fill="none"/><g><use xlink:href="#D" transform="matrix(1,0,0,1,225.35849056603774,395) translate(8.274999999999999 28.6)"/></g><path d="M142.64 270l77.72 150" stroke="#000" stroke-width="2" fill="none"/><path d="M143.53 269.54l-.9.46v-2.17zM220.36 420l-10.68-10.53 8.23-4.27z"/><path d="M220.36 413.87v7.53L208 409.2l10.67-5.52zm-9-4.15l7.5 7.4-1.7-10.4z"/><path d="M360.36 420h40" stroke="#000" stroke-width="2" fill="none"/><path/><path d="M400.36 420l-14.27 4.64v-9.28z" fill="#fff"/><path d="M400.36 418.95v2.1L385.1 426v-12zm-13.27 4.3L397.1 420l-10.03-3.26z"/><path d="M400.36 390H580v60H400.36z" fill="none"/><g><use xlink:href="#E" transform="matrix(1,0,0,1,405.35849056603774,395) translate(3.799999999999997 17.799999999999997)"/><use xlink:href="#F" transform="matrix(1,0,0,1,405.35849056603774,395) translate(100.35 17.799999999999997)"/><use xlink:href="#l" transform="matrix(1,0,0,1,405.35849056603774,395) translate(23.75 39.4)"/><use xlink:href="#G" transform="matrix(1,0,0,1,405.35849056603774,395) translate(44.7 39.4)"/></g><defs><path d="M115-194c55 1 70 41 70 98S169 2 115 4C84 4 66-9 55-30l1 105H24l-1-265h31l2 30c10-21 28-34 59-34zm-8 174c40 0 45-34 45-75s-6-73-45-74c-42 0-51 32-51 76 0 43 10 73 51 73" id="H"/><path d="M33 0v-248h34V0H33" id="I"/><path d="M117-194c89-4 53 116 60 194h-32v-121c0-31-8-49-39-48C34-167 62-67 57 0H25l-1-190h30c1 10-1 24 2 32 11-22 29-35 61-36" id="J"/><path d="M84 4C-5 8 30-112 23-190h32v120c0 31 7 50 39 49 72-2 45-101 50-169h31l1 190h-30c-1-10 1-25-2-33-11 22-28 36-60 37" id="K"/><path d="M59-47c-2 24 18 29 38 22v24C64 9 27 4 27-40v-127H5v-23h24l9-43h21v43h35v23H59v120" id="L"/><path d="M205 0l-28-72H64L36 0H1l101-248h38L239 0h-34zm-38-99l-47-123c-12 45-31 82-46 123h93" id="M"/><g id="a"><use transform="matrix(0.05,0,0,0.05,0,0)" xlink:href="#H"/><use transform="matrix(0.05,0,0,0.05,10,0)" xlink:href="#I"/><use transform="matrix(0.05,0,0,0.05,15,0)" xlink:href="#J"/><use transform="matrix(0.05,0,0,0.05,25,0)" xlink:href="#H"/><use transform="matrix(0.05,0,0,0.05,35,0)" xlink:href="#K"/><use transform="matrix(0.05,0,0,0.05,45,0)" xlink:href="#L"/><use transform="matrix(0.05,0,0,0.05,50,0)" xlink:href="#M"/></g><path d="M87 75C49 33 22-17 22-94c0-76 28-126 65-167h31c-38 41-64 92-64 168S80 34 118 75H87" id="N"/><g id="b"><use transform="matrix(0.05,0,0,0.05,0,0)" xlink:href="#N"/><use transform="matrix(0.05,0,0,0.05,5.95,0)" xlink:href="#I"/><use transform="matrix(0.05,0,0,0.05,10.95,0)" xlink:href="#J"/><use transform="matrix(0.05,0,0,0.05,20.95,0)" xlink:href="#H"/><use transform="matrix(0.05,0,0,0.05,30.950000000000003,0)" xlink:href="#K"/><use transform="matrix(0.05,0,0,0.05,40.95,0)" xlink:href="#L"/></g><path d="M114-163C36-179 61-72 57 0H25l-1-190h30c1 12-1 29 2 39 6-27 23-49 58-41v29" id="O"/><path d="M141-36C126-15 110 5 73 4 37 3 15-17 15-53c-1-64 63-63 125-63 3-35-9-54-41-54-24 1-41 7-42 31l-33-3c5-37 33-52 76-52 45 0 72 20 72 64v82c-1 20 7 32 28 27v20c-31 9-61-2-59-35zM48-53c0 20 12 33 32 33 41-3 63-29 60-74-43 2-92-5-92 41" id="P"/><path d="M179-190L93 31C79 59 56 82 12 73V49c39 6 53-20 64-50L1-190h34L92-34l54-156h33" id="Q"/><path d="M33-261c38 41 65 92 65 168S71 34 33 75H2C39 34 66-17 66-93S39-220 2-261h31" id="R"/><g id="c"><use transform="matrix(0.05,0,0,0.05,0,0)" xlink:href="#M"/><use transform="matrix(0.05,0,0,0.05,12,0)" xlink:href="#O"/><use transform="matrix(0.05,0,0,0.05,17.95,0)" xlink:href="#O"/><use transform="matrix(0.05,0,0,0.05,23.9,0)" xlink:href="#P"/><use transform="matrix(0.05,0,0,0.05,33.9,0)" xlink:href="#Q"/><use transform="matrix(0.05,0,0,0.05,42.9,0)" xlink:href="#R"/></g><path d="M109-170H84l-4-78h32zm-65 0H19l-4-78h33" id="S"/><path d="M145-31C134-9 116 4 85 4 32 4 16-35 15-94c0-59 17-99 70-100 32-1 48 14 60 33 0-11-1-24 2-32h30l-1 268h-32zM93-21c41 0 51-33 51-76s-8-73-50-73c-40 0-46 35-46 75s5 74 45 74" id="T"/><path d="M100-194c63 0 86 42 84 106H49c0 40 14 67 53 68 26 1 43-12 49-29l28 8c-11 28-37 45-77 45C44 4 14-33 15-96c1-61 26-98 85-98zm52 81c6-60-76-77-97-28-3 7-6 17-6 28h103" id="U"/><g id="d"><use transform="matrix(0.05,0,0,0.05,0,0)" xlink:href="#S"/><use transform="matrix(0.05,0,0,0.05,6.3500000000000005,0)" xlink:href="#T"/><use transform="matrix(0.05,0,0,0.05,16.35,0)" xlink:href="#K"/><use transform="matrix(0.05,0,0,0.05,26.35,0)" xlink:href="#U"/><use transform="matrix(0.05,0,0,0.05,36.35,0)" xlink:href="#O"/><use transform="matrix(0.05,0,0,0.05,42.300000000000004,0)" xlink:href="#Q"/><use transform="matrix(0.05,0,0,0.05,51.300000000000004,0)" xlink:href="#S"/></g><path d="M96-169c-40 0-48 33-48 73s9 75 48 75c24 0 41-14 43-38l32 2c-6 37-31 61-74 61-59 0-76-41-82-99-10-93 101-131 147-64 4 7 5 14 7 22l-32 3c-4-21-16-35-41-35" id="V"/><path d="M85-194c31 0 48 13 60 33l-1-100h32l1 261h-30c-2-10 0-23-3-31C134-8 116 4 85 4 32 4 16-35 15-94c0-66 23-100 70-100zm9 24c-40 0-46 34-46 75 0 40 6 74 45 74 42 0 51-32 51-76 0-42-9-74-50-73" id="W"/><path d="M115-194c53 0 69 39 70 98 0 66-23 100-70 100C84 3 66-7 56-30L54 0H23l1-261h32v101c10-23 28-34 59-34zm-8 174c40 0 45-34 45-75 0-40-5-75-45-74-42 0-51 32-51 76 0 43 10 73 51 73" id="X"/><path d="M127-220V0H93v-220H8v-28h204v28h-85" id="Y"/><path d="M24 0v-261h32V0H24" id="Z"/><path d="M190 0L58-211 59 0H30v-248h39L202-35l-2-213h31V0h-41" id="aa"/><path d="M210-169c-67 3-38 105-44 169h-31v-121c0-29-5-50-35-48C34-165 62-65 56 0H25l-1-190h30c1 10-1 24 2 32 10-44 99-50 107 0 11-21 27-35 58-36 85-2 47 119 55 194h-31v-121c0-29-5-49-35-48" id="ab"/><g id="e"><use transform="matrix(0.05,0,0,0.05,0,0)" xlink:href="#S"/><use transform="matrix(0.05,0,0,0.05,6.3500000000000005,0)" xlink:href="#V"/><use transform="matrix(0.05,0,0,0.05,15.350000000000001,0)" xlink:href="#W"/><use transform="matrix(0.05,0,0,0.05,25.35,0)" xlink:href="#X"/><use transform="matrix(0.05,0,0,0.05,35.35,0)" xlink:href="#Y"/><use transform="matrix(0.05,0,0,0.05,44.300000000000004,0)" xlink:href="#P"/><use transform="matrix(0.05,0,0,0.05,54.300000000000004,0)" xlink:href="#X"/><use transform="matrix(0.05,0,0,0.05,64.30000000000001,0)" xlink:href="#Z"/><use transform="matrix(0.05,0,0,0.05,68.25000000000001,0)" xlink:href="#U"/><use transform="matrix(0.05,0,0,0.05,78.25000000000001,0)" xlink:href="#aa"/><use transform="matrix(0.05,0,0,0.05,91.20000000000002,0)" xlink:href="#P"/><use transform="matrix(0.05,0,0,0.05,101.20000000000002,0)" xlink:href="#ab"/><use transform="matrix(0.05,0,0,0.05,116.15000000000003,0)" xlink:href="#U"/><use transform="matrix(0.05,0,0,0.05,126.15000000000003,0)" xlink:href="#S"/></g><path d="M143 0L79-87 56-68V0H24v-261h32v163l83-92h37l-77 82L181 0h-38" id="ac"/><g id="f"><use transform="matrix(0.05,0,0,0.05,0,0)" xlink:href="#S"/><use transform="matrix(0.05,0,0,0.05,6.3500000000000005,0)" xlink:href="#ac"/><use transform="matrix(0.05,0,0,0.05,15.350000000000001,0)" xlink:href="#U"/><use transform="matrix(0.05,0,0,0.05,25.35,0)" xlink:href="#Q"/><use transform="matrix(0.05,0,0,0.05,34.35,0)" xlink:href="#S"/></g><path d="M108 0H70L1-190h34L89-25l56-165h34" id="ad"/><g id="g"><use transform="matrix(0.05,0,0,0.05,0,0)" xlink:href="#S"/><use transform="matrix(0.05,0,0,0.05,6.3500000000000005,0)" xlink:href="#ad"/><use transform="matrix(0.05,0,0,0.05,15.350000000000001,0)" xlink:href="#P"/><use transform="matrix(0.05,0,0,0.05,25.35,0)" xlink:href="#Z"/><use transform="matrix(0.05,0,0,0.05,29.3,0)" xlink:href="#K"/><use transform="matrix(0.05,0,0,0.05,39.3,0)" xlink:href="#U"/><use transform="matrix(0.05,0,0,0.05,49.3,0)" xlink:href="#S"/></g><path d="M100-194c62-1 85 37 85 99 1 63-27 99-86 99S16-35 15-95c0-66 28-99 85-99zM99-20c44 1 53-31 53-75 0-43-8-75-51-75s-53 32-53 75 10 74 51 75" id="ae"/><g id="h"><use transform="matrix(0.05,0,0,0.05,0,0)" xlink:href="#S"/><use transform="matrix(0.05,0,0,0.05,6.3500000000000005,0)" xlink:href="#ae"/><use transform="matrix(0.05,0,0,0.05,16.35,0)" xlink:href="#H"/><use transform="matrix(0.05,0,0,0.05,26.35,0)" xlink:href="#U"/><use transform="matrix(0.05,0,0,0.05,36.35,0)" xlink:href="#O"/><use transform="matrix(0.05,0,0,0.05,42.300000000000004,0)" xlink:href="#P"/><use transform="matrix(0.05,0,0,0.05,52.300000000000004,0)" xlink:href="#L"/><use transform="matrix(0.05,0,0,0.05,57.300000000000004,0)" xlink:href="#ae"/><use transform="matrix(0.05,0,0,0.05,67.30000000000001,0)" xlink:href="#O"/><use transform="matrix(0.05,0,0,0.05,73.25000000000001,0)" xlink:href="#S"/></g><path d="M194 0L95-120 63-95V0H30v-248h33v124l119-124h40L117-140 236 0h-42" id="af"/><g id="i"><use transform="matrix(0.05,0,0,0.05,0,0)" xlink:href="#Q"/><use transform="matrix(0.05,0,0,0.05,9,0)" xlink:href="#ae"/><use transform="matrix(0.05,0,0,0.05,19,0)" xlink:href="#K"/><use transform="matrix(0.05,0,0,0.05,29,0)" xlink:href="#O"/><use transform="matrix(0.05,0,0,0.05,34.95,0)" xlink:href="#af"/><use transform="matrix(0.05,0,0,0.05,46.95,0)" xlink:href="#U"/><use transform="matrix(0.05,0,0,0.05,56.95,0)" xlink:href="#Q"/><use transform="matrix(0.05,0,0,0.05,65.95,0)" xlink:href="#aa"/><use transform="matrix(0.05,0,0,0.05,78.9,0)" xlink:href="#P"/><use transform="matrix(0.05,0,0,0.05,88.9,0)" xlink:href="#ab"/><use transform="matrix(0.05,0,0,0.05,103.85000000000001,0)" xlink:href="#U"/></g><g id="j"><use transform="matrix(0.05,0,0,0.05,0,0)" xlink:href="#N"/><use transform="matrix(0.05,0,0,0.05,5.95,0)" xlink:href="#ae"/><use transform="matrix(0.05,0,0,0.05,15.949999999999998,0)" xlink:href="#O"/></g><path d="M194-70c0 46-34 64-81 66v29H91V-4C42-5 12-27 4-67l30-6c5 28 25 41 57 43v-87c-38-9-76-20-76-67 1-42 33-58 76-59v-23h22v23c45 0 67 20 76 56l-31 6c-5-23-18-35-45-37v78c41 10 81 20 81 70zm-81 41c51 7 71-66 19-77-6-2-12-4-19-6v83zM91-219c-47-6-63 57-18 69 6 2 12 3 18 5v-74" id="ag"/><g id="k"><use transform="matrix(0.05,0,0,0.05,0,0)" xlink:href="#S"/><use transform="matrix(0.05,0,0,0.05,6.3500000000000005,0)" xlink:href="#ag"/><use transform="matrix(0.05,0,0,0.05,16.35,0)" xlink:href="#S"/></g><g id="l"><use transform="matrix(0.05,0,0,0.05,0,0)" xlink:href="#ae"/><use transform="matrix(0.05,0,0,0.05,10,0)" xlink:href="#O"/></g><path d="M80-196l47-18 7 23-49 13 32 44-20 13-27-46-27 45-21-12 33-44-49-13 8-23 47 19-2-53h23" id="ah"/><g id="m"><use transform="matrix(0.05,0,0,0.05,0,0)" xlink:href="#S"/><use transform="matrix(0.05,0,0,0.05,6.3500000000000005,0)" xlink:href="#ah"/><use transform="matrix(0.05,0,0,0.05,13.350000000000001,0)" xlink:href="#S"/><use transform="matrix(0.05,0,0,0.05,19.700000000000003,0)" xlink:href="#R"/></g><g id="n"><use transform="matrix(0.05,0,0,0.05,0,0)" xlink:href="#ad"/><use transform="matrix(0.05,0,0,0.05,9,0)" xlink:href="#P"/><use transform="matrix(0.05,0,0,0.05,19,0)" xlink:href="#Z"/><use transform="matrix(0.05,0,0,0.05,22.95,0)" xlink:href="#K"/><use transform="matrix(0.05,0,0,0.05,32.95,0)" xlink:href="#U"/></g><g id="o"><use transform="matrix(0.05,0,0,0.05,0,0)" xlink:href="#L"/><use transform="matrix(0.05,0,0,0.05,5,0)" xlink:href="#ae"/></g><g id="p"><use transform="matrix(0.05,0,0,0.05,0,0)" xlink:href="#V"/><use transform="matrix(0.05,0,0,0.05,9,0)" xlink:href="#ae"/><use transform="matrix(0.05,0,0,0.05,19,0)" xlink:href="#ab"/><use transform="matrix(0.05,0,0,0.05,33.95,0)" xlink:href="#H"/><use transform="matrix(0.05,0,0,0.05,43.95,0)" xlink:href="#P"/><use transform="matrix(0.05,0,0,0.05,53.95,0)" xlink:href="#O"/><use transform="matrix(0.05,0,0,0.05,59.900000000000006,0)" xlink:href="#U"/></g><g id="q"><use transform="matrix(0.05,0,0,0.05,0,0)" xlink:href="#ae"/><use transform="matrix(0.05,0,0,0.05,10,0)" xlink:href="#H"/><use transform="matrix(0.05,0,0,0.05,20,0)" xlink:href="#U"/><use transform="matrix(0.05,0,0,0.05,30,0)" xlink:href="#O"/><use transform="matrix(0.05,0,0,0.05,35.95,0)" xlink:href="#P"/><use transform="matrix(0.05,0,0,0.05,45.95,0)" xlink:href="#L"/><use transform="matrix(0.05,0,0,0.05,50.95,0)" xlink:href="#ae"/><use transform="matrix(0.05,0,0,0.05,60.95,0)" xlink:href="#O"/></g><g id="r"><use transform="matrix(0.05,0,0,0.05,0,0)" xlink:href="#V"/><use transform="matrix(0.05,0,0,0.05,9,0)" xlink:href="#ae"/><use transform="matrix(0.05,0,0,0.05,19,0)" xlink:href="#ab"/><use transform="matrix(0.05,0,0,0.05,33.95,0)" xlink:href="#H"/><use transform="matrix(0.05,0,0,0.05,43.95,0)" xlink:href="#P"/><use transform="matrix(0.05,0,0,0.05,53.95,0)" xlink:href="#O"/><use transform="matrix(0.05,0,0,0.05,59.900000000000006,0)" xlink:href="#U"/></g><path d="M18-100v-36l175-74v27L42-118l151 64v27" id="ai"/><path d="M68-38c1 34 0 65-14 84H32c9-13 17-26 17-46H33v-38h35" id="aj"/><g id="s"><use transform="matrix(0.05,0,0,0.05,0,0)" xlink:href="#N"/><use transform="matrix(0.05,0,0,0.05,5.95,0)" xlink:href="#ai"/><use transform="matrix(0.05,0,0,0.05,16.45,0)" xlink:href="#aj"/></g><path d="M18-150v-26h174v26H18zm0 90v-26h174v26H18" id="ak"/><g id="t"><use transform="matrix(0.05,0,0,0.05,0,0)" xlink:href="#ak"/><use transform="matrix(0.05,0,0,0.05,10.5,0)" xlink:href="#aj"/></g><path d="M16-127c37-31 93-2 135 6 18-1 32-8 43-16v26c-50 42-130-35-178 9v-25" id="al"/><g id="u"><use transform="matrix(0.05,0,0,0.05,0,0)" xlink:href="#al"/><use transform="matrix(0.05,0,0,0.05,10.5,0)" xlink:href="#aj"/></g><path d="M33 0v-38h34V0H33" id="am"/><g id="v"><use transform="matrix(0.05,0,0,0.05,0,0)" xlink:href="#U"/><use transform="matrix(0.05,0,0,0.05,10,0)" xlink:href="#L"/><use transform="matrix(0.05,0,0,0.05,15,0)" xlink:href="#V"/><use transform="matrix(0.05,0,0,0.05,24,0)" xlink:href="#am"/><use transform="matrix(0.05,0,0,0.05,29,0)" xlink:href="#R"/></g><g id="w"><use transform="matrix(0.05,0,0,0.05,0,0)" xlink:href="#aa"/><use transform="matrix(0.05,0,0,0.05,12.950000000000001,0)" xlink:href="#P"/><use transform="matrix(0.05,0,0,0.05,22.950000000000003,0)" xlink:href="#ab"/><use transform="matrix(0.05,0,0,0.05,37.900000000000006,0)" xlink:href="#U"/></g><path d="M101-234c-31-9-42 10-38 44h38v23H63V0H32v-167H5v-23h27c-7-52 17-82 69-68v24" id="an"/><g id="x"><use transform="matrix(0.05,0,0,0.05,0,0)" xlink:href="#ae"/><use transform="matrix(0.05,0,0,0.05,10,0)" xlink:href="#an"/></g><g id="y"><use transform="matrix(0.05,0,0,0.05,0,0)" xlink:href="#L"/><use transform="matrix(0.05,0,0,0.05,5,0)" xlink:href="#P"/><use transform="matrix(0.05,0,0,0.05,15,0)" xlink:href="#X"/><use transform="matrix(0.05,0,0,0.05,25,0)" xlink:href="#Z"/><use transform="matrix(0.05,0,0,0.05,28.950000000000003,0)" xlink:href="#U"/></g><path d="M135-143c-3-34-86-38-87 0 15 53 115 12 119 90S17 21 10-45l28-5c4 36 97 45 98 0-10-56-113-15-118-90-4-57 82-63 122-42 12 7 21 19 24 35" id="ao"/><path d="M106-169C34-169 62-67 57 0H25v-261h32l-1 103c12-21 28-36 61-36 89 0 53 116 60 194h-32v-121c2-32-8-49-39-48" id="ap"/><g id="z"><use transform="matrix(0.05,0,0,0.05,0,0)" xlink:href="#ao"/><use transform="matrix(0.05,0,0,0.05,9,0)" xlink:href="#U"/><use transform="matrix(0.05,0,0,0.05,19,0)" xlink:href="#P"/><use transform="matrix(0.05,0,0,0.05,29,0)" xlink:href="#O"/><use transform="matrix(0.05,0,0,0.05,34.95,0)" xlink:href="#V"/><use transform="matrix(0.05,0,0,0.05,43.95,0)" xlink:href="#ap"/></g><path d="M177-190C167-65 218 103 67 71c-23-6-38-20-44-43l32-5c15 47 100 32 89-28v-30C133-14 115 1 83 1 29 1 15-40 15-95c0-56 16-97 71-98 29-1 48 16 59 35 1-10 0-23 2-32h30zM94-22c36 0 50-32 50-73 0-42-14-75-50-75-39 0-46 34-46 75s6 73 46 73" id="aq"/><g id="A"><use transform="matrix(0.05,0,0,0.05,0,0)" xlink:href="#S"/><use transform="matrix(0.05,0,0,0.05,6.3500000000000005,0)" xlink:href="#V"/><use transform="matrix(0.05,0,0,0.05,15.350000000000001,0)" xlink:href="#W"/><use transform="matrix(0.05,0,0,0.05,25.35,0)" xlink:href="#X"/><use transform="matrix(0.05,0,0,0.05,35.35,0)" xlink:href="#Y"/><use transform="matrix(0.05,0,0,0.05,44.300000000000004,0)" xlink:href="#P"/><use transform="matrix(0.05,0,0,0.05,54.300000000000004,0)" xlink:href="#O"/><use transform="matrix(0.05,0,0,0.05,60.25,0)" xlink:href="#aq"/><use transform="matrix(0.05,0,0,0.05,70.25,0)" xlink:href="#U"/><use transform="matrix(0.05,0,0,0.05,80.25,0)" xlink:href="#L"/><use transform="matrix(0.05,0,0,0.05,85.25,0)" xlink:href="#S"/></g><g id="B"><use transform="matrix(0.05,0,0,0.05,0,0)" xlink:href="#S"/><use transform="matrix(0.05,0,0,0.05,6.3500000000000005,0)" xlink:href="#Z"/><use transform="matrix(0.05,0,0,0.05,10.3,0)" xlink:href="#ae"/><use transform="matrix(0.05,0,0,0.05,20.3,0)" xlink:href="#V"/><use transform="matrix(0.05,0,0,0.05,29.3,0)" xlink:href="#P"/><use transform="matrix(0.05,0,0,0.05,39.3,0)" xlink:href="#Z"/><use transform="matrix(0.05,0,0,0.05,43.25,0)" xlink:href="#S"/></g><g id="C"><use transform="matrix(0.05,0,0,0.05,0,0)" xlink:href="#S"/><use transform="matrix(0.05,0,0,0.05,6.3500000000000005,0)" xlink:href="#V"/><use transform="matrix(0.05,0,0,0.05,15.350000000000001,0)" xlink:href="#Z"/><use transform="matrix(0.05,0,0,0.05,19.3,0)" xlink:href="#ae"/><use transform="matrix(0.05,0,0,0.05,29.3,0)" xlink:href="#K"/><use transform="matrix(0.05,0,0,0.05,39.3,0)" xlink:href="#W"/><use transform="matrix(0.05,0,0,0.05,49.3,0)" xlink:href="#S"/></g><path d="M63-220v92h138v28H63V0H30v-248h175v28H63" id="ar"/><g id="D"><use transform="matrix(0.05,0,0,0.05,0,0)" xlink:href="#S"/><use transform="matrix(0.05,0,0,0.05,6.3500000000000005,0)" xlink:href="#O"/><use transform="matrix(0.05,0,0,0.05,12.3,0)" xlink:href="#U"/><use transform="matrix(0.05,0,0,0.05,22.3,0)" xlink:href="#ao"/><use transform="matrix(0.05,0,0,0.05,31.3,0)" xlink:href="#K"/><use transform="matrix(0.05,0,0,0.05,41.3,0)" xlink:href="#Z"/><use transform="matrix(0.05,0,0,0.05,45.25,0)" xlink:href="#L"/><use transform="matrix(0.05,0,0,0.05,50.25,0)" xlink:href="#ar"/><use transform="matrix(0.05,0,0,0.05,61.2,0)" xlink:href="#ae"/><use transform="matrix(0.05,0,0,0.05,71.2,0)" xlink:href="#O"/><use transform="matrix(0.05,0,0,0.05,77.15,0)" xlink:href="#ab"/><use transform="matrix(0.05,0,0,0.05,92.10000000000001,0)" xlink:href="#P"/><use transform="matrix(0.05,0,0,0.05,102.10000000000001,0)" xlink:href="#L"/><use transform="matrix(0.05,0,0,0.05,107.10000000000001,0)" xlink:href="#S"/></g><path d="M30 0v-248h33v221h125V0H30" id="as"/><path d="M24-231v-30h32v30H24zM24 0v-190h32V0H24" id="at"/><g id="E"><use transform="matrix(0.05,0,0,0.05,0,0)" xlink:href="#S"/><use transform="matrix(0.05,0,0,0.05,6.3500000000000005,0)" xlink:href="#O"/><use transform="matrix(0.05,0,0,0.05,12.3,0)" xlink:href="#U"/><use transform="matrix(0.05,0,0,0.05,22.3,0)" xlink:href="#V"/><use transform="matrix(0.05,0,0,0.05,31.3,0)" xlink:href="#ae"/><use transform="matrix(0.05,0,0,0.05,41.3,0)" xlink:href="#O"/><use transform="matrix(0.05,0,0,0.05,47.25,0)" xlink:href="#W"/><use transform="matrix(0.05,0,0,0.05,57.25,0)" xlink:href="#as"/><use transform="matrix(0.05,0,0,0.05,67.25,0)" xlink:href="#at"/><use transform="matrix(0.05,0,0,0.05,71.2,0)" xlink:href="#ao"/><use transform="matrix(0.05,0,0,0.05,80.2,0)" xlink:href="#L"/><use transform="matrix(0.05,0,0,0.05,85.2,0)" xlink:href="#S"/></g><g id="F"><use transform="matrix(0.05,0,0,0.05,0,0)" xlink:href="#N"/><use transform="matrix(0.05,0,0,0.05,5.95,0)" xlink:href="#W"/><use transform="matrix(0.05,0,0,0.05,15.949999999999998,0)" xlink:href="#U"/><use transform="matrix(0.05,0,0,0.05,25.950000000000003,0)" xlink:href="#an"/><use transform="matrix(0.05,0,0,0.05,30.950000000000003,0)" xlink:href="#P"/><use transform="matrix(0.05,0,0,0.05,40.95,0)" xlink:href="#K"/><use transform="matrix(0.05,0,0,0.05,50.95,0)" xlink:href="#Z"/><use transform="matrix(0.05,0,0,0.05,54.900000000000006,0)" xlink:href="#L"/><use transform="matrix(0.05,0,0,0.05,59.900000000000006,0)" xlink:href="#R"/></g><path d="M30-248c118-7 216 8 213 122C240-48 200 0 122 0H30v-248zM63-27c89 8 146-16 146-99s-60-101-146-95v194" id="au"/><g id="G"><use transform="matrix(0.05,0,0,0.05,0,0)" xlink:href="#S"/><use transform="matrix(0.05,0,0,0.05,6.3500000000000005,0)" xlink:href="#O"/><use transform="matrix(0.05,0,0,0.05,12.3,0)" xlink:href="#U"/><use transform="matrix(0.05,0,0,0.05,22.3,0)" xlink:href="#V"/><use transform="matrix(0.05,0,0,0.05,31.3,0)" xlink:href="#ae"/><use transform="matrix(0.05,0,0,0.05,41.3,0)" xlink:href="#O"/><use transform="matrix(0.05,0,0,0.05,47.25,0)" xlink:href="#W"/><use transform="matrix(0.05,0,0,0.05,57.25,0)" xlink:href="#au"/><use transform="matrix(0.05,0,0,0.05,70.2,0)" xlink:href="#P"/><use transform="matrix(0.05,0,0,0.05,80.2,0)" xlink:href="#L"/><use transform="matrix(0.05,0,0,0.05,85.2,0)" xlink:href="#P"/><use transform="matrix(0.05,0,0,0.05,95.2,0)" xlink:href="#S"/></g></defs></g></svg>