<svg xmlns="http://www.w3.org/2000/svg" xmlns:xlink="http://www.w3.org/1999/xlink" xmlns:lucid="lucid" width="799" height="560"><g transform="translate(0 0)" lucid:page-tab-id="0_0"><path d="M20 240h122.64v60H20z" stroke="#000" stroke-opacity="0" stroke-width="2" fill="#fff" fill-opacity="0"/><use xlink:href="#a" transform="matrix(1,0,0,1,25,245) translate(21.025 28.6)"/><path d="M142.64 270l83.63-69.6" stroke="#000" stroke-width="2" fill="none"/><path d="M143.28 270.77l-.64.53V270zM229.8 203.5l-5.94-7.12 13.94-5.56z"/><path d="M229.9 205.2l-7.68-9.24 18.06-7.2zm-4.4-8.4l4.18 5 5.63-8.9z"/><path d="M341 188.75l63.8 32.9" stroke="#000" stroke-width="2" fill="none"/><path d="M341.46 187.86l-.46.9v-1.14zM418.12 228.52l-14.8-2.42 4.25-8.24z"/><path d="M421 230l-19.2-3.14 5.5-10.68zm-16.16-4.67l10.4 1.7-7.4-7.5z"/><path d="M421 87.35h80v60h-80z" stroke="#000" stroke-opacity="0" stroke-width="2" fill="#fff" fill-opacity="0"/><use xlink:href="#b" transform="matrix(1,0,0,1,426,92.35) translate(7.175000000000001 28.6)"/><path d="M341 188.75l66.4-59.26" stroke="#000" stroke-width="2" fill="none"/><path d="M341.67 189.5l-.67.6v-1.35zM411.03 132.46l-6.17-6.9 13.73-6.06z"/><path d="M411.2 134.15l-8-8.97 17.8-7.83zm-4.68-8.24l4.34 4.87 5.3-9.1z"/><path d="M421 200h100v60H421z" stroke="#000" stroke-opacity="0" stroke-width="2" fill="#fff" fill-opacity="0"/><use xlink:href="#c" transform="matrix(1,0,0,1,426,205) translate(5.199999999999996 28.6)"/><path d="M501 117.35h61.76" stroke="#000" stroke-width="2" fill="none"/><path/><path d="M577.76 117.35L563.5 122v-9.3z" fill="#fff"/><path d="M581 117.35l-18.5 6v-12zm-16.5 3.26l10.03-3.25-10.03-3.26z"/><path d="M581 87.35h180v60H581z" stroke="#000" stroke-opacity="0" stroke-width="2" fill="#fff" fill-opacity="0"/><use xlink:href="#d" transform="matrix(1,0,0,1,586,92.35) translate(16.07499999999999 28.6)"/><use xlink:href="#e" transform="matrix(1,0,0,1,586,92.35) translate(64.02499999999999 28.6)"/><use xlink:href="#f" transform="matrix(1,0,0,1,586,92.35) translate(84.02499999999999 28.6)"/><path d="M521 230h41.76" stroke="#000" stroke-width="2" fill="none"/><path/><path d="M577.76 230l-14.26 4.64v-9.28z" fill="#fff"/><path d="M581 230l-18.5 6v-12zm-16.5 3.26l10.03-3.26-10.03-3.26z"/><path d="M581 192.6h198v74.8H581z" stroke="#000" stroke-opacity="0" stroke-width="2" fill="#fff" fill-opacity="0"/><use xlink:href="#g" transform="matrix(1,0,0,1,586,197.6) translate(3.750000000000014 36.1)"/><path d="M20 420h122.64v60H20z" stroke="#000" stroke-opacity="0" stroke-width="2" fill="#fff" fill-opacity="0"/><use xlink:href="#h" transform="matrix(1,0,0,1,25,425) translate(26.549999999999997 28.6)"/><path d="M142.64 450h35.8" stroke="#000" stroke-width="2" fill="none"/><path/><path d="M193.44 450l-14.26 4.64v-9.28z" fill="#fff"/><path d="M196.68 450l-18.5 6v-12zm-16.5 3.26L190.2 450l-10.02-3.26z"/><path d="M196.68 420h162.64v60H196.68z" stroke="#000" stroke-opacity="0" stroke-width="2" fill="#fff" fill-opacity="0"/><use xlink:href="#i" transform="matrix(1,0,0,1,201.67924528301887,425) translate(10.900000000000006 28.6)"/><use xlink:href="#j" transform="matrix(1,0,0,1,201.67924528301887,425) translate(65.5 28.6)"/><use xlink:href="#k" transform="matrix(1,0,0,1,201.67924528301887,425) translate(86.45 28.6)"/><path d="M240.28 167.4H341v42.7H240.28z" stroke="#000" stroke-opacity="0" stroke-width="2" fill="#fff" fill-opacity="0"/><use xlink:href="#l" transform="matrix(1,0,0,1,245.2830188679245,172.4) translate(15.524999999999999 20.1)"/><use xlink:href="#m" transform="matrix(1,0,0,1,245.2830188679245,172.4) translate(65.475 20.1)"/><path d="M240 278.55h100.72v42.7H240z" stroke="#000" stroke-opacity="0" stroke-width="2" fill="#fff" fill-opacity="0"/><use xlink:href="#l" transform="matrix(1,0,0,1,245,283.55) translate(14.049999999999997 20.1)"/><use xlink:href="#n" transform="matrix(1,0,0,1,245,283.55) translate(64 20.1)"/><path d="M291 278.55v-34.22h-.36V210.1" fill="none"/><path d="M292 278.55c0 .55-.46 1-1 1-.56 0-1-.45-1-1s.44-1 1-1c.54 0 1 .45 1 1zm0-4.05c0 .56-.46 1-1 1-.56 0-1-.44-1-1 0-.55.44-1 1-1 .54 0 1 .45 1 1zm0-4.04c0 .55-.46 1-1 1-.56 0-1-.45-1-1 0-.56.44-1 1-1 .54 0 1 .44 1 1zm0-4.05c0 .56-.46 1-1 1-.56 0-1-.44-1-1 0-.54.44-1 1-1 .54 0 1 .46 1 1zm0-4.04c0 .55-.46 1-1 1-.56 0-1-.45-1-1s.44-1 1-1c.54 0 1 .45 1 1zm0-4.05c0 .57-.46 1-1 1-.56 0-1-.43-1-1 0-.54.44-1 1-1 .54 0 1 .46 1 1zm0-4.03c0 .55-.46 1-1 1-.56 0-1-.45-1-1s.44-1 1-1c.54 0 1 .45 1 1zm0-4.05c0 .55-.46 1-1 1-.56 0-1-.45-1-1s.44-1 1-1c.54 0 1 .45 1 1zm0-4.05c0 .56-.46 1-1 1-.56 0-1-.44-1-1 0-.55.44-1 1-1 .54 0 1 .45 1 1zm-.36-3.7c0 .56-.45 1-1 1s-1-.44-1-1c0-.55.45-1 1-1s1 .45 1 1zm0-4.04c0 .55-.45 1-1 1s-1-.45-1-1 .45-1 1-1 1 .45 1 1zm0-4.05c0 .55-.45 1-1 1s-1-.45-1-1 .45-1 1-1 1 .45 1 1zm0-4.04c0 .55-.45 1-1 1s-1-.45-1-1c0-.56.45-1 1-1s1 .44 1 1zm0-4.05c0 .54-.45 1-1 1s-1-.46-1-1c0-.56.45-1 1-1s1 .44 1 1zm0-4.06c0 .55-.45 1-1 1s-1-.45-1-1 .45-1 1-1 1 .45 1 1zm0-4.05c0 .55-.45 1-1 1s-1-.45-1-1c0-.56.45-1 1-1s1 .44 1 1zm0-4.05c0 .55-.45 1-1 1s-1-.45-1-1c0-.56.45-1 1-1s1 .44 1 1z"/><path/><path/><path d="M142.64 270l79.93 24.55" stroke="#000" stroke-width="2" fill="none"/><path d="M142.94 269.04l-.3.96v-1.05zM236.9 298.95l-15 .24 2.73-8.87z"/><path d="M240 299.9l-19.45.3 3.53-11.48zm-16.73-1.73l10.54-.17-8.62-6.06z"/><path d="M421 147.35h80v60h-80z" stroke="#000" stroke-opacity="0" stroke-width="2" fill="#fff" fill-opacity="0"/><use xlink:href="#o" transform="matrix(1,0,0,1,426,152.35) translate(14.649999999999999 28.6)"/><path d="M501 177.35h61.76" stroke="#000" stroke-width="2" fill="none"/><path/><path d="M577.76 177.35L563.5 182v-9.3z" fill="#fff"/><path d="M581 177.35l-18.5 6v-12zm-16.5 3.26l10.03-3.25-10.03-3.26z"/><path d="M581 147.35h180v60H581z" stroke="#000" stroke-opacity="0" stroke-width="2" fill="#fff" fill-opacity="0"/><use xlink:href="#p" transform="matrix(1,0,0,1,586,152.35) translate(13.549999999999997 28.6)"/><use xlink:href="#e" transform="matrix(1,0,0,1,586,152.35) translate(46.55 28.6)"/><use xlink:href="#q" transform="matrix(1,0,0,1,586,152.35) translate(66.55 28.6)"/><use xlink:href="#r" transform="matrix(1,0,0,1,586,152.35) translate(141.45 28.6)"/><path d="M341 188.75l61.95-8.83" stroke="#000" stroke-width="2" fill="none"/><path d="M341.14 189.74l-.14.02v-1zM417.8 177.8l-13.47 6.6-1.3-9.17z"/><path d="M421 177.35l-17.47 8.56-1.7-11.9zm-15.88 5.55l9.47-4.64-10.4-1.8z"/><path d="M340.72 299.9l64.5-37.42" stroke="#000" stroke-width="2" fill="none"/><path d="M341.22 300.77l-.5.3v-1.17zM408.2 266.12l-4.67-8 14.67-3.16z"/><path d="M408 267.82l-6.02-10.4 19.02-4.1zm-2.9-9.03l3.26 5.63 7.04-7.85z"/><path d="M340.72 299.9l61.6 15.62" stroke="#000" stroke-width="2" fill="none"/><path d="M340.96 298.93l-.24.97v-1.03z"/><path d="M416.86 319.2l-14.96 1 2.27-9z" stroke="#000" stroke-width="2"/><path d="M20 20h122.64v60H20z" stroke="#000" stroke-opacity="0" stroke-width="2" fill="#fff" fill-opacity="0"/><use xlink:href="#s" transform="matrix(1,0,0,1,25,25) translate(30.049999999999997 28.6)"/><path d="M142.64 50h35.8" stroke="#000" stroke-width="2" fill="none"/><path/><path d="M193.44 50l-14.26 4.64v-9.28z" fill="#fff"/><path d="M196.68 50l-18.5 6V44zm-16.5 3.26L190.2 50l-10.02-3.26z"/><path d="M196.68 20H409v60H196.68z" stroke="#000" stroke-opacity="0" stroke-width="2" fill="#fff" fill-opacity="0"/><use xlink:href="#t" transform="matrix(1,0,0,1,201.67924528301887,25) translate(21.64999999999999 28.6)"/><use xlink:href="#u" transform="matrix(1,0,0,1,201.67924528301887,25) translate(74.55 28.6)"/><use xlink:href="#v" transform="matrix(1,0,0,1,201.67924528301887,25) translate(95.5 28.6)"/><use xlink:href="#w" transform="matrix(1,0,0,1,201.67924528301887,25) translate(118.45 28.6)"/><use xlink:href="#x" transform="matrix(1,0,0,1,201.67924528301887,25) translate(138.45 28.6)"/><path d="M20 360h122.64v60H20z" stroke="#000" stroke-opacity="0" stroke-width="2" fill="#fff" fill-opacity="0"/><use xlink:href="#y" transform="matrix(1,0,0,1,25,365) translate(12.549999999999997 28.6)"/><path d="M196.68 360H779v60H196.68z" stroke="#000" stroke-opacity="0" stroke-width="2" fill="#fff" fill-opacity="0"/><use xlink:href="#z" transform="matrix(1,0,0,1,201.67924528301887,365) translate(9.050000000000011 28.6)"/><use xlink:href="#A" transform="matrix(1,0,0,1,201.67924528301887,365) translate(50.95000000000001 28.6)"/><use xlink:href="#B" transform="matrix(1,0,0,1,201.67924528301887,365) translate(139.9 28.6)"/><use xlink:href="#C" transform="matrix(1,0,0,1,201.67924528301887,365) translate(174.9 28.6)"/><use xlink:href="#D" transform="matrix(1,0,0,1,201.67924528301887,365) translate(247.15 28.6)"/><use xlink:href="#E" transform="matrix(1,0,0,1,201.67924528301887,365) translate(290.05 28.6)"/><use xlink:href="#F" transform="matrix(1,0,0,1,201.67924528301887,365) translate(355.95 28.6)"/><use xlink:href="#G" transform="matrix(1,0,0,1,201.67924528301887,365) translate(387.9 28.6)"/><use xlink:href="#D" transform="matrix(1,0,0,1,201.67924528301887,365) translate(453.8 28.6)"/><use xlink:href="#H" transform="matrix(1,0,0,1,201.67924528301887,365) translate(496.7 28.6)"/><path d="M142.64 390h35.8" stroke="#000" stroke-width="2" fill="none"/><path/><path d="M193.44 390l-14.26 4.64v-9.28z" fill="#fff"/><path d="M196.68 390l-18.5 6v-12zm-16.5 3.26L190.2 390l-10.02-3.26z"/><path d="M20 480h140v60H20z" stroke="#000" stroke-opacity="0" stroke-width="2" fill="#fff" fill-opacity="0"/><g><use xlink:href="#I" transform="matrix(1,0,0,1,25,485) translate(6.124999999999993 28.6)"/></g><path d="M160 510h41.76" stroke="#000" stroke-width="2" fill="none"/><path/><path d="M216.76 510l-14.26 4.64v-9.28z" fill="#fff"/><path d="M220 510l-18.5 6v-12zm-16.5 3.26l10.03-3.26-10.03-3.26z"/><path d="M220 480h240v60H220z" stroke="#000" stroke-opacity="0" stroke-width="2" fill="#fff" fill-opacity="0"/><g><use xlink:href="#J" transform="matrix(1,0,0,1,225,485) translate(5.474999999999994 28.6)"/><use xlink:href="#u" transform="matrix(1,0,0,1,225,485) translate(102.02499999999999 28.6)"/><use xlink:href="#K" transform="matrix(1,0,0,1,225,485) translate(122.975 28.6)"/></g><defs><path d="M115-194c55 1 70 41 70 98S169 2 115 4C84 4 66-9 55-30l1 105H24l-1-265h31l2 30c10-21 28-34 59-34zm-8 174c40 0 45-34 45-75s-6-73-45-74c-42 0-51 32-51 76 0 43 10 73 51 73" id="L"/><path d="M140-251c81 0 123 46 123 126C263-53 228-8 163 1c7 30 30 48 69 40v23c-55 16-95-15-103-61C56-3 17-48 17-125c0-80 42-126 123-126zm0 227c63 0 89-41 89-101s-29-99-89-99c-61 0-89 39-89 99S79-25 140-24" id="M"/><path d="M84 4C-5 8 30-112 23-190h32v120c0 31 7 50 39 49 72-2 45-101 50-169h31l1 190h-30c-1-10 1-25-2-33-11 22-28 36-60 37" id="N"/><path d="M100-194c63 0 86 42 84 106H49c0 40 14 67 53 68 26 1 43-12 49-29l28 8c-11 28-37 45-77 45C44 4 14-33 15-96c1-61 26-98 85-98zm52 81c6-60-76-77-97-28-3 7-6 17-6 28h103" id="O"/><path d="M114-163C36-179 61-72 57 0H25l-1-190h30c1 12-1 29 2 39 6-27 23-49 58-41v29" id="P"/><path d="M179-190L93 31C79 59 56 82 12 73V49c39 6 53-20 64-50L1-190h34L92-34l54-156h33" id="Q"/><path d="M205 0l-28-72H64L36 0H1l101-248h38L239 0h-34zm-38-99l-47-123c-12 45-31 82-46 123h93" id="R"/><g id="a"><use transform="matrix(0.05,0,0,0.05,0,0)" xlink:href="#L"/><use transform="matrix(0.05,0,0,0.05,10,0)" xlink:href="#M"/><use transform="matrix(0.05,0,0,0.05,24,0)" xlink:href="#N"/><use transform="matrix(0.05,0,0,0.05,34,0)" xlink:href="#O"/><use transform="matrix(0.05,0,0,0.05,44,0)" xlink:href="#P"/><use transform="matrix(0.05,0,0,0.05,49.95,0)" xlink:href="#Q"/><use transform="matrix(0.05,0,0,0.05,58.95,0)" xlink:href="#R"/></g><path d="M109-170H84l-4-78h32zm-65 0H19l-4-78h33" id="S"/><path d="M108 0H70L1-190h34L89-25l56-165h34" id="T"/><path d="M141-36C126-15 110 5 73 4 37 3 15-17 15-53c-1-64 63-63 125-63 3-35-9-54-41-54-24 1-41 7-42 31l-33-3c5-37 33-52 76-52 45 0 72 20 72 64v82c-1 20 7 32 28 27v20c-31 9-61-2-59-35zM48-53c0 20 12 33 32 33 41-3 63-29 60-74-43 2-92-5-92 41" id="U"/><path d="M24 0v-261h32V0H24" id="V"/><g id="b"><use transform="matrix(0.05,0,0,0.05,0,0)" xlink:href="#S"/><use transform="matrix(0.05,0,0,0.05,6.3500000000000005,0)" xlink:href="#T"/><use transform="matrix(0.05,0,0,0.05,15.350000000000001,0)" xlink:href="#U"/><use transform="matrix(0.05,0,0,0.05,25.35,0)" xlink:href="#V"/><use transform="matrix(0.05,0,0,0.05,29.3,0)" xlink:href="#N"/><use transform="matrix(0.05,0,0,0.05,39.3,0)" xlink:href="#O"/><use transform="matrix(0.05,0,0,0.05,49.3,0)" xlink:href="#S"/></g><path d="M100-194c62-1 85 37 85 99 1 63-27 99-86 99S16-35 15-95c0-66 28-99 85-99zM99-20c44 1 53-31 53-75 0-43-8-75-51-75s-53 32-53 75 10 74 51 75" id="W"/><path d="M59-47c-2 24 18 29 38 22v24C64 9 27 4 27-40v-127H5v-23h24l9-43h21v43h35v23H59v120" id="X"/><g id="c"><use transform="matrix(0.05,0,0,0.05,0,0)" xlink:href="#S"/><use transform="matrix(0.05,0,0,0.05,6.3500000000000005,0)" xlink:href="#W"/><use transform="matrix(0.05,0,0,0.05,16.35,0)" xlink:href="#L"/><use transform="matrix(0.05,0,0,0.05,26.35,0)" xlink:href="#O"/><use transform="matrix(0.05,0,0,0.05,36.35,0)" xlink:href="#P"/><use transform="matrix(0.05,0,0,0.05,42.300000000000004,0)" xlink:href="#U"/><use transform="matrix(0.05,0,0,0.05,52.300000000000004,0)" xlink:href="#X"/><use transform="matrix(0.05,0,0,0.05,57.300000000000004,0)" xlink:href="#W"/><use transform="matrix(0.05,0,0,0.05,67.30000000000001,0)" xlink:href="#P"/><use transform="matrix(0.05,0,0,0.05,73.25000000000001,0)" xlink:href="#S"/></g><g id="d"><use transform="matrix(0.05,0,0,0.05,0,0)" xlink:href="#T"/><use transform="matrix(0.05,0,0,0.05,9,0)" xlink:href="#U"/><use transform="matrix(0.05,0,0,0.05,19,0)" xlink:href="#V"/><use transform="matrix(0.05,0,0,0.05,22.95,0)" xlink:href="#N"/><use transform="matrix(0.05,0,0,0.05,32.95,0)" xlink:href="#O"/></g><g id="e"><use transform="matrix(0.05,0,0,0.05,0,0)" xlink:href="#X"/><use transform="matrix(0.05,0,0,0.05,5,0)" xlink:href="#W"/></g><path d="M96-169c-40 0-48 33-48 73s9 75 48 75c24 0 41-14 43-38l32 2c-6 37-31 61-74 61-59 0-76-41-82-99-10-93 101-131 147-64 4 7 5 14 7 22l-32 3c-4-21-16-35-41-35" id="Y"/><path d="M210-169c-67 3-38 105-44 169h-31v-121c0-29-5-50-35-48C34-165 62-65 56 0H25l-1-190h30c1 10-1 24 2 32 10-44 99-50 107 0 11-21 27-35 58-36 85-2 47 119 55 194h-31v-121c0-29-5-49-35-48" id="Z"/><g id="f"><use transform="matrix(0.05,0,0,0.05,0,0)" xlink:href="#Y"/><use transform="matrix(0.05,0,0,0.05,9,0)" xlink:href="#W"/><use transform="matrix(0.05,0,0,0.05,19,0)" xlink:href="#Z"/><use transform="matrix(0.05,0,0,0.05,33.95,0)" xlink:href="#L"/><use transform="matrix(0.05,0,0,0.05,43.95,0)" xlink:href="#U"/><use transform="matrix(0.05,0,0,0.05,53.95,0)" xlink:href="#P"/><use transform="matrix(0.05,0,0,0.05,59.900000000000006,0)" xlink:href="#O"/></g><path d="M18-150v-26h174v26H18zm0 90v-26h174v26H18" id="aa"/><path d="M68-38c1 34 0 65-14 84H32c9-13 17-26 17-46H33v-38h35" id="ab"/><path d="M18-100v-36l175-74v27L42-118l151 64v27" id="ac"/><path d="M18-27v-27l151-64-151-65v-27l175 74v36" id="ad"/><path d="M16-127c37-31 93-2 135 6 18-1 32-8 43-16v26c-50 42-130-35-178 9v-25" id="ae"/><path d="M33 0v-38h34V0H33" id="af"/><g id="g"><use transform="matrix(0.05,0,0,0.05,0,0)" xlink:href="#S"/><use transform="matrix(0.05,0,0,0.05,6.3500000000000005,0)" xlink:href="#aa"/><use transform="matrix(0.05,0,0,0.05,16.85,0)" xlink:href="#S"/><use transform="matrix(0.05,0,0,0.05,23.200000000000003,0)" xlink:href="#ab"/><use transform="matrix(0.05,0,0,0.05,28.200000000000003,0)" xlink:href="#S"/><use transform="matrix(0.05,0,0,0.05,34.550000000000004,0)" xlink:href="#ac"/><use transform="matrix(0.05,0,0,0.05,45.050000000000004,0)" xlink:href="#S"/><use transform="matrix(0.05,0,0,0.05,51.400000000000006,0)" xlink:href="#ab"/><use transform="matrix(0.05,0,0,0.05,56.400000000000006,0)" xlink:href="#S"/><use transform="matrix(0.05,0,0,0.05,62.75,0)" xlink:href="#ad"/><use transform="matrix(0.05,0,0,0.05,73.25,0)" xlink:href="#S"/><use transform="matrix(0.05,0,0,0.05,79.6,0)" xlink:href="#ab"/><use transform="matrix(0.05,0,0,0.05,84.6,0)" xlink:href="#S"/><use transform="matrix(0.05,0,0,0.05,90.94999999999999,0)" xlink:href="#ac"/><use transform="matrix(0.05,0,0,0.05,101.44999999999999,0)" xlink:href="#aa"/><use transform="matrix(0.05,0,0,0.05,111.94999999999999,0)" xlink:href="#S"/><use transform="matrix(0.05,0,0,0.05,118.29999999999998,0)" xlink:href="#ab"/><use transform="matrix(0.05,0,0,0.05,123.29999999999998,0)" xlink:href="#S"/><use transform="matrix(0.05,0,0,0.05,129.64999999999998,0)" xlink:href="#ae"/><use transform="matrix(0.05,0,0,0.05,140.14999999999998,0)" xlink:href="#S"/><use transform="matrix(0.05,0,0,0.05,146.49999999999997,0)" xlink:href="#ab"/><use transform="matrix(0.05,0,0,0.05,151.49999999999997,0)" xlink:href="#O"/><use transform="matrix(0.05,0,0,0.05,161.49999999999997,0)" xlink:href="#X"/><use transform="matrix(0.05,0,0,0.05,166.49999999999997,0)" xlink:href="#Y"/><use transform="matrix(0.05,0,0,0.05,175.49999999999997,0)" xlink:href="#af"/></g><path d="M127-220V0H93v-220H8v-28h204v28h-85" id="ag"/><path d="M177-190C167-65 218 103 67 71c-23-6-38-20-44-43l32-5c15 47 100 32 89-28v-30C133-14 115 1 83 1 29 1 15-40 15-95c0-56 16-97 71-98 29-1 48 16 59 35 1-10 0-23 2-32h30zM94-22c36 0 50-32 50-73 0-42-14-75-50-75-39 0-46 34-46 75s6 73 46 73" id="ah"/><g id="h"><use transform="matrix(0.05,0,0,0.05,0,0)" xlink:href="#L"/><use transform="matrix(0.05,0,0,0.05,10,0)" xlink:href="#ag"/><use transform="matrix(0.05,0,0,0.05,18.950000000000003,0)" xlink:href="#U"/><use transform="matrix(0.05,0,0,0.05,28.950000000000003,0)" xlink:href="#P"/><use transform="matrix(0.05,0,0,0.05,34.900000000000006,0)" xlink:href="#ah"/><use transform="matrix(0.05,0,0,0.05,44.900000000000006,0)" xlink:href="#O"/><use transform="matrix(0.05,0,0,0.05,54.900000000000006,0)" xlink:href="#X"/></g><g id="i"><use transform="matrix(0.05,0,0,0.05,0,0)" xlink:href="#S"/><use transform="matrix(0.05,0,0,0.05,6.3500000000000005,0)" xlink:href="#V"/><use transform="matrix(0.05,0,0,0.05,10.3,0)" xlink:href="#W"/><use transform="matrix(0.05,0,0,0.05,20.3,0)" xlink:href="#Y"/><use transform="matrix(0.05,0,0,0.05,29.3,0)" xlink:href="#U"/><use transform="matrix(0.05,0,0,0.05,39.3,0)" xlink:href="#V"/><use transform="matrix(0.05,0,0,0.05,43.25,0)" xlink:href="#S"/></g><g id="j"><use transform="matrix(0.05,0,0,0.05,0,0)" xlink:href="#W"/><use transform="matrix(0.05,0,0,0.05,10,0)" xlink:href="#P"/></g><path d="M85-194c31 0 48 13 60 33l-1-100h32l1 261h-30c-2-10 0-23-3-31C134-8 116 4 85 4 32 4 16-35 15-94c0-66 23-100 70-100zm9 24c-40 0-46 34-46 75 0 40 6 74 45 74 42 0 51-32 51-76 0-42-9-74-50-73" id="ai"/><g id="k"><use transform="matrix(0.05,0,0,0.05,0,0)" xlink:href="#S"/><use transform="matrix(0.05,0,0,0.05,6.3500000000000005,0)" xlink:href="#Y"/><use transform="matrix(0.05,0,0,0.05,15.350000000000001,0)" xlink:href="#V"/><use transform="matrix(0.05,0,0,0.05,19.3,0)" xlink:href="#W"/><use transform="matrix(0.05,0,0,0.05,29.3,0)" xlink:href="#N"/><use transform="matrix(0.05,0,0,0.05,39.3,0)" xlink:href="#ai"/><use transform="matrix(0.05,0,0,0.05,49.3,0)" xlink:href="#S"/></g><path d="M145-31C134-9 116 4 85 4 32 4 16-35 15-94c0-59 17-99 70-100 32-1 48 14 60 33 0-11-1-24 2-32h30l-1 268h-32zM93-21c41 0 51-33 51-76s-8-73-50-73c-40 0-46 35-46 75s5 74 45 74" id="aj"/><g id="l"><use transform="matrix(0.05,0,0,0.05,0,0)" xlink:href="#aj"/><use transform="matrix(0.05,0,0,0.05,10,0)" xlink:href="#N"/><use transform="matrix(0.05,0,0,0.05,20,0)" xlink:href="#O"/><use transform="matrix(0.05,0,0,0.05,30,0)" xlink:href="#P"/><use transform="matrix(0.05,0,0,0.05,35.95,0)" xlink:href="#Q"/></g><path d="M27 0v-27h64v-190l-56 39v-29l58-41h29v221h61V0H27" id="ak"/><use transform="matrix(0.05,0,0,0.05,0,0)" xlink:href="#ak" id="m"/><path d="M190 0L58-211 59 0H30v-248h39L202-35l-2-213h31V0h-41" id="al"/><use transform="matrix(0.05,0,0,0.05,0,0)" xlink:href="#al" id="n"/><path d="M143 0L79-87 56-68V0H24v-261h32v163l83-92h37l-77 82L181 0h-38" id="am"/><g id="o"><use transform="matrix(0.05,0,0,0.05,0,0)" xlink:href="#S"/><use transform="matrix(0.05,0,0,0.05,6.3500000000000005,0)" xlink:href="#am"/><use transform="matrix(0.05,0,0,0.05,15.350000000000001,0)" xlink:href="#O"/><use transform="matrix(0.05,0,0,0.05,25.35,0)" xlink:href="#Q"/><use transform="matrix(0.05,0,0,0.05,34.35,0)" xlink:href="#S"/></g><g id="p"><use transform="matrix(0.05,0,0,0.05,0,0)" xlink:href="#am"/><use transform="matrix(0.05,0,0,0.05,9,0)" xlink:href="#O"/><use transform="matrix(0.05,0,0,0.05,19,0)" xlink:href="#Q"/></g><g id="q"><use transform="matrix(0.05,0,0,0.05,0,0)" xlink:href="#Y"/><use transform="matrix(0.05,0,0,0.05,9,0)" xlink:href="#W"/><use transform="matrix(0.05,0,0,0.05,19,0)" xlink:href="#Z"/><use transform="matrix(0.05,0,0,0.05,33.95,0)" xlink:href="#L"/><use transform="matrix(0.05,0,0,0.05,43.95,0)" xlink:href="#U"/><use transform="matrix(0.05,0,0,0.05,53.95,0)" xlink:href="#P"/><use transform="matrix(0.05,0,0,0.05,59.900000000000006,0)" xlink:href="#O"/></g><g id="r"><use transform="matrix(0.05,0,0,0.05,0,0)" xlink:href="#X"/><use transform="matrix(0.05,0,0,0.05,5,0)" xlink:href="#W"/></g><path d="M115-194c53 0 69 39 70 98 0 66-23 100-70 100C84 3 66-7 56-30L54 0H23l1-261h32v101c10-23 28-34 59-34zm-8 174c40 0 45-34 45-75 0-40-5-75-45-74-42 0-51 32-51 76 0 43 10 73 51 73" id="an"/><g id="s"><use transform="matrix(0.05,0,0,0.05,0,0)" xlink:href="#L"/><use transform="matrix(0.05,0,0,0.05,10,0)" xlink:href="#ag"/><use transform="matrix(0.05,0,0,0.05,18.950000000000003,0)" xlink:href="#U"/><use transform="matrix(0.05,0,0,0.05,28.950000000000003,0)" xlink:href="#an"/><use transform="matrix(0.05,0,0,0.05,38.95,0)" xlink:href="#V"/><use transform="matrix(0.05,0,0,0.05,42.900000000000006,0)" xlink:href="#O"/></g><g id="t"><use transform="matrix(0.05,0,0,0.05,0,0)" xlink:href="#al"/><use transform="matrix(0.05,0,0,0.05,12.950000000000001,0)" xlink:href="#U"/><use transform="matrix(0.05,0,0,0.05,22.950000000000003,0)" xlink:href="#Z"/><use transform="matrix(0.05,0,0,0.05,37.900000000000006,0)" xlink:href="#O"/></g><g id="u"><use transform="matrix(0.05,0,0,0.05,0,0)" xlink:href="#W"/><use transform="matrix(0.05,0,0,0.05,10,0)" xlink:href="#P"/></g><path d="M33 0v-248h34V0H33" id="ao"/><path d="M30-248c118-7 216 8 213 122C240-48 200 0 122 0H30v-248zM63-27c89 8 146-16 146-99s-60-101-146-95v194" id="ap"/><g id="v"><use transform="matrix(0.05,0,0,0.05,0,0)" xlink:href="#ao"/><use transform="matrix(0.05,0,0,0.05,5,0)" xlink:href="#ap"/></g><path d="M101-234c-31-9-42 10-38 44h38v23H63V0H32v-167H5v-23h27c-7-52 17-82 69-68v24" id="aq"/><g id="w"><use transform="matrix(0.05,0,0,0.05,0,0)" xlink:href="#W"/><use transform="matrix(0.05,0,0,0.05,10,0)" xlink:href="#aq"/></g><g id="x"><use transform="matrix(0.05,0,0,0.05,0,0)" xlink:href="#ag"/><use transform="matrix(0.05,0,0,0.05,8.950000000000001,0)" xlink:href="#U"/><use transform="matrix(0.05,0,0,0.05,18.950000000000003,0)" xlink:href="#an"/><use transform="matrix(0.05,0,0,0.05,28.950000000000003,0)" xlink:href="#V"/><use transform="matrix(0.05,0,0,0.05,32.900000000000006,0)" xlink:href="#O"/></g><path d="M30 0v-248h33v221h125V0H30" id="ar"/><path d="M24-231v-30h32v30H24zM24 0v-190h32V0H24" id="as"/><path d="M240 0l2-218c-23 76-54 145-80 218h-23L58-218 59 0H30v-248h44l77 211c21-75 51-140 76-211h43V0h-30" id="at"/><g id="y"><use transform="matrix(0.05,0,0,0.05,0,0)" xlink:href="#L"/><use transform="matrix(0.05,0,0,0.05,10,0)" xlink:href="#ar"/><use transform="matrix(0.05,0,0,0.05,20,0)" xlink:href="#W"/><use transform="matrix(0.05,0,0,0.05,30,0)" xlink:href="#ah"/><use transform="matrix(0.05,0,0,0.05,40,0)" xlink:href="#as"/><use transform="matrix(0.05,0,0,0.05,43.95,0)" xlink:href="#Y"/><use transform="matrix(0.05,0,0,0.05,52.95,0)" xlink:href="#at"/><use transform="matrix(0.05,0,0,0.05,67.9,0)" xlink:href="#U"/><use transform="matrix(0.05,0,0,0.05,77.9,0)" xlink:href="#L"/></g><g id="z"><use transform="matrix(0.05,0,0,0.05,0,0)" xlink:href="#V"/><use transform="matrix(0.05,0,0,0.05,3.95,0)" xlink:href="#W"/><use transform="matrix(0.05,0,0,0.05,13.949999999999998,0)" xlink:href="#ah"/><use transform="matrix(0.05,0,0,0.05,23.95,0)" xlink:href="#as"/><use transform="matrix(0.05,0,0,0.05,27.899999999999995,0)" xlink:href="#Y"/></g><path d="M135-143c-3-34-86-38-87 0 15 53 115 12 119 90S17 21 10-45l28-5c4 36 97 45 98 0-10-56-113-15-118-90-4-57 82-63 122-42 12 7 21 19 24 35" id="au"/><path d="M117-194c89-4 53 116 60 194h-32v-121c0-31-8-49-39-48C34-167 62-67 57 0H25l-1-190h30c1 10-1 24 2 32 11-22 29-35 61-36" id="av"/><g id="A"><use transform="matrix(0.05,0,0,0.05,0,0)" xlink:href="#au"/><use transform="matrix(0.05,0,0,0.05,9,0)" xlink:href="#X"/><use transform="matrix(0.05,0,0,0.05,14,0)" xlink:href="#U"/><use transform="matrix(0.05,0,0,0.05,24,0)" xlink:href="#X"/><use transform="matrix(0.05,0,0,0.05,29,0)" xlink:href="#O"/><use transform="matrix(0.05,0,0,0.05,39,0)" xlink:href="#Z"/><use transform="matrix(0.05,0,0,0.05,53.95,0)" xlink:href="#O"/><use transform="matrix(0.05,0,0,0.05,63.95,0)" xlink:href="#av"/><use transform="matrix(0.05,0,0,0.05,73.95,0)" xlink:href="#X"/><use transform="matrix(0.05,0,0,0.05,78.95,0)" xlink:href="#ab"/></g><g id="B"><use transform="matrix(0.05,0,0,0.05,0,0)" xlink:href="#O"/><use transform="matrix(0.05,0,0,0.05,10,0)" xlink:href="#af"/><use transform="matrix(0.05,0,0,0.05,15,0)" xlink:href="#ah"/><use transform="matrix(0.05,0,0,0.05,25,0)" xlink:href="#af"/></g><path d="M87 75C49 33 22-17 22-94c0-76 28-126 65-167h31c-38 41-64 92-64 168S80 34 118 75H87" id="aw"/><g id="C"><use transform="matrix(0.05,0,0,0.05,0,0)" xlink:href="#S"/><use transform="matrix(0.05,0,0,0.05,6.3500000000000005,0)" xlink:href="#aw"/><use transform="matrix(0.05,0,0,0.05,12.3,0)" xlink:href="#aj"/><use transform="matrix(0.05,0,0,0.05,22.3,0)" xlink:href="#N"/><use transform="matrix(0.05,0,0,0.05,32.3,0)" xlink:href="#O"/><use transform="matrix(0.05,0,0,0.05,42.3,0)" xlink:href="#P"/><use transform="matrix(0.05,0,0,0.05,48.25,0)" xlink:href="#Q"/><use transform="matrix(0.05,0,0,0.05,57.25,0)" xlink:href="#ak"/></g><g id="D"><use transform="matrix(0.05,0,0,0.05,0,0)" xlink:href="#R"/><use transform="matrix(0.05,0,0,0.05,12,0)" xlink:href="#al"/><use transform="matrix(0.05,0,0,0.05,24.950000000000003,0)" xlink:href="#ap"/></g><path d="M101-251c82-7 93 87 43 132L82-64C71-53 59-42 53-27h129V0H18c2-99 128-94 128-182 0-28-16-43-45-43s-46 15-49 41l-32-3c6-41 34-60 81-64" id="ax"/><path d="M33-261c38 41 65 92 65 168S71 34 33 75H2C39 34 66-17 66-93S39-220 2-261h31" id="ay"/><g id="E"><use transform="matrix(0.05,0,0,0.05,0,0)" xlink:href="#aj"/><use transform="matrix(0.05,0,0,0.05,10,0)" xlink:href="#N"/><use transform="matrix(0.05,0,0,0.05,20,0)" xlink:href="#O"/><use transform="matrix(0.05,0,0,0.05,30,0)" xlink:href="#P"/><use transform="matrix(0.05,0,0,0.05,35.95,0)" xlink:href="#Q"/><use transform="matrix(0.05,0,0,0.05,44.95,0)" xlink:href="#ax"/><use transform="matrix(0.05,0,0,0.05,54.95,0)" xlink:href="#ay"/></g><path d="M140-251c81 0 123 46 123 126C263-46 219 4 140 4 59 4 17-45 17-125s42-126 123-126zm0 227c63 0 89-41 89-101s-29-99-89-99c-61 0-89 39-89 99S79-25 140-24" id="az"/><path d="M233-177c-1 41-23 64-60 70L243 0h-38l-65-103H63V0H30v-248c88 3 205-21 203 71zM63-129c60-2 137 13 137-47 0-61-80-42-137-45v92" id="aA"/><g id="F"><use transform="matrix(0.05,0,0,0.05,0,0)" xlink:href="#az"/><use transform="matrix(0.05,0,0,0.05,14,0)" xlink:href="#aA"/></g><path d="M126-127c33 6 58 20 58 59 0 88-139 92-164 29-3-8-5-16-6-25l32-3c6 27 21 44 54 44 32 0 52-15 52-46 0-38-36-46-79-43v-28c39 1 72-4 72-42 0-27-17-43-46-43-28 0-47 15-49 41l-32-3c6-42 35-63 81-64 48-1 79 21 79 65 0 36-21 52-52 59" id="aB"/><g id="G"><use transform="matrix(0.05,0,0,0.05,0,0)" xlink:href="#aw"/><use transform="matrix(0.05,0,0,0.05,5.95,0)" xlink:href="#aj"/><use transform="matrix(0.05,0,0,0.05,15.949999999999998,0)" xlink:href="#N"/><use transform="matrix(0.05,0,0,0.05,25.950000000000003,0)" xlink:href="#O"/><use transform="matrix(0.05,0,0,0.05,35.95,0)" xlink:href="#P"/><use transform="matrix(0.05,0,0,0.05,41.900000000000006,0)" xlink:href="#Q"/><use transform="matrix(0.05,0,0,0.05,50.900000000000006,0)" xlink:href="#aB"/></g><path d="M155-56V0h-30v-56H8v-25l114-167h33v167h35v25h-35zm-30-156c-27 46-58 90-88 131h88v-131" id="aC"/><g id="H"><use transform="matrix(0.05,0,0,0.05,0,0)" xlink:href="#aj"/><use transform="matrix(0.05,0,0,0.05,10,0)" xlink:href="#N"/><use transform="matrix(0.05,0,0,0.05,20,0)" xlink:href="#O"/><use transform="matrix(0.05,0,0,0.05,30,0)" xlink:href="#P"/><use transform="matrix(0.05,0,0,0.05,35.95,0)" xlink:href="#Q"/><use transform="matrix(0.05,0,0,0.05,44.95,0)" xlink:href="#aC"/><use transform="matrix(0.05,0,0,0.05,54.95,0)" xlink:href="#ay"/><use transform="matrix(0.05,0,0,0.05,60.900000000000006,0)" xlink:href="#S"/></g><path d="M63-220v92h138v28H63V0H30v-248h175v28H63" id="aD"/><g id="I"><use transform="matrix(0.05,0,0,0.05,0,0)" xlink:href="#L"/><use transform="matrix(0.05,0,0,0.05,10,0)" xlink:href="#aA"/><use transform="matrix(0.05,0,0,0.05,22.950000000000003,0)" xlink:href="#O"/><use transform="matrix(0.05,0,0,0.05,32.95,0)" xlink:href="#au"/><use transform="matrix(0.05,0,0,0.05,41.95,0)" xlink:href="#N"/><use transform="matrix(0.05,0,0,0.05,51.95,0)" xlink:href="#V"/><use transform="matrix(0.05,0,0,0.05,55.900000000000006,0)" xlink:href="#X"/><use transform="matrix(0.05,0,0,0.05,60.900000000000006,0)" xlink:href="#aD"/><use transform="matrix(0.05,0,0,0.05,71.85000000000001,0)" xlink:href="#W"/><use transform="matrix(0.05,0,0,0.05,81.85000000000001,0)" xlink:href="#P"/><use transform="matrix(0.05,0,0,0.05,87.80000000000001,0)" xlink:href="#Z"/><use transform="matrix(0.05,0,0,0.05,102.75,0)" xlink:href="#U"/><use transform="matrix(0.05,0,0,0.05,112.75,0)" xlink:href="#X"/></g><g id="J"><use transform="matrix(0.05,0,0,0.05,0,0)" xlink:href="#S"/><use transform="matrix(0.05,0,0,0.05,6.3500000000000005,0)" xlink:href="#P"/><use transform="matrix(0.05,0,0,0.05,12.3,0)" xlink:href="#O"/><use transform="matrix(0.05,0,0,0.05,22.3,0)" xlink:href="#Y"/><use transform="matrix(0.05,0,0,0.05,31.3,0)" xlink:href="#W"/><use transform="matrix(0.05,0,0,0.05,41.3,0)" xlink:href="#P"/><use transform="matrix(0.05,0,0,0.05,47.25,0)" xlink:href="#ai"/><use transform="matrix(0.05,0,0,0.05,57.25,0)" xlink:href="#ar"/><use transform="matrix(0.05,0,0,0.05,67.25,0)" xlink:href="#as"/><use transform="matrix(0.05,0,0,0.05,71.2,0)" xlink:href="#au"/><use transform="matrix(0.05,0,0,0.05,80.2,0)" xlink:href="#X"/><use transform="matrix(0.05,0,0,0.05,85.2,0)" xlink:href="#S"/></g><g id="K"><use transform="matrix(0.05,0,0,0.05,0,0)" xlink:href="#S"/><use transform="matrix(0.05,0,0,0.05,6.3500000000000005,0)" xlink:href="#P"/><use transform="matrix(0.05,0,0,0.05,12.3,0)" xlink:href="#O"/><use transform="matrix(0.05,0,0,0.05,22.3,0)" xlink:href="#Y"/><use transform="matrix(0.05,0,0,0.05,31.3,0)" xlink:href="#W"/><use transform="matrix(0.05,0,0,0.05,41.3,0)" xlink:href="#P"/><use transform="matrix(0.05,0,0,0.05,47.25,0)" xlink:href="#ai"/><use transform="matrix(0.05,0,0,0.05,57.25,0)" xlink:href="#ap"/><use transform="matrix(0.05,0,0,0.05,70.2,0)" xlink:href="#U"/><use transform="matrix(0.05,0,0,0.05,80.2,0)" xlink:href="#X"/><use transform="matrix(0.05,0,0,0.05,85.2,0)" xlink:href="#U"/><use transform="matrix(0.05,0,0,0.05,95.2,0)" xlink:href="#S"/></g></defs></g></svg>