<svg xmlns="http://www.w3.org/2000/svg" xmlns:xlink="http://www.w3.org/1999/xlink" xmlns:lucid="lucid" width="960" height="520"><g transform="translate(0 0)" lucid:page-tab-id="0_0"><path d="M0 0h960v520H0z" fill="#fff"/><path d="M17.36 237.36H140v60H17.36z" fill="none"/><use xlink:href="#a" transform="matrix(1,0,0,1,22.358490566037744,242.35849056603774) translate(5.549999999999997 28.6)"/><use xlink:href="#b" transform="matrix(1,0,0,1,22.358490566037744,242.35849056603774) translate(64.55 28.6)"/><path d="M217.36 137.36h100v60h-100z" fill="none"/><use xlink:href="#c" transform="matrix(1,0,0,1,222.35849056603774,142.35849056603774) translate(9.049999999999997 28.6)"/><use xlink:href="#d" transform="matrix(1,0,0,1,222.35849056603774,142.35849056603774) translate(70.95 28.6)"/><path d="M140 267.36l77.36-100" stroke="#000" stroke-width="2" fill="none"/><path d="M140.8 267.97L140 269v-1.64zM212.3 181.48l-7.34-5.67 12.4-8.44z"/><path d="M217.36 170.32l-4.6 12.8-9.5-7.37 14.1-9.6zm-10.7 5.54l5.16 4 3.56-9.94z"/><path d="M377.36 29.96h220v74.8h-220z" fill="none"/><use xlink:href="#e" transform="matrix(1,0,0,1,382.3584905660378,34.958490566037746) translate(5.699999999999989 25.299999999999997)"/><use xlink:href="#f" transform="matrix(1,0,0,1,382.3584905660378,34.958490566037746) translate(78.5 25.299999999999997)"/><use xlink:href="#g" transform="matrix(1,0,0,1,382.3584905660378,34.958490566037746) translate(141.4 25.299999999999997)"/><use xlink:href="#h" transform="matrix(1,0,0,1,382.3584905660378,34.958490566037746) translate(194.3 25.299999999999997)"/><use xlink:href="#i" transform="matrix(1,0,0,1,382.3584905660378,34.958490566037746) translate(49.599999999999994 46.9)"/><use xlink:href="#j" transform="matrix(1,0,0,1,382.3584905660378,34.958490566037746) translate(95.5 46.9)"/><path d="M317.36 167.36l60-100" stroke="#000" stroke-width="2" fill="none"/><path d="M318.22 167.87l-.86 1.43v-1.94zM374 81.98l-7.96-4.77 11.32-9.84z"/><path d="M377.36 71.82l-2.7 11.72-10.3-6.18 13-11.33zm-9.62 5.24l5.6 3.35 2.35-10.27z"/><path d="M377.36 169.96h220v74.8h-220z" fill="none"/><use xlink:href="#e" transform="matrix(1,0,0,1,382.3584905660378,174.95849056603774) translate(4.224999999999994 25.299999999999997)"/><use xlink:href="#f" transform="matrix(1,0,0,1,382.3584905660378,174.95849056603774) translate(77.025 25.299999999999997)"/><use xlink:href="#g" transform="matrix(1,0,0,1,382.3584905660378,174.95849056603774) translate(139.925 25.299999999999997)"/><use xlink:href="#k" transform="matrix(1,0,0,1,382.3584905660378,174.95849056603774) translate(192.82500000000002 25.299999999999997)"/><use xlink:href="#i" transform="matrix(1,0,0,1,382.3584905660378,174.95849056603774) translate(49.599999999999994 46.9)"/><use xlink:href="#j" transform="matrix(1,0,0,1,382.3584905660378,174.95849056603774) translate(95.5 46.9)"/><path d="M317.36 167.36l60 40" stroke="#000" stroke-width="2" fill="none"/><path d="M317.9 166.53l-.54.83v-1.2zM377.36 207.36l-14.44-4.06 5.14-7.7z"/><path d="M377.36 205.75v2.65l-16.04-4.5 6.67-10zm-12.85-3.04l10.17 2.86-6.54-8.27z"/><path d="M597.36 67.36H660" stroke="#000" stroke-width="2" fill="none"/><path/><path d="M660 67.36L645.73 72V62.7z" fill="#fff"/><path d="M660 66.3v2.1l-15.27 4.97V61.35zm-13.27 4.32l10.03-3.26-10.03-3.26z"/><path d="M487.36 169.96v-65.2" fill="none"/><path d="M488.36 169.96c0 .55-.45 1-1 1s-1-.45-1-1 .45-1 1-1 1 .45 1 1zm0-4.08c0 .56-.45 1-1 1s-1-.44-1-1c0-.55.45-1 1-1s1 .45 1 1zm0-4.07c0 .56-.45 1-1 1s-1-.44-1-1c0-.54.45-1 1-1s1 .46 1 1zm0-4.07c0 .56-.45 1-1 1s-1-.44-1-1c0-.55.45-1 1-1s1 .45 1 1zm0-4.07c0 .55-.45 1-1 1s-1-.45-1-1 .45-1 1-1 1 .45 1 1zm0-4.08c0 .56-.45 1-1 1s-1-.44-1-1c0-.55.45-1 1-1s1 .45 1 1zm0-4.07c0 .56-.45 1-1 1s-1-.44-1-1c0-.54.45-1 1-1s1 .46 1 1zm0-4.07c0 .56-.45 1-1 1s-1-.44-1-1c0-.55.45-1 1-1s1 .45 1 1zm0-4.07c0 .55-.45 1-1 1s-1-.45-1-1 .45-1 1-1 1 .45 1 1zm0-4.08c0 .56-.45 1-1 1s-1-.44-1-1c0-.55.45-1 1-1s1 .45 1 1zm0-4.07c0 .56-.45 1-1 1s-1-.44-1-1c0-.54.45-1 1-1s1 .46 1 1zm0-4.07c0 .56-.45 1-1 1s-1-.44-1-1c0-.55.45-1 1-1s1 .45 1 1zm0-4.07c0 .55-.45 1-1 1s-1-.45-1-1 .45-1 1-1 1 .45 1 1zm0-4.08c0 .56-.45 1-1 1s-1-.44-1-1c0-.55.45-1 1-1s1 .45 1 1zm0-4.07c0 .56-.45 1-1 1s-1-.44-1-1c0-.54.45-1 1-1s1 .46 1 1zm0-4.07c0 .56-.45 1-1 1s-1-.44-1-1c0-.55.45-1 1-1s1 .45 1 1z"/><path/><path/><path d="M217.36 317.36h100v60h-100z" fill="none"/><use xlink:href="#c" transform="matrix(1,0,0,1,222.35849056603774,322.35849056603774) translate(8.049999999999997 28.6)"/><use xlink:href="#l" transform="matrix(1,0,0,1,222.35849056603774,322.35849056603774) translate(69.95 28.6)"/><path d="M140 267.36l77.36 80" stroke="#000" stroke-width="2" fill="none"/><path d="M140.72 266.66l-.72.7v-1.44zM217.36 347.36l-13.25-7.03 6.67-6.45z"/><path d="M217.36 345.08v3.4l-14.94-7.92 8.65-8.35zm-11.57-5l9.3 4.95-4.62-9.47z"/><path d="M267.36 317.36v-120" fill="none"/><path d="M268.36 317.36c0 .55-.45 1-1 1s-1-.45-1-1 .45-1 1-1 1 .45 1 1zm0-4c0 .55-.45 1-1 1s-1-.45-1-1 .45-1 1-1 1 .45 1 1zm0-4c0 .55-.45 1-1 1s-1-.45-1-1 .45-1 1-1 1 .45 1 1zm0-4c0 .55-.45 1-1 1s-1-.45-1-1 .45-1 1-1 1 .45 1 1zm0-4c0 .55-.45 1-1 1s-1-.45-1-1 .45-1 1-1 1 .45 1 1zm0-4c0 .55-.45 1-1 1s-1-.45-1-1 .45-1 1-1 1 .45 1 1zm0-4c0 .55-.45 1-1 1s-1-.45-1-1 .45-1 1-1 1 .45 1 1zm0-4c0 .55-.45 1-1 1s-1-.45-1-1 .45-1 1-1 1 .45 1 1zm0-4c0 .55-.45 1-1 1s-1-.45-1-1 .45-1 1-1 1 .45 1 1zm0-4c0 .55-.45 1-1 1s-1-.45-1-1 .45-1 1-1 1 .45 1 1zm0-4c0 .55-.45 1-1 1s-1-.45-1-1 .45-1 1-1 1 .45 1 1zm0-4c0 .55-.45 1-1 1s-1-.45-1-1 .45-1 1-1 1 .45 1 1zm0-4c0 .55-.45 1-1 1s-1-.45-1-1 .45-1 1-1 1 .45 1 1zm0-4c0 .55-.45 1-1 1s-1-.45-1-1 .45-1 1-1 1 .45 1 1zm0-4c0 .55-.45 1-1 1s-1-.45-1-1 .45-1 1-1 1 .45 1 1zm0-4c0 .55-.45 1-1 1s-1-.45-1-1 .45-1 1-1 1 .45 1 1zm0-4c0 .55-.45 1-1 1s-1-.45-1-1 .45-1 1-1 1 .45 1 1zm0-4c0 .55-.45 1-1 1s-1-.45-1-1 .45-1 1-1 1 .45 1 1zm0-4c0 .55-.45 1-1 1s-1-.45-1-1 .45-1 1-1 1 .45 1 1zm0-4c0 .55-.45 1-1 1s-1-.45-1-1 .45-1 1-1 1 .45 1 1zm0-4c0 .55-.45 1-1 1s-1-.45-1-1 .45-1 1-1 1 .45 1 1zm0-4c0 .55-.45 1-1 1s-1-.45-1-1 .45-1 1-1 1 .45 1 1zm0-4c0 .55-.45 1-1 1s-1-.45-1-1 .45-1 1-1 1 .45 1 1zm0-4c0 .55-.45 1-1 1s-1-.45-1-1 .45-1 1-1 1 .45 1 1zm0-4c0 .55-.45 1-1 1s-1-.45-1-1 .45-1 1-1 1 .45 1 1zm0-4c0 .55-.45 1-1 1s-1-.45-1-1 .45-1 1-1 1 .45 1 1zm0-4c0 .55-.45 1-1 1s-1-.45-1-1 .45-1 1-1 1 .45 1 1zm0-4c0 .55-.45 1-1 1s-1-.45-1-1 .45-1 1-1 1 .45 1 1zm0-4c0 .55-.45 1-1 1s-1-.45-1-1 .45-1 1-1 1 .45 1 1zm0-4c0 .55-.45 1-1 1s-1-.45-1-1 .45-1 1-1 1 .45 1 1z"/><path/><path/><path d="M497.36 397.36v-120" fill="none"/><path d="M498.36 397.36c0 .55-.45 1-1 1s-1-.45-1-1 .45-1 1-1 1 .45 1 1zm0-4c0 .55-.45 1-1 1s-1-.45-1-1 .45-1 1-1 1 .45 1 1zm0-4c0 .55-.45 1-1 1s-1-.45-1-1 .45-1 1-1 1 .45 1 1zm0-4c0 .55-.45 1-1 1s-1-.45-1-1 .45-1 1-1 1 .45 1 1zm0-4c0 .55-.45 1-1 1s-1-.45-1-1 .45-1 1-1 1 .45 1 1zm0-4c0 .55-.45 1-1 1s-1-.45-1-1 .45-1 1-1 1 .45 1 1zm0-4c0 .55-.45 1-1 1s-1-.45-1-1 .45-1 1-1 1 .45 1 1zm0-4c0 .55-.45 1-1 1s-1-.45-1-1 .45-1 1-1 1 .45 1 1zm0-4c0 .55-.45 1-1 1s-1-.45-1-1 .45-1 1-1 1 .45 1 1zm0-4c0 .55-.45 1-1 1s-1-.45-1-1 .45-1 1-1 1 .45 1 1zm0-4c0 .55-.45 1-1 1s-1-.45-1-1 .45-1 1-1 1 .45 1 1zm0-4c0 .55-.45 1-1 1s-1-.45-1-1 .45-1 1-1 1 .45 1 1zm0-4c0 .55-.45 1-1 1s-1-.45-1-1 .45-1 1-1 1 .45 1 1zm0-4c0 .55-.45 1-1 1s-1-.45-1-1 .45-1 1-1 1 .45 1 1zm0-4c0 .55-.45 1-1 1s-1-.45-1-1 .45-1 1-1 1 .45 1 1zm0-4c0 .55-.45 1-1 1s-1-.45-1-1 .45-1 1-1 1 .45 1 1zm0-4c0 .55-.45 1-1 1s-1-.45-1-1 .45-1 1-1 1 .45 1 1zm0-4c0 .55-.45 1-1 1s-1-.45-1-1 .45-1 1-1 1 .45 1 1zm0-4c0 .55-.45 1-1 1s-1-.45-1-1 .45-1 1-1 1 .45 1 1zm0-4c0 .55-.45 1-1 1s-1-.45-1-1 .45-1 1-1 1 .45 1 1zm0-4c0 .55-.45 1-1 1s-1-.45-1-1 .45-1 1-1 1 .45 1 1zm0-4c0 .55-.45 1-1 1s-1-.45-1-1 .45-1 1-1 1 .45 1 1zm0-4c0 .55-.45 1-1 1s-1-.45-1-1 .45-1 1-1 1 .45 1 1zm0-4c0 .55-.45 1-1 1s-1-.45-1-1 .45-1 1-1 1 .45 1 1zm0-4c0 .55-.45 1-1 1s-1-.45-1-1 .45-1 1-1 1 .45 1 1zm0-4c0 .55-.45 1-1 1s-1-.45-1-1 .45-1 1-1 1 .45 1 1zm0-4c0 .55-.45 1-1 1s-1-.45-1-1 .45-1 1-1 1 .45 1 1zm0-4c0 .55-.45 1-1 1s-1-.45-1-1 .45-1 1-1 1 .45 1 1zm0-4c0 .55-.45 1-1 1s-1-.45-1-1 .45-1 1-1 1 .45 1 1zm0-4c0 .55-.45 1-1 1s-1-.45-1-1 .45-1 1-1 1 .45 1 1z"/><path d="M317.36 347.36l80-50" stroke="#000" stroke-width="2" fill="none"/><path d="M317.9 348.2l-.54.34v-1.18z"/><path d="M397.36 297.36l-9.64 11.5-4.92-7.87z" stroke="#000" stroke-width="2"/><path d="M317.36 347.36l80 37" stroke="#000" stroke-width="2" fill="none"/><path d="M317.78 346.45l-.42.9v-1.1z"/><path d="M397.36 384.36l-14.9-1.78 3.9-8.42z" stroke="#000" stroke-width="2"/><path d="M660 37h200v60H660z" fill="none"/><g><use xlink:href="#m" transform="matrix(1,0,0,1,665,42) translate(23.125 17.799999999999997)"/><use xlink:href="#n" transform="matrix(1,0,0,1,665,42) translate(66.025 17.799999999999997)"/><use xlink:href="#o" transform="matrix(1,0,0,1,665,42) translate(128.925 17.799999999999997)"/><use xlink:href="#p" transform="matrix(1,0,0,1,665,42) translate(151.875 17.799999999999997)"/><use xlink:href="#q" transform="matrix(1,0,0,1,665,42) translate(11.625 39.4)"/><use xlink:href="#r" transform="matrix(1,0,0,1,665,42) translate(62.525000000000006 39.4)"/><use xlink:href="#s" transform="matrix(1,0,0,1,665,42) translate(127.47500000000001 39.4)"/></g><path d="M600 207.36h62.64" stroke="#000" stroke-width="2" fill="none"/><path d="M662.64 207.36L648.38 212v-9.28z" fill="#fff"/><path d="M662.64 206.3v2.1l-15.26 4.97v-12.02zm-13.26 4.32l10.03-3.26-10.02-3.26z"/><path d="M662.64 177h200v60h-200z" fill="none"/><g><use xlink:href="#m" transform="matrix(1,0,0,1,667.6415094339623,182) translate(23.125 17.799999999999997)"/><use xlink:href="#n" transform="matrix(1,0,0,1,667.6415094339623,182) translate(66.025 17.799999999999997)"/><use xlink:href="#o" transform="matrix(1,0,0,1,667.6415094339623,182) translate(128.925 17.799999999999997)"/><use xlink:href="#p" transform="matrix(1,0,0,1,667.6415094339623,182) translate(151.875 17.799999999999997)"/><use xlink:href="#q" transform="matrix(1,0,0,1,667.6415094339623,182) translate(11.625 39.4)"/><use xlink:href="#r" transform="matrix(1,0,0,1,667.6415094339623,182) translate(62.525000000000006 39.4)"/><use xlink:href="#s" transform="matrix(1,0,0,1,667.6415094339623,182) translate(127.47500000000001 39.4)"/></g><defs><path d="M140-251c81 0 123 46 123 126C263-46 219 4 140 4 59 4 17-45 17-125s42-126 123-126zm0 227c63 0 89-41 89-101s-29-99-89-99c-61 0-89 39-89 99S79-25 140-24" id="t"/><path d="M84 4C-5 8 30-112 23-190h32v120c0 31 7 50 39 49 72-2 45-101 50-169h31l1 190h-30c-1-10 1-25-2-33-11 22-28 36-60 37" id="u"/><path d="M59-47c-2 24 18 29 38 22v24C64 9 27 4 27-40v-127H5v-23h24l9-43h21v43h35v23H59v120" id="v"/><path d="M115-194c55 1 70 41 70 98S169 2 115 4C84 4 66-9 55-30l1 105H24l-1-265h31l2 30c10-21 28-34 59-34zm-8 174c40 0 45-34 45-75s-6-73-45-74c-42 0-51 32-51 76 0 43 10 73 51 73" id="w"/><g id="a"><use transform="matrix(0.05,0,0,0.05,0,0)" xlink:href="#t"/><use transform="matrix(0.05,0,0,0.05,14,0)" xlink:href="#u"/><use transform="matrix(0.05,0,0,0.05,24,0)" xlink:href="#v"/><use transform="matrix(0.05,0,0,0.05,29,0)" xlink:href="#w"/><use transform="matrix(0.05,0,0,0.05,39,0)" xlink:href="#u"/><use transform="matrix(0.05,0,0,0.05,49,0)" xlink:href="#v"/></g><path d="M205 0l-28-72H64L36 0H1l101-248h38L239 0h-34zm-38-99l-47-123c-12 45-31 82-46 123h93" id="x"/><path d="M114-163C36-179 61-72 57 0H25l-1-190h30c1 12-1 29 2 39 6-27 23-49 58-41v29" id="y"/><path d="M141-36C126-15 110 5 73 4 37 3 15-17 15-53c-1-64 63-63 125-63 3-35-9-54-41-54-24 1-41 7-42 31l-33-3c5-37 33-52 76-52 45 0 72 20 72 64v82c-1 20 7 32 28 27v20c-31 9-61-2-59-35zM48-53c0 20 12 33 32 33 41-3 63-29 60-74-43 2-92-5-92 41" id="z"/><path d="M179-190L93 31C79 59 56 82 12 73V49c39 6 53-20 64-50L1-190h34L92-34l54-156h33" id="A"/><g id="b"><use transform="matrix(0.05,0,0,0.05,0,0)" xlink:href="#x"/><use transform="matrix(0.05,0,0,0.05,12,0)" xlink:href="#y"/><use transform="matrix(0.05,0,0,0.05,17.95,0)" xlink:href="#y"/><use transform="matrix(0.05,0,0,0.05,23.9,0)" xlink:href="#z"/><use transform="matrix(0.05,0,0,0.05,33.9,0)" xlink:href="#A"/></g><path d="M115-194c53 0 69 39 70 98 0 66-23 100-70 100C84 3 66-7 56-30L54 0H23l1-261h32v101c10-23 28-34 59-34zm-8 174c40 0 45-34 45-75 0-40-5-75-45-74-42 0-51 32-51 76 0 43 10 73 51 73" id="B"/><path d="M24 0v-261h32V0H24" id="C"/><path d="M100-194c63 0 86 42 84 106H49c0 40 14 67 53 68 26 1 43-12 49-29l28 8c-11 28-37 45-77 45C44 4 14-33 15-96c1-61 26-98 85-98zm52 81c6-60-76-77-97-28-3 7-6 17-6 28h103" id="D"/><path d="M33 0v-248h34V0H33" id="E"/><path d="M30-248c118-7 216 8 213 122C240-48 200 0 122 0H30v-248zM63-27c89 8 146-16 146-99s-60-101-146-95v194" id="F"/><g id="c"><use transform="matrix(0.05,0,0,0.05,0,0)" xlink:href="#v"/><use transform="matrix(0.05,0,0,0.05,5,0)" xlink:href="#z"/><use transform="matrix(0.05,0,0,0.05,15,0)" xlink:href="#B"/><use transform="matrix(0.05,0,0,0.05,25,0)" xlink:href="#C"/><use transform="matrix(0.05,0,0,0.05,28.950000000000003,0)" xlink:href="#D"/><use transform="matrix(0.05,0,0,0.05,38.95,0)" xlink:href="#E"/><use transform="matrix(0.05,0,0,0.05,43.95,0)" xlink:href="#F"/></g><path d="M27 0v-27h64v-190l-56 39v-29l58-41h29v221h61V0H27" id="G"/><use transform="matrix(0.05,0,0,0.05,0,0)" xlink:href="#G" id="d"/><path d="M24-231v-30h32v30H24zM24 0v-190h32V0H24" id="H"/><g id="e"><use transform="matrix(0.05,0,0,0.05,0,0)" xlink:href="#x"/><use transform="matrix(0.05,0,0,0.05,12,0)" xlink:href="#y"/><use transform="matrix(0.05,0,0,0.05,17.95,0)" xlink:href="#B"/><use transform="matrix(0.05,0,0,0.05,27.950000000000003,0)" xlink:href="#H"/><use transform="matrix(0.05,0,0,0.05,31.899999999999995,0)" xlink:href="#v"/><use transform="matrix(0.05,0,0,0.05,36.9,0)" xlink:href="#y"/><use transform="matrix(0.05,0,0,0.05,42.85,0)" xlink:href="#z"/><use transform="matrix(0.05,0,0,0.05,52.85,0)" xlink:href="#y"/><use transform="matrix(0.05,0,0,0.05,58.800000000000004,0)" xlink:href="#A"/></g><path d="M233-177c-1 41-23 64-60 70L243 0h-38l-65-103H63V0H30v-248c88 3 205-21 203 71zM63-129c60-2 137 13 137-47 0-61-80-42-137-45v92" id="I"/><path d="M96-169c-40 0-48 33-48 73s9 75 48 75c24 0 41-14 43-38l32 2c-6 37-31 61-74 61-59 0-76-41-82-99-10-93 101-131 147-64 4 7 5 14 7 22l-32 3c-4-21-16-35-41-35" id="J"/><path d="M100-194c62-1 85 37 85 99 1 63-27 99-86 99S16-35 15-95c0-66 28-99 85-99zM99-20c44 1 53-31 53-75 0-43-8-75-51-75s-53 32-53 75 10 74 51 75" id="K"/><path d="M85-194c31 0 48 13 60 33l-1-100h32l1 261h-30c-2-10 0-23-3-31C134-8 116 4 85 4 32 4 16-35 15-94c0-66 23-100 70-100zm9 24c-40 0-46 34-46 75 0 40 6 74 45 74 42 0 51-32 51-76 0-42-9-74-50-73" id="L"/><g id="f"><use transform="matrix(0.05,0,0,0.05,0,0)" xlink:href="#I"/><use transform="matrix(0.05,0,0,0.05,12.950000000000001,0)" xlink:href="#D"/><use transform="matrix(0.05,0,0,0.05,22.950000000000003,0)" xlink:href="#J"/><use transform="matrix(0.05,0,0,0.05,31.950000000000003,0)" xlink:href="#K"/><use transform="matrix(0.05,0,0,0.05,41.95,0)" xlink:href="#y"/><use transform="matrix(0.05,0,0,0.05,47.900000000000006,0)" xlink:href="#L"/></g><path d="M190 0L58-211 59 0H30v-248h39L202-35l-2-213h31V0h-41" id="M"/><path d="M210-169c-67 3-38 105-44 169h-31v-121c0-29-5-50-35-48C34-165 62-65 56 0H25l-1-190h30c1 10-1 24 2 32 10-44 99-50 107 0 11-21 27-35 58-36 85-2 47 119 55 194h-31v-121c0-29-5-49-35-48" id="N"/><g id="g"><use transform="matrix(0.05,0,0,0.05,0,0)" xlink:href="#M"/><use transform="matrix(0.05,0,0,0.05,12.950000000000001,0)" xlink:href="#z"/><use transform="matrix(0.05,0,0,0.05,22.950000000000003,0)" xlink:href="#N"/><use transform="matrix(0.05,0,0,0.05,37.900000000000006,0)" xlink:href="#D"/></g><use transform="matrix(0.05,0,0,0.05,0,0)" xlink:href="#G" id="h"/><path d="M87 75C49 33 22-17 22-94c0-76 28-126 65-167h31c-38 41-64 92-64 168S80 34 118 75H87" id="O"/><path d="M135-143c-3-34-86-38-87 0 15 53 115 12 119 90S17 21 10-45l28-5c4 36 97 45 98 0-10-56-113-15-118-90-4-57 82-63 122-42 12 7 21 19 24 35" id="P"/><g id="i"><use transform="matrix(0.05,0,0,0.05,0,0)" xlink:href="#O"/><use transform="matrix(0.05,0,0,0.05,5.95,0)" xlink:href="#u"/><use transform="matrix(0.05,0,0,0.05,15.949999999999998,0)" xlink:href="#P"/><use transform="matrix(0.05,0,0,0.05,24.95,0)" xlink:href="#D"/><use transform="matrix(0.05,0,0,0.05,34.95,0)" xlink:href="#y"/></g><path d="M101-234c-31-9-42 10-38 44h38v23H63V0H32v-167H5v-23h27c-7-52 17-82 69-68v24" id="Q"/><path d="M117-194c89-4 53 116 60 194h-32v-121c0-31-8-49-39-48C34-167 62-67 57 0H25l-1-190h30c1 10-1 24 2 32 11-22 29-35 61-36" id="R"/><path d="M33-261c38 41 65 92 65 168S71 34 33 75H2C39 34 66-17 66-93S39-220 2-261h31" id="S"/><g id="j"><use transform="matrix(0.05,0,0,0.05,0,0)" xlink:href="#L"/><use transform="matrix(0.05,0,0,0.05,10,0)" xlink:href="#D"/><use transform="matrix(0.05,0,0,0.05,20,0)" xlink:href="#Q"/><use transform="matrix(0.05,0,0,0.05,25,0)" xlink:href="#H"/><use transform="matrix(0.05,0,0,0.05,28.950000000000003,0)" xlink:href="#R"/><use transform="matrix(0.05,0,0,0.05,38.95,0)" xlink:href="#D"/><use transform="matrix(0.05,0,0,0.05,48.95,0)" xlink:href="#L"/><use transform="matrix(0.05,0,0,0.05,58.95,0)" xlink:href="#S"/></g><use transform="matrix(0.05,0,0,0.05,0,0)" xlink:href="#M" id="k"/><path d="M194 0L95-120 63-95V0H30v-248h33v124l119-124h40L117-140 236 0h-42" id="T"/><use transform="matrix(0.05,0,0,0.05,0,0)" xlink:href="#T" id="l"/><path d="M212-179c-10-28-35-45-73-45-59 0-87 40-87 99 0 60 29 101 89 101 43 0 62-24 78-52l27 14C228-24 195 4 139 4 59 4 22-46 18-125c-6-104 99-153 187-111 19 9 31 26 39 46" id="U"/><path d="M160-131c35 5 61 23 61 61C221 17 115-2 30 0v-248c76 3 177-17 177 60 0 33-19 50-47 57zm-97-11c50-1 110 9 110-42 0-47-63-36-110-37v79zm0 115c55-2 124 14 124-45 0-56-70-42-124-44v89" id="V"/><g id="m"><use transform="matrix(0.05,0,0,0.05,0,0)" xlink:href="#U"/><use transform="matrix(0.05,0,0,0.05,12.950000000000001,0)" xlink:href="#F"/><use transform="matrix(0.05,0,0,0.05,25.900000000000002,0)" xlink:href="#V"/></g><g id="n"><use transform="matrix(0.05,0,0,0.05,0,0)" xlink:href="#I"/><use transform="matrix(0.05,0,0,0.05,12.950000000000001,0)" xlink:href="#D"/><use transform="matrix(0.05,0,0,0.05,22.950000000000003,0)" xlink:href="#J"/><use transform="matrix(0.05,0,0,0.05,31.950000000000003,0)" xlink:href="#K"/><use transform="matrix(0.05,0,0,0.05,41.95,0)" xlink:href="#y"/><use transform="matrix(0.05,0,0,0.05,47.900000000000006,0)" xlink:href="#L"/></g><g id="o"><use transform="matrix(0.05,0,0,0.05,0,0)" xlink:href="#E"/><use transform="matrix(0.05,0,0,0.05,5,0)" xlink:href="#F"/></g><g id="p"><use transform="matrix(0.05,0,0,0.05,0,0)" xlink:href="#K"/><use transform="matrix(0.05,0,0,0.05,10,0)" xlink:href="#Q"/></g><path d="M206 0h-36l-40-164L89 0H53L-1-190h32L70-26l43-164h34l41 164 42-164h31" id="W"/><g id="q"><use transform="matrix(0.05,0,0,0.05,0,0)" xlink:href="#R"/><use transform="matrix(0.05,0,0,0.05,10,0)" xlink:href="#D"/><use transform="matrix(0.05,0,0,0.05,20,0)" xlink:href="#W"/><use transform="matrix(0.05,0,0,0.05,32.95,0)" xlink:href="#C"/><use transform="matrix(0.05,0,0,0.05,36.900000000000006,0)" xlink:href="#A"/></g><g id="r"><use transform="matrix(0.05,0,0,0.05,0,0)" xlink:href="#J"/><use transform="matrix(0.05,0,0,0.05,9,0)" xlink:href="#y"/><use transform="matrix(0.05,0,0,0.05,14.949999999999998,0)" xlink:href="#D"/><use transform="matrix(0.05,0,0,0.05,24.95,0)" xlink:href="#z"/><use transform="matrix(0.05,0,0,0.05,34.95,0)" xlink:href="#v"/><use transform="matrix(0.05,0,0,0.05,39.95,0)" xlink:href="#D"/><use transform="matrix(0.05,0,0,0.05,49.95,0)" xlink:href="#L"/></g><g id="s"><use transform="matrix(0.05,0,0,0.05,0,0)" xlink:href="#y"/><use transform="matrix(0.05,0,0,0.05,5.95,0)" xlink:href="#D"/><use transform="matrix(0.05,0,0,0.05,15.949999999999998,0)" xlink:href="#J"/><use transform="matrix(0.05,0,0,0.05,24.95,0)" xlink:href="#K"/><use transform="matrix(0.05,0,0,0.05,34.95,0)" xlink:href="#y"/><use transform="matrix(0.05,0,0,0.05,40.900000000000006,0)" xlink:href="#L"/></g></defs></g></svg>